<svg id="bg" xmlns="http://www.w3.org/2000/svg" xmlns:xlink="http://www.w3.org/1999/xlink" viewBox="0 0 2014.5 1388.85"><defs><style>.cls-1,.cls-6,.cls-8{fill:none;}.cls-2{fill:#e65100;}.cls-3{clip-path:url(#clip-path);}.cls-4{opacity:0.1;}.cls-5{fill:#fff;}.cls-5,.cls-6,.cls-7{opacity:0.05;}.cls-5,.cls-6{isolation:isolate;}.cls-6,.cls-8{stroke:#fff;stroke-miterlimit:10;stroke-width:6px;}</style><clipPath id="clip-path" transform="translate(94.5 161.42)"><rect class="cls-1" width="1920" height="1080"/></clipPath></defs><title>bg-14</title><polygon class="cls-2" points="94.5 1241.42 94.5 161.42 2014.5 161.42 2014.5 1241.42 94.5 1241.42"/><g class="cls-3"><g class="cls-4"><path class="cls-5" d="M44.2,678.7a6.6,6.6,0,1,1-6.6-6.6A6.59,6.59,0,0,1,44.2,678.7Z" transform="translate(94.5 161.42)"/><path class="cls-5" d="M117.3,530.9a6.6,6.6,0,1,1-6.6-6.6A6.59,6.59,0,0,1,117.3,530.9Z" transform="translate(94.5 161.42)"/><path class="cls-5" d="M84.2,739a6.6,6.6,0,1,1-6.6-6.6A6.59,6.59,0,0,1,84.2,739Z" transform="translate(94.5 161.42)"/><path class="cls-5" d="M-48.5,968.8a6.59,6.59,0,0,1-6.6,6.6,6.66,6.66,0,0,1-6.6-6.6,6.66,6.66,0,0,1,6.6-6.6A6.59,6.59,0,0,1-48.5,968.8Z" transform="translate(94.5 161.42)"/><path class="cls-5" d="M-81.3,1061.5a6.59,6.59,0,0,1-6.6,6.6,6.59,6.59,0,0,1-6.6-6.6,6.59,6.59,0,0,1,6.6-6.6A6.53,6.53,0,0,1-81.3,1061.5Z" transform="translate(94.5 161.42)"/></g><g class="cls-4"><path class="cls-5" d="M791.6,852.6a8.3,8.3,0,1,1,8.3,8.3A8.28,8.28,0,0,1,791.6,852.6Z" transform="translate(94.5 161.42)"/><path class="cls-5" d="M867.2,761.8a8.3,8.3,0,1,1,8.3,8.3A8.28,8.28,0,0,1,867.2,761.8Z" transform="translate(94.5 161.42)"/><path class="cls-5" d="M823.2,638a8.3,8.3,0,1,1,8.3,8.3A8.28,8.28,0,0,1,823.2,638Z" transform="translate(94.5 161.42)"/></g><polyline class="cls-6" points="391 806.62 345 880.62 372.6 930.62"/><polyline class="cls-6" points="396.1 768.32 319.9 891.02 345 936.22"/><path class="cls-5" d="M303.2,645.2a6.6,6.6,0,1,1-6.6-6.6A6.59,6.59,0,0,1,303.2,645.2Z" transform="translate(94.5 161.42)"/><path class="cls-5" d="M308.3,606.9a6.6,6.6,0,1,1-6.6-6.6A6.59,6.59,0,0,1,308.3,606.9Z" transform="translate(94.5 161.42)"/><path class="cls-5" d="M343.2,705.4a6.6,6.6,0,1,1-6.6-6.6A6.59,6.59,0,0,1,343.2,705.4Z" transform="translate(94.5 161.42)"/><path class="cls-5" d="M210.5,935.3a6.6,6.6,0,1,1-6.6-6.6A6.47,6.47,0,0,1,210.5,935.3Z" transform="translate(94.5 161.42)"/><path class="cls-5" d="M177.7,1028a6.6,6.6,0,1,1-6.6-6.6A6.47,6.47,0,0,1,177.7,1028Z" transform="translate(94.5 161.42)"/><line class="cls-6" x1="265.6" y1="1189.42" x2="464.2" y2="845.52"/><line class="cls-6" x1="298.4" y1="1096.72" x2="431.1" y2="866.82"/><line class="cls-6" x1="174" y1="1274.52" x2="372.6" y2="930.62"/><line class="cls-6" x1="146.5" y1="1280.02" x2="345" y2="936.22"/><polyline class="cls-6" points="625.8 941.42 584 1017.92 527 1018.52"/><polyline class="cls-6" points="656.6 918.22 587.3 1044.92 535.6 1045.22"/><path class="cls-5" d="M528.1,774.3a6.6,6.6,0,1,0,9,2.5A6.57,6.57,0,0,0,528.1,774.3Z" transform="translate(94.5 161.42)"/><path class="cls-5" d="M558.9,751a6.6,6.6,0,1,0,9,2.5A6.57,6.57,0,0,0,558.9,751Z" transform="translate(94.5 161.42)"/><path class="cls-5" d="M455.9,769a6.6,6.6,0,1,0,9,2.5A6.66,6.66,0,0,0,455.9,769Z" transform="translate(94.5 161.42)"/><path class="cls-5" d="M321.1,997.6a6.6,6.6,0,1,0,9,2.5A6.66,6.66,0,0,0,321.1,997.6Z" transform="translate(94.5 161.42)"/><path class="cls-5" d="M256.5,1071.8a6.6,6.6,0,1,0,9,2.5A6.57,6.57,0,0,0,256.5,1071.8Z" transform="translate(94.5 161.42)"/><line class="cls-6" x1="354.3" y1="1238.92" x2="556" y2="896.92"/><line class="cls-6" x1="418.9" y1="1164.82" x2="553.7" y2="936.22"/><line class="cls-6" x1="325.2" y1="1360.62" x2="527" y2="1018.52"/><line class="cls-6" x1="333.9" y1="1387.32" x2="535.6" y2="1045.22"/><polyline class="cls-6" points="830.8 582.22 876.8 508.12 849.3 458.22"/><polyline class="cls-6" points="825.8 620.42 902 497.82 876.8 452.62"/><path class="cls-5" d="M729.7,420.8a6.6,6.6,0,1,1,6.6,6.6A6.59,6.59,0,0,1,729.7,420.8Z" transform="translate(94.5 161.42)"/><path class="cls-5" d="M724.6,459a6.6,6.6,0,1,1,6.6,6.6A6.59,6.59,0,0,1,724.6,459Z" transform="translate(94.5 161.42)"/><path class="cls-5" d="M689.7,360.5a6.6,6.6,0,1,1,6.6,6.6A6.59,6.59,0,0,1,689.7,360.5Z" transform="translate(94.5 161.42)"/><path class="cls-5" d="M822.4,130.7a6.6,6.6,0,1,1,6.6,6.6A6.59,6.59,0,0,1,822.4,130.7Z" transform="translate(94.5 161.42)"/><path class="cls-5" d="M855.1,38a6.6,6.6,0,1,1,6.6,6.6A6.59,6.59,0,0,1,855.1,38Z" transform="translate(94.5 161.42)"/><line class="cls-6" x1="956.3" y1="199.42" x2="757.7" y2="543.32"/><line class="cls-6" x1="923.5" y1="292.12" x2="790.8" y2="521.92"/><line class="cls-6" x1="1047.9" y1="114.32" x2="849.3" y2="458.22"/><line class="cls-6" x1="1075.4" y1="108.72" x2="876.8" y2="452.62"/><polyline class="cls-6" points="596.1 447.32 637.9 370.82 694.9 370.22"/><polyline class="cls-6" points="565.3 470.62 634.6 343.92 686.2 343.52"/><path class="cls-5" d="M504.8,291.7a6.6,6.6,0,1,0-9-2.5A6.57,6.57,0,0,0,504.8,291.7Z" transform="translate(94.5 161.42)"/><path class="cls-5" d="M474,314.9a6.6,6.6,0,1,0-9-2.5A6.57,6.57,0,0,0,474,314.9Z" transform="translate(94.5 161.42)"/><path class="cls-5" d="M325.5,419.9a6.6,6.6,0,1,0-9-2.5A6.57,6.57,0,0,0,325.5,419.9Z" transform="translate(94.5 161.42)"/><path class="cls-5" d="M577,296.9a6.6,6.6,0,1,0-9-2.5A6.57,6.57,0,0,0,577,296.9Z" transform="translate(94.5 161.42)"/><path class="cls-5" d="M711.8,68.3a6.6,6.6,0,1,0-9-2.5A6.57,6.57,0,0,0,711.8,68.3Z" transform="translate(94.5 161.42)"/><path class="cls-5" d="M776.4-5.8a6.57,6.57,0,0,0,2.5-9,6.57,6.57,0,0,0-9-2.5,6.57,6.57,0,0,0-2.5,9A6.55,6.55,0,0,0,776.4-5.8Z" transform="translate(94.5 161.42)"/><line class="cls-6" x1="867.6" y1="149.82" x2="665.9" y2="491.92"/><line class="cls-6" x1="803" y1="224.02" x2="668.2" y2="452.52"/><line class="cls-6" x1="896.6" y1="28.22" x2="694.9" y2="370.22"/><line class="cls-6" x1="887.9" y1="1.52" x2="686.2" y2="343.52"/><line class="cls-6" x1="457.6" y1="504.62" x2="368" y2="659.72"/><path class="cls-5" d="M715.7,651a6.6,6.6,0,1,0-9-2.5A6.66,6.66,0,0,0,715.7,651Z" transform="translate(94.5 161.42)"/><line class="cls-6" x1="847.8" y1="735.72" x2="758.3" y2="890.82"/><g class="cls-7"><polyline class="cls-8" points="855.9 819.42 994.6 562.72 948.6 444.62 1145.5 105.22"/><circle class="cls-8" cx="848.2" cy="835.42" r="13.8"/></g><polyline class="cls-6" points="369.5 569.42 230.9 826.02 276.9 944.12 80 1283.52"/><path class="cls-6" d="M269,392a13.8,13.8,0,1,1,13.8,13.8A13.83,13.83,0,0,1,269,392Z" transform="translate(94.5 161.42)"/><path class="cls-5" d="M369.3,290.3v-.9l3-.3-.4-3.7-3,.3a8.47,8.47,0,0,0-.4-1.7l2.9-.9-1.1-3.5-2.9.9c-.2-.5-.5-1.1-.7-1.6l2.6-1.5-1.9-3.2-2.6,1.5a17,17,0,0,0-1-1.4l2.3-2-2.5-2.8-2.3,2c-.4-.4-.9-.8-1.3-1.2l1.8-2.5-3-2.2-1.8,2.5-1.5-.9,1.2-2.8-3.4-1.5-1.2,2.8a8.45,8.45,0,0,0-1.7-.5l.6-3-3.6-.8-.6,3c-.6-.1-1.2-.1-1.7-.2v-3h-3.7v3a8.81,8.81,0,0,0-1.7.2l-.6-3-3.6.8.6,3c-.6.2-1.1.3-1.7.5l-1.2-2.8-3.4,1.5,1.2,2.8-1.5.9-1.8-2.5-3,2.2,1.8,2.5c-.4.4-.9.8-1.3,1.2l-2.3-2-2.5,2.8,2.3,2a12.13,12.13,0,0,0-1,1.4l-2.6-1.5-1.9,3.2,2.6,1.5a11.11,11.11,0,0,0-.7,1.6l-2.9-.9-1.1,3.5,2.9.9c-.1.6-.3,1.1-.4,1.7l-3-.3-.4,3.7,3,.3v1.8l-3,.3.4,3.7,3-.3a8.47,8.47,0,0,0,.4,1.7l-2.9.9,1.1,3.5,2.9-.9c.2.5.5,1.1.7,1.6l-2.6,1.5,1.9,3.2,2.6-1.5a17,17,0,0,0,1,1.4l-2.3,2,2.5,2.8,2.3-2c.4.4.9.8,1.3,1.2l-1.8,2.5,3,2.2,1.8-2.5,1.5.9-1.2,2.8,3.4,1.5,1.2-2.8a8.45,8.45,0,0,0,1.7.5l-.6,3,3.6.8.6-3c.6.1,1.2.1,1.7.2v3h3.7v-3a8.81,8.81,0,0,0,1.7-.2l.6,3,3.6-.8-.6-3c.6-.2,1.1-.3,1.7-.5l1.2,2.8,3.4-1.5-1.2-2.8,1.5-.9,1.8,2.5,3-2.2-1.8-2.5c.4-.4.9-.8,1.3-1.2l2.3,2,2.5-2.8-2.3-2a12.13,12.13,0,0,0,1-1.4l2.6,1.5,1.9-3.2-2.6-1.5a11.11,11.11,0,0,0,.7-1.6l2.9.9,1.1-3.5-2.9-.9c.1-.6.3-1.1.4-1.7l3,.3.4-3.7-3-.3Zm-26.1,22.1a22.1,22.1,0,1,1,22.1-22.1A22.11,22.11,0,0,1,343.2,312.4Z" transform="translate(94.5 161.42)"/><path class="cls-5" d="M616.2,786.7v-.5l1.8-.2-.2-2.1-1.8.1c-.1-.3-.1-.7-.2-1l1.7-.5-.7-2-1.7.5c-.1-.3-.3-.6-.4-.9l1.5-.9-1.1-1.9-1.5.9a5.55,5.55,0,0,0-.6-.8l1.3-1.2-1.4-1.6-1.3,1.2a5.72,5.72,0,0,0-.8-.7l1-1.4-1.7-1.3-1,1.4a4.05,4.05,0,0,0-.9-.5l.7-1.6-2-.9-.7,1.6c-.3-.1-.6-.2-1-.3l.4-1.7-2.1-.4-.4,1.7c-.3,0-.7-.1-1-.1v-1.8H600v1.8c-.3,0-.7.1-1,.1l-.4-1.7-2.1.4.4,1.7c-.3.1-.7.2-1,.3l-.7-1.6-2,.9.7,1.6c-.3.2-.6.3-.9.5l-1-1.4-1.7,1.3,1,1.4a5,5,0,0,0-.8.7l-1.3-1.2-1.4,1.6,1.3,1.2c-.2.3-.4.5-.6.8l-1.5-.9-1.1,1.9,1.5.9c-.1.3-.3.6-.4.9l-1.7-.5-.7,2,1.7.5a3.55,3.55,0,0,0-.2,1l-1.7-.2-.2,2.1,1.8.2v1l-1.8.2.2,2.1,1.7-.2c.1.3.1.7.2,1l-1.7.5.7,2,1.7-.5c.1.3.3.6.4.9l-1.5.9,1.1,1.9,1.5-.9a5.55,5.55,0,0,0,.6.8l-1.3,1.2,1.4,1.6,1.3-1.2a5.72,5.72,0,0,0,.8.7l-1,1.4,1.7,1.3,1-1.4a4.05,4.05,0,0,0,.9.5l-.7,1.6,2,.9.7-1.6c.3.1.6.2,1,.3l-.4,1.7,2.1.4.4-1.7c.3,0,.7.1,1,.1v1.8h2.2v-1.8c.3,0,.7-.1,1-.1l.4,1.7,2.1-.4-.4-1.7,1-.3.7,1.6,2-.9-.7-1.6c.3-.2.6-.3.9-.5l1,1.4,1.7-1.3-1-1.4a5,5,0,0,0,.8-.7l1.3,1.2,1.4-1.6-1.4-1c.2-.3.4-.5.6-.8l1.5.9,1.1-1.9-1.5-.9c.1-.3.3-.6.4-.9l1.7.5.7-2-1.7-.5c.1-.3.1-.7.2-1l1.7.2.2-2.1-1.8-.2A1.76,1.76,0,0,0,616.2,786.7ZM601,799.5a12.8,12.8,0,1,1,12.8-12.8A12.76,12.76,0,0,1,601,799.5Z" transform="translate(94.5 161.42)"/><path class="cls-5" d="M584.5,129.9l-1.3-.5a2,2,0,0,1-1.2-1.8v-1.7l2.7-.7A1.83,1.83,0,0,0,586,123l-.8-2.9a1.83,1.83,0,0,0-2.2-1.3l-1.4.4a1.76,1.76,0,0,1-2-.8c-.1-.1-.1-.2-.2-.3a1.8,1.8,0,0,1,.1-2.1l.9-1.1a1.84,1.84,0,0,0-.2-2.5l-2.3-1.9a1.84,1.84,0,0,0-2.5.2l-.9,1.1a1.82,1.82,0,0,1-2.1.5c-.5-.2-1.1-.4-1.6-.6a1.71,1.71,0,0,1-1.3-1.7v-1.4a1.79,1.79,0,0,0-1.8-1.8h-3a1.79,1.79,0,0,0-1.8,1.8V110a1.71,1.71,0,0,1-1.3,1.7c-.1,0-.2.1-.3.1a1.71,1.71,0,0,1-2-.7l-.8-1.2a1.78,1.78,0,0,0-2.5-.4l-2.5,1.7a1.78,1.78,0,0,0-.4,2.5l.8,1.2a1.66,1.66,0,0,1-.1,2.1c-.1.1-.1.2-.2.3a1.75,1.75,0,0,1-2,.6l-1.3-.5a1.82,1.82,0,0,0-2.3,1.1l-1,2.8a1.82,1.82,0,0,0,1.1,2.3l1.3.5a2,2,0,0,1,1.2,1.8v1.7l-2.7.7a1.83,1.83,0,0,0-1.3,2.2l.8,2.9a1.83,1.83,0,0,0,2.2,1.3l1.4-.4a1.76,1.76,0,0,1,2,.8c.1.1.1.2.2.3a1.8,1.8,0,0,1-.1,2.1l-.9,1.1a1.84,1.84,0,0,0,.2,2.5l2.3,1.9a1.84,1.84,0,0,0,2.5-.2l.9-1.1a1.82,1.82,0,0,1,2.1-.5c.5.2,1.1.4,1.6.6a1.71,1.71,0,0,1,1.3,1.7v1.4a1.79,1.79,0,0,0,1.8,1.8h3a1.79,1.79,0,0,0,1.8-1.8v-1.4a1.71,1.71,0,0,1,1.3-1.7c.1,0,.2-.1.3-.1a1.71,1.71,0,0,1,2,.7l.8,1.2a1.78,1.78,0,0,0,2.5.4l2.5-1.7a1.78,1.78,0,0,0,.4-2.5l-.8-1.2a1.66,1.66,0,0,1,.1-2.1c.1-.1.1-.2.2-.3a1.75,1.75,0,0,1,2-.6l1.3.5a1.82,1.82,0,0,0,2.3-1.1l1-2.8A1.91,1.91,0,0,0,584.5,129.9Zm-18.3,8.4a11.5,11.5,0,1,1,11.5-11.5A11.5,11.5,0,0,1,566.2,138.3Z" transform="translate(94.5 161.42)"/><path class="cls-5" d="M361.5,829.9l-1.3-.5a2,2,0,0,1-1.2-1.8v-1.7l2.7-.7A1.83,1.83,0,0,0,363,823l-.8-2.9a1.83,1.83,0,0,0-2.2-1.3l-1.4.4a1.76,1.76,0,0,1-2-.8c-.1-.1-.1-.2-.2-.3a1.8,1.8,0,0,1,.1-2.1l.9-1.1a1.84,1.84,0,0,0-.2-2.5l-2.3-1.9a1.84,1.84,0,0,0-2.5.2l-.9,1.1a1.82,1.82,0,0,1-2.1.5c-.5-.2-1.1-.4-1.6-.6a1.71,1.71,0,0,1-1.3-1.7v-1.4a1.79,1.79,0,0,0-1.8-1.8h-3a1.79,1.79,0,0,0-1.8,1.8V810a1.71,1.71,0,0,1-1.3,1.7c-.1,0-.2.1-.3.1a1.71,1.71,0,0,1-2-.7l-.8-1.2a1.78,1.78,0,0,0-2.5-.4l-2.5,1.7a1.78,1.78,0,0,0-.4,2.5l.8,1.2a1.66,1.66,0,0,1-.1,2.1c-.1.1-.1.2-.2.3a1.75,1.75,0,0,1-2,.6l-1.3-.5a1.82,1.82,0,0,0-2.3,1.1l-1,2.8a1.82,1.82,0,0,0,1.1,2.3l1.3.5a2,2,0,0,1,1.2,1.8v1.7l-2.7.7a1.83,1.83,0,0,0-1.3,2.2l.8,2.9a1.83,1.83,0,0,0,2.2,1.3l1.4-.4a1.76,1.76,0,0,1,2,.8c.1.1.1.2.2.3a1.8,1.8,0,0,1-.1,2.1l-.9,1.1a1.84,1.84,0,0,0,.2,2.5l2.3,1.9a1.84,1.84,0,0,0,2.5-.2l.9-1.1a1.82,1.82,0,0,1,2.1-.5c.5.2,1.1.4,1.6.6a1.71,1.71,0,0,1,1.3,1.7v1.4a1.79,1.79,0,0,0,1.8,1.8h3a1.79,1.79,0,0,0,1.8-1.8v-1.4a1.71,1.71,0,0,1,1.3-1.7c.1,0,.2-.1.3-.1a1.71,1.71,0,0,1,2,.7l.8,1.2a1.78,1.78,0,0,0,2.5.4l2.5-1.7a1.78,1.78,0,0,0,.4-2.5l-.8-1.2a1.66,1.66,0,0,1,.1-2.1c.1-.1.1-.2.2-.3a1.75,1.75,0,0,1,2-.6l1.3.5a1.82,1.82,0,0,0,2.3-1.1l1-2.8A1.87,1.87,0,0,0,361.5,829.9Zm-18.3,8.3a11.5,11.5,0,1,1,11.5-11.5A11.5,11.5,0,0,1,343.2,838.2Z" transform="translate(94.5 161.42)"/><path class="cls-5" d="M693.4,757.7l-.8-.3a1.08,1.08,0,0,1-.7-1.1v-1l1.7-.5a1.23,1.23,0,0,0,.8-1.4l-.5-1.8a1.23,1.23,0,0,0-1.4-.8l-.9.2a1.08,1.08,0,0,1-1.2-.5c0-.1-.1-.1-.1-.2a1.06,1.06,0,0,1,.1-1.3l.6-.7a1.22,1.22,0,0,0-.1-1.6l-1.4-1.2a1.22,1.22,0,0,0-1.6.1l-.6.7a1.06,1.06,0,0,1-1.3.3c-.3-.1-.7-.3-1-.4a1.08,1.08,0,0,1-.8-1.1v-.9a1.11,1.11,0,0,0-1.1-1.1h-1.9a1.11,1.11,0,0,0-1.1,1.1v.9a1.17,1.17,0,0,1-.8,1.1c-.1,0-.1,0-.2.1a1.09,1.09,0,0,1-1.3-.4l-.5-.7a1.1,1.1,0,0,0-1.5-.3l-1.5,1.1a1.1,1.1,0,0,0-.3,1.5l.5.7a1.05,1.05,0,0,1,0,1.3c0,.1-.1.1-.1.2a1.09,1.09,0,0,1-1.3.4l-.8-.3a1.08,1.08,0,0,0-1.4.7l-.6,1.8a1.08,1.08,0,0,0,.7,1.4l.8.3a1.08,1.08,0,0,1,.7,1.1v1l-1.7.5a1.23,1.23,0,0,0-.8,1.4l.5,1.8a1.23,1.23,0,0,0,1.4.8l.9-.2a1.08,1.08,0,0,1,1.2.5c0,.1.1.1.1.2a1.06,1.06,0,0,1-.1,1.3l-.6.7a1.22,1.22,0,0,0,.1,1.6l1.4,1.2a1.22,1.22,0,0,0,1.6-.1l.6-.7a1.06,1.06,0,0,1,1.3-.3c.3.1.7.3,1,.4a1.08,1.08,0,0,1,.8,1.1v.9a1.11,1.11,0,0,0,1.1,1.1h1.9a1.11,1.11,0,0,0,1.1-1.1v-.9a1.17,1.17,0,0,1,.8-1.1c.1,0,.1,0,.2-.1a1.09,1.09,0,0,1,1.3.4l.5.7a1.1,1.1,0,0,0,1.5.3l1.5-1.1a1.1,1.1,0,0,0,.3-1.5l-.5-.7a1.05,1.05,0,0,1,0-1.3c0-.1.1-.1.1-.2a1.09,1.09,0,0,1,1.3-.4l.8.3a1.08,1.08,0,0,0,1.4-.7l.6-1.8A1.12,1.12,0,0,0,693.4,757.7Zm-11.3,5.2a7.1,7.1,0,1,1,7.1-7.1A7.13,7.13,0,0,1,682.1,762.9Z" transform="translate(94.5 161.42)"/><path class="cls-5" d="M791,46.6l-.8-.3a1.08,1.08,0,0,1-.7-1.1v-1l1.7-.5a1.23,1.23,0,0,0,.8-1.4l-.5-1.8a1.23,1.23,0,0,0-1.4-.8l-.9.2a1.08,1.08,0,0,1-1.2-.5c0-.1-.1-.1-.1-.2a1.06,1.06,0,0,1,.1-1.3l.6-.7a1.22,1.22,0,0,0-.1-1.6l-1.4-1.2a1.22,1.22,0,0,0-1.6.1l-.6.7a1.06,1.06,0,0,1-1.3.3c-.3-.1-.7-.3-1-.4a1.08,1.08,0,0,1-.8-1.1v-.9a1.11,1.11,0,0,0-1.1-1.1h-1.9a1.11,1.11,0,0,0-1.1,1.1V34a1.17,1.17,0,0,1-.8,1.1c-.1,0-.1,0-.2.1a1.09,1.09,0,0,1-1.3-.4l-.5-.7a1.1,1.1,0,0,0-1.5-.3l-1.5,1.1a1.1,1.1,0,0,0-.3,1.5l.5.7a1.05,1.05,0,0,1,0,1.3c0,.1-.1.1-.1.2a1.09,1.09,0,0,1-1.3.4l-.8-.3a1.08,1.08,0,0,0-1.4.7l-.6,1.8a1.08,1.08,0,0,0,.7,1.4l.8.3a1.08,1.08,0,0,1,.7,1.1v1l-1.7.4a1.23,1.23,0,0,0-.8,1.4l.5,1.8a1.23,1.23,0,0,0,1.4.8l.9-.2a1.08,1.08,0,0,1,1.2.5c0,.1.1.1.1.2a1.06,1.06,0,0,1-.1,1.3l-.6.7a1.22,1.22,0,0,0,.1,1.6l1.4,1.2a1.22,1.22,0,0,0,1.6-.1l.6-.7a1.06,1.06,0,0,1,1.3-.3c.3.1.7.3,1,.4a1.08,1.08,0,0,1,.8,1.1V56a1.11,1.11,0,0,0,1.1,1.1h1.9a1.11,1.11,0,0,0,1.1-1.1V55a1.17,1.17,0,0,1,.8-1.1c.1,0,.1,0,.2-.1a1.09,1.09,0,0,1,1.3.4l.5.7a1.1,1.1,0,0,0,1.5.3l1.5-1.1a1.1,1.1,0,0,0,.3-1.5l-.5-.7a1.05,1.05,0,0,1,0-1.3c0-.1.1-.1.1-.2a1.09,1.09,0,0,1,1.3-.4l.8.3a1.08,1.08,0,0,0,1.4-.7l.6-1.8A1,1,0,0,0,791,46.6Zm-11.3,5.1a7.1,7.1,0,1,1,7.1-7.1A7.13,7.13,0,0,1,779.7,51.7Z" transform="translate(94.5 161.42)"/></g></svg>