<?xml version="1.0" encoding="utf-8"?>
<!-- Generator: Adobe Illustrator 24.0.2, SVG Export Plug-In . SVG Version: 6.00 Build 0)  -->
<svg version="1.1" id="bg" xmlns="http://www.w3.org/2000/svg" xmlns:xlink="http://www.w3.org/1999/xlink" x="0px" y="0px"
	 viewBox="0 0 1920 1080" style="enable-background:new 0 0 1920 1080;" xml:space="preserve">
<style type="text/css">
	.st0{fill:url(#SVGID_1_);}
	.st1{clip-path:url(#SVGID_3_);}
	.st2{opacity:0.1;}
	.st3{opacity:5.000000e-02;fill:#FFFFFF;}
	.st4{opacity:5.000000e-02;fill:none;stroke:#FFFFFF;stroke-width:6;stroke-miterlimit:10;}
	.st5{opacity:5.000000e-02;}
	.st6{fill:none;stroke:#FFFFFF;stroke-width:6;stroke-miterlimit:10;}
</style>
<title>bg-3</title>
<linearGradient id="SVGID_1_" gradientUnits="userSpaceOnUse" x1="346.0426" y1="1021.7177" x2="1426.0426" y2="1021.7177" gradientTransform="matrix(0 1 -1 0 1981.7177 -346.0426)">
	<stop  offset="1.082549e-07" style="stop-color:#7466AA"/>
	<stop  offset="1" style="stop-color:#383045"/>
</linearGradient>
<polygon class="st0" points="0,1080 0,0 1920,0 1920,1080 "/>
<g>
	<defs>
		
			<rect id="SVGID_2_" x="420" y="-420" transform="matrix(-1.836970e-16 1 -1 -1.836970e-16 1500 -420)" width="1080" height="1920"/>
	</defs>
	<clipPath id="SVGID_3_">
		<use xlink:href="#SVGID_2_"  style="overflow:visible;"/>
	</clipPath>
	<g class="st1">
		<g>
			<g>
				<g class="st2">
					<path class="st3" d="M44.2,678.7c0,3.7-3,6.6-6.6,6.6c-3.7,0-6.6-3-6.6-6.6c0-3.7,3-6.6,6.6-6.6
						C41.2,672.1,44.2,675,44.2,678.7z"/>
					<path class="st3" d="M117.3,530.9c0,3.7-3,6.6-6.6,6.6c-3.7,0-6.6-3-6.6-6.6c0-3.7,3-6.6,6.6-6.6
						C114.3,524.3,117.3,527.3,117.3,530.9z"/>
					<path class="st3" d="M84.2,739c0,3.7-3,6.6-6.6,6.6c-3.7,0-6.6-3-6.6-6.6c0-3.7,3-6.6,6.6-6.6C81.2,732.3,84.2,735.3,84.2,739z
						"/>
					<path class="st3" d="M-48.5,968.8c0,3.7-3,6.6-6.6,6.6s-6.6-3-6.6-6.6s3-6.6,6.6-6.6S-48.5,965.1-48.5,968.8z"/>
					<path class="st3" d="M-81.3,1061.5c0,3.7-3,6.6-6.6,6.6c-3.7,0-6.6-3-6.6-6.6c0-3.7,3-6.6,6.6-6.6
						C-84.2,1054.9-81.3,1057.8-81.3,1061.5z"/>
				</g>
				<g class="st2">
					<path class="st3" d="M791.6,852.6c0-4.6,3.7-8.3,8.3-8.3c4.6,0,8.3,3.7,8.3,8.3c0,4.6-3.7,8.3-8.3,8.3
						C795.3,860.9,791.6,857.2,791.6,852.6z"/>
					<path class="st3" d="M867.2,761.8c0-4.6,3.7-8.3,8.3-8.3c4.6,0,8.3,3.7,8.3,8.3c0,4.6-3.7,8.3-8.3,8.3
						C870.9,770.2,867.2,766.4,867.2,761.8z"/>
					<path class="st3" d="M823.2,638c0-4.6,3.7-8.3,8.3-8.3s8.3,3.7,8.3,8.3c0,4.6-3.7,8.3-8.3,8.3S823.2,642.6,823.2,638z"/>
				</g>
				<g>
					<polyline class="st4" points="296.5,645.2 250.5,719.2 278.1,769.2 					"/>
					<polyline class="st4" points="301.6,606.9 225.4,729.6 250.5,774.8 					"/>
					<path class="st3" d="M303.2,645.2c0,3.7-3,6.6-6.6,6.6c-3.7,0-6.6-3-6.6-6.6s3-6.6,6.6-6.6
						C300.2,638.6,303.2,641.5,303.2,645.2z"/>
					<path class="st3" d="M308.3,606.9c0,3.7-3,6.6-6.6,6.6c-3.7,0-6.6-3-6.6-6.6c0-3.7,3-6.6,6.6-6.6
						C305.3,600.3,308.3,603.3,308.3,606.9z"/>
					<path class="st3" d="M343.2,705.4c0,3.7-3,6.6-6.6,6.6c-3.7,0-6.6-3-6.6-6.6c0-3.7,3-6.6,6.6-6.6
						C340.3,698.8,343.2,701.8,343.2,705.4z"/>
					<path class="st3" d="M210.5,935.3c0,3.7-3,6.6-6.6,6.6c-3.7,0-6.6-3-6.6-6.6c0-3.7,3-6.6,6.6-6.6
						C207.6,928.6,210.5,931.6,210.5,935.3z"/>
					<path class="st3" d="M177.7,1028c0,3.7-3,6.6-6.6,6.6c-3.7,0-6.6-3-6.6-6.6c0-3.7,3-6.6,6.6-6.6
						C174.8,1021.3,177.7,1024.3,177.7,1028z"/>
					<line class="st4" x1="171.1" y1="1028" x2="369.7" y2="684.1"/>
					<line class="st4" x1="203.9" y1="935.3" x2="336.6" y2="705.4"/>
					<line class="st4" x1="79.5" y1="1113.1" x2="278.1" y2="769.2"/>
					<line class="st4" x1="52" y1="1118.6" x2="250.5" y2="774.8"/>
				</g>
				<g>
					<polyline class="st4" points="531.3,780 489.5,856.5 432.5,857.1 					"/>
					<polyline class="st4" points="562.1,756.8 492.8,883.5 441.1,883.8 					"/>
					<path class="st3" d="M528.1,774.3c-3.2,1.8-4.3,5.8-2.5,9c1.8,3.2,5.8,4.3,9,2.5c3.2-1.8,4.3-5.8,2.5-9
						C535.3,773.6,531.2,772.5,528.1,774.3z"/>
					<path class="st3" d="M558.9,751c-3.2,1.8-4.3,5.8-2.5,9c1.8,3.2,5.8,4.3,9,2.5c3.2-1.8,4.3-5.8,2.5-9
						C566.1,750.3,562,749.2,558.9,751z"/>
					<path class="st3" d="M455.9,769c-3.2,1.8-4.3,5.8-2.5,9c1.8,3.2,5.8,4.3,9,2.5c3.2-1.8,4.3-5.8,2.5-9
						C463.1,768.4,459.1,767.2,455.9,769z"/>
					<path class="st3" d="M321.1,997.6c-3.2,1.8-4.3,5.8-2.5,9c1.8,3.2,5.8,4.3,9,2.5c3.2-1.8,4.3-5.8,2.5-9
						C328.3,997,324.3,995.8,321.1,997.6z"/>
					<path class="st3" d="M256.5,1071.8c-3.2,1.8-4.3,5.8-2.5,9c1.8,3.2,5.8,4.3,9,2.5c3.2-1.8,4.3-5.8,2.5-9
						C263.7,1071.1,259.7,1070,256.5,1071.8z"/>
					<line class="st4" x1="259.8" y1="1077.5" x2="461.5" y2="735.5"/>
					<line class="st4" x1="324.4" y1="1003.4" x2="459.2" y2="774.8"/>
					<line class="st4" x1="230.7" y1="1199.2" x2="432.5" y2="857.1"/>
					<line class="st4" x1="239.4" y1="1225.9" x2="441.1" y2="883.8"/>
				</g>
				<g>
					<polyline class="st4" points="736.3,420.8 782.3,346.7 754.8,296.8 					"/>
					<polyline class="st4" points="731.3,459 807.5,336.4 782.3,291.2 					"/>
					<path class="st3" d="M729.7,420.8c0-3.7,3-6.6,6.6-6.6c3.7,0,6.6,3,6.6,6.6c0,3.7-3,6.6-6.6,6.6
						C732.7,427.4,729.7,424.4,729.7,420.8z"/>
					<path class="st3" d="M724.6,459c0-3.7,3-6.6,6.6-6.6c3.7,0,6.6,3,6.6,6.6c0,3.7-3,6.6-6.6,6.6
						C727.6,465.6,724.6,462.7,724.6,459z"/>
					<path class="st3" d="M689.7,360.5c0-3.7,3-6.6,6.6-6.6c3.7,0,6.6,3,6.6,6.6c0,3.7-3,6.6-6.6,6.6
						C692.6,367.1,689.7,364.2,689.7,360.5z"/>
					<path class="st3" d="M822.4,130.7c0-3.7,3-6.6,6.6-6.6c3.7,0,6.6,3,6.6,6.6c0,3.7-3,6.6-6.6,6.6
						C825.3,137.3,822.4,134.3,822.4,130.7z"/>
					<path class="st3" d="M855.1,38c0-3.7,3-6.6,6.6-6.6c3.7,0,6.6,3,6.6,6.6c0,3.7-3,6.6-6.6,6.6C858.1,44.6,855.1,41.7,855.1,38z"
						/>
					<line class="st4" x1="861.8" y1="38" x2="663.2" y2="381.9"/>
					<line class="st4" x1="829" y1="130.7" x2="696.3" y2="360.5"/>
					<line class="st4" x1="953.4" y1="-47.1" x2="754.8" y2="296.8"/>
					<line class="st4" x1="980.9" y1="-52.7" x2="782.3" y2="291.2"/>
				</g>
				<polyline class="st4" points="501.6,285.9 543.4,209.4 600.4,208.8 				"/>
				<polyline class="st4" points="470.8,309.2 540.1,182.5 591.7,182.1 				"/>
				<path class="st3" d="M504.8,291.7c3.2-1.8,4.3-5.8,2.5-9c-1.8-3.2-5.8-4.3-9-2.5c-3.2,1.8-4.3,5.8-2.5,9
					C497.6,292.4,501.6,293.5,504.8,291.7z"/>
				<path class="st3" d="M474,314.9c3.2-1.8,4.3-5.8,2.5-9c-1.8-3.2-5.8-4.3-9-2.5c-3.2,1.8-4.3,5.8-2.5,9
					C466.8,315.6,470.8,316.7,474,314.9z"/>
				<path class="st3" d="M325.5,419.9c3.2-1.8,4.3-5.8,2.5-9c-1.8-3.2-5.8-4.3-9-2.5c-3.2,1.8-4.3,5.8-2.5,9
					C318.3,420.6,322.3,421.7,325.5,419.9z"/>
				<path class="st3" d="M577,296.9c3.2-1.8,4.3-5.8,2.5-9c-1.8-3.2-5.8-4.3-9-2.5c-3.2,1.8-4.3,5.8-2.5,9
					C569.8,297.6,573.8,298.7,577,296.9z"/>
				<path class="st3" d="M711.8,68.3c3.2-1.8,4.3-5.8,2.5-9c-1.8-3.2-5.8-4.3-9-2.5c-3.2,1.8-4.3,5.8-2.5,9
					C704.6,69,708.6,70.1,711.8,68.3z"/>
				<path class="st3" d="M776.4-5.8c3.2-1.8,4.3-5.8,2.5-9c-1.8-3.2-5.8-4.3-9-2.5c-3.2,1.8-4.3,5.8-2.5,9
					C769.1-5.1,773.2-4,776.4-5.8z"/>
				<line class="st4" x1="773.1" y1="-11.6" x2="571.4" y2="330.5"/>
				<line class="st4" x1="708.5" y1="62.6" x2="573.7" y2="291.1"/>
				<line class="st4" x1="802.1" y1="-133.2" x2="600.4" y2="208.8"/>
				<line class="st4" x1="793.4" y1="-159.9" x2="591.7" y2="182.1"/>
				<line class="st4" x1="363.1" y1="343.2" x2="273.5" y2="498.3"/>
				<path class="st3" d="M715.7,651c3.2-1.8,4.3-5.8,2.5-9c-1.8-3.2-5.8-4.3-9-2.5c-3.2,1.8-4.3,5.8-2.5,9
					C708.5,651.6,712.5,652.8,715.7,651z"/>
				<line class="st4" x1="753.3" y1="574.3" x2="663.8" y2="729.4"/>
				<g class="st5">
					<polyline class="st6" points="761.4,658 900.1,401.3 854.1,283.2 1051,-56.2 					"/>
					<circle class="st6" cx="753.7" cy="674" r="13.8"/>
				</g>
				<g>
					<polyline class="st4" points="275,408 136.4,664.6 182.4,782.7 -14.5,1122.1 					"/>
					<path class="st4" d="M269,392c0-7.6,6.2-13.8,13.8-13.8s13.8,6.2,13.8,13.8c0,7.6-6.2,13.8-13.8,13.8S269,399.6,269,392z"/>
				</g>
				<path class="st3" d="M369.3,290.3c0-0.3,0-0.6,0-0.9l3-0.3l-0.4-3.7l-3,0.3c-0.1-0.6-0.2-1.2-0.4-1.7l2.9-0.9l-1.1-3.5l-2.9,0.9
					c-0.2-0.5-0.5-1.1-0.7-1.6l2.6-1.5l-1.9-3.2l-2.6,1.5c-0.3-0.5-0.7-1-1-1.4l2.3-2l-2.5-2.8l-2.3,2c-0.4-0.4-0.9-0.8-1.3-1.2
					l1.8-2.5l-3-2.2l-1.8,2.5c-0.5-0.3-1-0.6-1.5-0.9l1.2-2.8l-3.4-1.5l-1.2,2.8c-0.5-0.2-1.1-0.4-1.7-0.5l0.6-3l-3.6-0.8l-0.6,3
					c-0.6-0.1-1.2-0.1-1.7-0.2v-3h-3.7v3c-0.6,0-1.2,0.1-1.7,0.2l-0.6-3l-3.6,0.8l0.6,3c-0.6,0.2-1.1,0.3-1.7,0.5l-1.2-2.8l-3.4,1.5
					l1.2,2.8c-0.5,0.3-1,0.6-1.5,0.9l-1.8-2.5l-3,2.2l1.8,2.5c-0.4,0.4-0.9,0.8-1.3,1.2l-2.3-2l-2.5,2.8l2.3,2
					c-0.4,0.5-0.7,0.9-1,1.4l-2.6-1.5l-1.9,3.2l2.6,1.5c-0.3,0.5-0.5,1.1-0.7,1.6l-2.9-0.9l-1.1,3.5l2.9,0.9
					c-0.1,0.6-0.3,1.1-0.4,1.7l-3-0.3l-0.4,3.7l3,0.3c0,0.3,0,0.6,0,0.9c0,0.3,0,0.6,0,0.9l-3,0.3l0.4,3.7l3-0.3
					c0.1,0.6,0.2,1.2,0.4,1.7l-2.9,0.9l1.1,3.5l2.9-0.9c0.2,0.5,0.5,1.1,0.7,1.6l-2.6,1.5l1.9,3.2l2.6-1.5c0.3,0.5,0.7,1,1,1.4
					l-2.3,2l2.5,2.8l2.3-2c0.4,0.4,0.9,0.8,1.3,1.2l-1.8,2.5l3,2.2l1.8-2.5c0.5,0.3,1,0.6,1.5,0.9l-1.2,2.8l3.4,1.5l1.2-2.8
					c0.5,0.2,1.1,0.4,1.7,0.5l-0.6,3l3.6,0.8l0.6-3c0.6,0.1,1.2,0.1,1.7,0.2v3h3.7v-3c0.6,0,1.2-0.1,1.7-0.2l0.6,3l3.6-0.8l-0.6-3
					c0.6-0.2,1.1-0.3,1.7-0.5l1.2,2.8l3.4-1.5l-1.2-2.8c0.5-0.3,1-0.6,1.5-0.9l1.8,2.5l3-2.2l-1.8-2.5c0.4-0.4,0.9-0.8,1.3-1.2
					l2.3,2l2.5-2.8l-2.3-2c0.4-0.5,0.7-0.9,1-1.4l2.6,1.5l1.9-3.2l-2.6-1.5c0.3-0.5,0.5-1.1,0.7-1.6l2.9,0.9l1.1-3.5l-2.9-0.9
					c0.1-0.6,0.3-1.1,0.4-1.7l3,0.3l0.4-3.7l-3-0.3C369.3,290.9,369.3,290.6,369.3,290.3z M343.2,312.4c-12.2,0-22.1-9.9-22.1-22.1
					c0-12.2,9.9-22.1,22.1-22.1c12.2,0,22.1,9.9,22.1,22.1C365.3,302.5,355.4,312.4,343.2,312.4z"/>
				<path class="st3" d="M616.2,786.7c0-0.2,0-0.3,0-0.5l1.8-0.2l-0.2-2.1L616,784c-0.1-0.3-0.1-0.7-0.2-1l1.7-0.5l-0.7-2l-1.7,0.5
					c-0.1-0.3-0.3-0.6-0.4-0.9l1.5-0.9l-1.1-1.9l-1.5,0.9c-0.2-0.3-0.4-0.6-0.6-0.8l1.3-1.2l-1.4-1.6l-1.3,1.2
					c-0.2-0.2-0.5-0.5-0.8-0.7l1-1.4l-1.7-1.3l-1,1.4c-0.3-0.2-0.6-0.4-0.9-0.5l0.7-1.6l-2-0.9l-0.7,1.6c-0.3-0.1-0.6-0.2-1-0.3
					l0.4-1.7l-2.1-0.4l-0.4,1.7c-0.3,0-0.7-0.1-1-0.1v-1.8H600v1.8c-0.3,0-0.7,0.1-1,0.1l-0.4-1.7l-2.1,0.4l0.4,1.7
					c-0.3,0.1-0.7,0.2-1,0.3l-0.7-1.6l-2,0.9l0.7,1.6c-0.3,0.2-0.6,0.3-0.9,0.5l-1-1.4l-1.7,1.3l1,1.4c-0.3,0.2-0.5,0.4-0.8,0.7
					l-1.3-1.2l-1.4,1.6l1.3,1.2c-0.2,0.3-0.4,0.5-0.6,0.8l-1.5-0.9l-1.1,1.9l1.5,0.9c-0.1,0.3-0.3,0.6-0.4,0.9l-1.7-0.5l-0.7,2
					l1.7,0.5c-0.1,0.3-0.2,0.7-0.2,1l-1.7-0.2l-0.2,2.1l1.8,0.2c0,0.2,0,0.3,0,0.5s0,0.3,0,0.5l-1.8,0.2l0.2,2.1l1.7-0.2
					c0.1,0.3,0.1,0.7,0.2,1l-1.7,0.5l0.7,2l1.7-0.5c0.1,0.3,0.3,0.6,0.4,0.9l-1.5,0.9l1.1,1.9l1.5-0.9c0.2,0.3,0.4,0.6,0.6,0.8
					l-1.3,1.2l1.4,1.6l1.3-1.2c0.2,0.2,0.5,0.5,0.8,0.7l-1,1.4l1.7,1.3l1-1.4c0.3,0.2,0.6,0.4,0.9,0.5l-0.7,1.6l2,0.9l0.7-1.6
					c0.3,0.1,0.6,0.2,1,0.3l-0.4,1.7l2.1,0.4l0.4-1.7c0.3,0,0.7,0.1,1,0.1v1.8h2.2v-1.8c0.3,0,0.7-0.1,1-0.1l0.4,1.7l2.1-0.4
					l-0.4-1.7c0.3-0.1,0.7-0.2,1-0.3l0.7,1.6l2-0.9l-0.7-1.6c0.3-0.2,0.6-0.3,0.9-0.5l1,1.4l1.7-1.3l-1-1.4c0.3-0.2,0.5-0.4,0.8-0.7
					l1.3,1.2l1.4-1.6L613,796c0.2-0.3,0.4-0.5,0.6-0.8l1.5,0.9l1.1-1.9l-1.5-0.9c0.1-0.3,0.3-0.6,0.4-0.9l1.7,0.5l0.7-2l-1.7-0.5
					c0.1-0.3,0.1-0.7,0.2-1l1.7,0.2l0.2-2.1l-1.8-0.2C616.2,787,616.2,786.8,616.2,786.7z M601,799.5c-7.1,0-12.8-5.7-12.8-12.8
					s5.7-12.8,12.8-12.8c7.1,0,12.8,5.7,12.8,12.8S608.1,799.5,601,799.5z"/>
				<path class="st3" d="M584.5,129.9l-1.3-0.5c-0.7-0.3-1.2-1-1.2-1.8c0-0.3,0-0.6,0-0.9c0-0.3,0-0.5,0-0.8l2.7-0.7
					c1-0.3,1.5-1.2,1.3-2.2l-0.8-2.9c-0.3-1-1.2-1.5-2.2-1.3l-1.4,0.4c-0.8,0.2-1.6-0.1-2-0.8c-0.1-0.1-0.1-0.2-0.2-0.3
					c-0.4-0.7-0.4-1.5,0.1-2.1l0.9-1.1c0.6-0.8,0.5-1.9-0.2-2.5l-2.3-1.9c-0.8-0.6-1.9-0.5-2.5,0.2l-0.9,1.1
					c-0.5,0.6-1.3,0.8-2.1,0.5c-0.5-0.2-1.1-0.4-1.6-0.6c-0.8-0.2-1.3-0.9-1.3-1.7v-1.4c0-1-0.8-1.8-1.8-1.8h-3
					c-1,0-1.8,0.8-1.8,1.8v1.4c0,0.8-0.5,1.5-1.3,1.7c-0.1,0-0.2,0.1-0.3,0.1c-0.8,0.2-1.6,0-2-0.7l-0.8-1.2c-0.6-0.8-1.7-1-2.5-0.4
					l-2.5,1.7c-0.8,0.6-1,1.7-0.4,2.5l0.8,1.2c0.5,0.7,0.4,1.5-0.1,2.1c-0.1,0.1-0.1,0.2-0.2,0.3c-0.5,0.6-1.3,0.9-2,0.6l-1.3-0.5
					c-0.9-0.3-1.9,0.1-2.3,1.1l-1,2.8c-0.3,0.9,0.1,1.9,1.1,2.3l1.3,0.5c0.7,0.3,1.2,1,1.2,1.8c0,0.3,0,0.6,0,0.9c0,0.3,0,0.5,0,0.8
					l-2.7,0.7c-1,0.3-1.5,1.2-1.3,2.2l0.8,2.9c0.3,1,1.2,1.5,2.2,1.3l1.4-0.4c0.8-0.2,1.6,0.1,2,0.8c0.1,0.1,0.1,0.2,0.2,0.3
					c0.4,0.7,0.4,1.5-0.1,2.1l-0.9,1.1c-0.6,0.8-0.5,1.9,0.2,2.5l2.3,1.9c0.8,0.6,1.9,0.5,2.5-0.2l0.9-1.1c0.5-0.6,1.3-0.8,2.1-0.5
					c0.5,0.2,1.1,0.4,1.6,0.6c0.8,0.2,1.3,0.9,1.3,1.7v1.4c0,1,0.8,1.8,1.8,1.8h3c1,0,1.8-0.8,1.8-1.8v-1.4c0-0.8,0.5-1.5,1.3-1.7
					c0.1,0,0.2-0.1,0.3-0.1c0.8-0.2,1.6,0,2,0.7l0.8,1.2c0.6,0.8,1.7,1,2.5,0.4l2.5-1.7c0.8-0.6,1-1.7,0.4-2.5l-0.8-1.2
					c-0.5-0.7-0.4-1.5,0.1-2.1c0.1-0.1,0.1-0.2,0.2-0.3c0.5-0.6,1.3-0.9,2-0.6l1.3,0.5c0.9,0.3,1.9-0.1,2.3-1.1l1-2.8
					C585.9,131.3,585.4,130.3,584.5,129.9z M566.2,138.3c-6.3,0-11.5-5.1-11.5-11.5s5.1-11.5,11.5-11.5s11.5,5.1,11.5,11.5
					S572.6,138.3,566.2,138.3z"/>
				<path class="st3" d="M361.5,829.9l-1.3-0.5c-0.7-0.3-1.2-1-1.2-1.8c0-0.3,0-0.6,0-0.9c0-0.3,0-0.5,0-0.8l2.7-0.7
					c1-0.3,1.5-1.2,1.3-2.2l-0.8-2.9c-0.3-1-1.2-1.5-2.2-1.3l-1.4,0.4c-0.8,0.2-1.6-0.1-2-0.8c-0.1-0.1-0.1-0.2-0.2-0.3
					c-0.4-0.7-0.4-1.5,0.1-2.1l0.9-1.1c0.6-0.8,0.5-1.9-0.2-2.5l-2.3-1.9c-0.8-0.6-1.9-0.5-2.5,0.2l-0.9,1.1
					c-0.5,0.6-1.3,0.8-2.1,0.5c-0.5-0.2-1.1-0.4-1.6-0.6c-0.8-0.2-1.3-0.9-1.3-1.7v-1.4c0-1-0.8-1.8-1.8-1.8h-3
					c-1,0-1.8,0.8-1.8,1.8v1.4c0,0.8-0.5,1.5-1.3,1.7c-0.1,0-0.2,0.1-0.3,0.1c-0.8,0.2-1.6,0-2-0.7l-0.8-1.2c-0.6-0.8-1.7-1-2.5-0.4
					l-2.5,1.7c-0.8,0.6-1,1.7-0.4,2.5l0.8,1.2c0.5,0.7,0.4,1.5-0.1,2.1c-0.1,0.1-0.1,0.2-0.2,0.3c-0.5,0.6-1.3,0.9-2,0.6l-1.3-0.5
					c-0.9-0.3-1.9,0.1-2.3,1.1l-1,2.8c-0.3,0.9,0.1,1.9,1.1,2.3l1.3,0.5c0.7,0.3,1.2,1,1.2,1.8c0,0.3,0,0.6,0,0.9c0,0.3,0,0.5,0,0.8
					l-2.7,0.7c-1,0.3-1.5,1.2-1.3,2.2l0.8,2.9c0.3,1,1.2,1.5,2.2,1.3l1.4-0.4c0.8-0.2,1.6,0.1,2,0.8c0.1,0.1,0.1,0.2,0.2,0.3
					c0.4,0.7,0.4,1.5-0.1,2.1l-0.9,1.1c-0.6,0.8-0.5,1.9,0.2,2.5l2.3,1.9c0.8,0.6,1.9,0.5,2.5-0.2l0.9-1.1c0.5-0.6,1.3-0.8,2.1-0.5
					c0.5,0.2,1.1,0.4,1.6,0.6c0.8,0.2,1.3,0.9,1.3,1.7v1.4c0,1,0.8,1.8,1.8,1.8h3c1,0,1.8-0.8,1.8-1.8v-1.4c0-0.8,0.5-1.5,1.3-1.7
					c0.1,0,0.2-0.1,0.3-0.1c0.8-0.2,1.6,0,2,0.7l0.8,1.2c0.6,0.8,1.7,1,2.5,0.4l2.5-1.7c0.8-0.6,1-1.7,0.4-2.5l-0.8-1.2
					c-0.5-0.7-0.4-1.5,0.1-2.1c0.1-0.1,0.1-0.2,0.2-0.3c0.5-0.6,1.3-0.9,2-0.6l1.3,0.5c0.9,0.3,1.9-0.1,2.3-1.1l1-2.8
					C362.9,831.3,362.4,830.2,361.5,829.9z M343.2,838.2c-6.3,0-11.5-5.1-11.5-11.5s5.1-11.5,11.5-11.5s11.5,5.1,11.5,11.5
					S349.6,838.2,343.2,838.2z"/>
				<path class="st3" d="M693.4,757.7l-0.8-0.3c-0.5-0.2-0.7-0.6-0.7-1.1c0-0.2,0-0.3,0-0.5c0-0.2,0-0.3,0-0.5l1.7-0.5
					c0.6-0.2,0.9-0.8,0.8-1.4l-0.5-1.8c-0.2-0.6-0.8-0.9-1.4-0.8l-0.9,0.2c-0.5,0.1-1-0.1-1.2-0.5c0-0.1-0.1-0.1-0.1-0.2
					c-0.3-0.4-0.2-0.9,0.1-1.3l0.6-0.7c0.4-0.5,0.3-1.2-0.1-1.6l-1.4-1.2c-0.5-0.4-1.2-0.3-1.6,0.1l-0.6,0.7
					c-0.3,0.4-0.8,0.5-1.3,0.3c-0.3-0.1-0.7-0.3-1-0.4c-0.5-0.1-0.8-0.6-0.8-1.1v-0.9c0-0.6-0.5-1.1-1.1-1.1h-1.9
					c-0.6,0-1.1,0.5-1.1,1.1v0.9c0,0.5-0.3,0.9-0.8,1.1c-0.1,0-0.1,0-0.2,0.1c-0.5,0.2-1,0-1.3-0.4l-0.5-0.7c-0.3-0.5-1-0.6-1.5-0.3
					l-1.5,1.1c-0.5,0.3-0.6,1-0.3,1.5l0.5,0.7c0.3,0.4,0.3,0.9,0,1.3c0,0.1-0.1,0.1-0.1,0.2c-0.3,0.4-0.8,0.6-1.3,0.4l-0.8-0.3
					c-0.6-0.2-1.2,0.1-1.4,0.7l-0.6,1.8c-0.2,0.6,0.1,1.2,0.7,1.4l0.8,0.3c0.5,0.2,0.7,0.6,0.7,1.1c0,0.2,0,0.3,0,0.5
					c0,0.2,0,0.3,0,0.5l-1.7,0.5c-0.6,0.2-0.9,0.8-0.8,1.4l0.5,1.8c0.2,0.6,0.8,0.9,1.4,0.8l0.9-0.2c0.5-0.1,1,0.1,1.2,0.5
					c0,0.1,0.1,0.1,0.1,0.2c0.3,0.4,0.2,0.9-0.1,1.3l-0.6,0.7c-0.4,0.5-0.3,1.2,0.1,1.6l1.4,1.2c0.5,0.4,1.2,0.3,1.6-0.1l0.6-0.7
					c0.3-0.4,0.8-0.5,1.3-0.3c0.3,0.1,0.7,0.3,1,0.4c0.5,0.1,0.8,0.6,0.8,1.1v0.9c0,0.6,0.5,1.1,1.1,1.1h1.9c0.6,0,1.1-0.5,1.1-1.1
					v-0.9c0-0.5,0.3-0.9,0.8-1.1c0.1,0,0.1,0,0.2-0.1c0.5-0.2,1,0,1.3,0.4l0.5,0.7c0.3,0.5,1,0.6,1.5,0.3l1.5-1.1
					c0.5-0.3,0.6-1,0.3-1.5l-0.5-0.7c-0.3-0.4-0.3-0.9,0-1.3c0-0.1,0.1-0.1,0.1-0.2c0.3-0.4,0.8-0.6,1.3-0.4l0.8,0.3
					c0.6,0.2,1.2-0.1,1.4-0.7l0.6-1.8C694.3,758.6,694,757.9,693.4,757.7z M682.1,762.9c-3.9,0-7.1-3.2-7.1-7.1
					c0-3.9,3.2-7.1,7.1-7.1c3.9,0,7.1,3.2,7.1,7.1C689.2,759.7,686,762.9,682.1,762.9z"/>
				<path class="st3" d="M791,46.6l-0.8-0.3c-0.5-0.2-0.7-0.6-0.7-1.1c0-0.2,0-0.3,0-0.5c0-0.2,0-0.3,0-0.5l1.7-0.5
					c0.6-0.2,0.9-0.8,0.8-1.4l-0.5-1.8c-0.2-0.6-0.8-0.9-1.4-0.8l-0.9,0.2c-0.5,0.1-1-0.1-1.2-0.5c0-0.1-0.1-0.1-0.1-0.2
					c-0.3-0.4-0.2-0.9,0.1-1.3l0.6-0.7c0.4-0.5,0.3-1.2-0.1-1.6l-1.4-1.2c-0.5-0.4-1.2-0.3-1.6,0.1l-0.6,0.7
					c-0.3,0.4-0.8,0.5-1.3,0.3c-0.3-0.1-0.7-0.3-1-0.4c-0.5-0.1-0.8-0.6-0.8-1.1v-0.9c0-0.6-0.5-1.1-1.1-1.1h-1.9
					c-0.6,0-1.1,0.5-1.1,1.1v0.9c0,0.5-0.3,0.9-0.8,1.1c-0.1,0-0.1,0-0.2,0.1c-0.5,0.2-1,0-1.3-0.4l-0.5-0.7c-0.3-0.5-1-0.6-1.5-0.3
					l-1.5,1.1c-0.5,0.3-0.6,1-0.3,1.5l0.5,0.7c0.3,0.4,0.3,0.9,0,1.3c0,0.1-0.1,0.1-0.1,0.2c-0.3,0.4-0.8,0.6-1.3,0.4l-0.8-0.3
					c-0.6-0.2-1.2,0.1-1.4,0.7l-0.6,1.8c-0.2,0.6,0.1,1.2,0.7,1.4l0.8,0.3c0.5,0.2,0.7,0.6,0.7,1.1c0,0.2,0,0.3,0,0.5
					c0,0.2,0,0.3,0,0.5l-1.7,0.4c-0.6,0.2-0.9,0.8-0.8,1.4l0.5,1.8c0.2,0.6,0.8,0.9,1.4,0.8l0.9-0.2c0.5-0.1,1,0.1,1.2,0.5
					c0,0.1,0.1,0.1,0.1,0.2c0.3,0.4,0.2,0.9-0.1,1.3l-0.6,0.7c-0.4,0.5-0.3,1.2,0.1,1.6l1.4,1.2c0.5,0.4,1.2,0.3,1.6-0.1l0.6-0.7
					c0.3-0.4,0.8-0.5,1.3-0.3c0.3,0.1,0.7,0.3,1,0.4c0.5,0.1,0.8,0.6,0.8,1.1v0.9c0,0.6,0.5,1.1,1.1,1.1h1.9c0.6,0,1.1-0.5,1.1-1.1
					V55c0-0.5,0.3-0.9,0.8-1.1c0.1,0,0.1,0,0.2-0.1c0.5-0.2,1,0,1.3,0.4l0.5,0.7c0.3,0.5,1,0.6,1.5,0.3l1.5-1.1
					c0.5-0.3,0.6-1,0.3-1.5l-0.5-0.7c-0.3-0.4-0.3-0.9,0-1.3c0-0.1,0.1-0.1,0.1-0.2c0.3-0.4,0.8-0.6,1.3-0.4l0.8,0.3
					c0.6,0.2,1.2-0.1,1.4-0.7l0.6-1.8C791.9,47.4,791.6,46.8,791,46.6z M779.7,51.7c-3.9,0-7.1-3.2-7.1-7.1s3.2-7.1,7.1-7.1
					c3.9,0,7.1,3.2,7.1,7.1S783.7,51.7,779.7,51.7z"/>
			</g>
		</g>
	</g>
</g>
</svg>
