<?xml version="1.0" encoding="utf-8"?>
<!-- Generator: Adobe Illustrator 24.0.2, SVG Export Plug-In . SVG Version: 6.00 Build 0)  -->
<svg version="1.1" id="bg" xmlns="http://www.w3.org/2000/svg" xmlns:xlink="http://www.w3.org/1999/xlink" x="0px" y="0px"
	 viewBox="0 0 1920 1080" style="enable-background:new 0 0 1920 1080;" xml:space="preserve">
<style type="text/css">
	.st0{fill:url(#SVGID_1_);}
	.st1{clip-path:url(#SVGID_3_);}
	.st2{opacity:5.000000e-02;}
	.st3{fill:none;}
	.st4{fill:#FFFFFF;}
</style>
<linearGradient id="SVGID_1_" gradientUnits="userSpaceOnUse" x1="-1851.8081" y1="676.0667" x2="-771.7148" y2="676.0667" gradientTransform="matrix(0 1 -1 0 1636.0667 1851.7615)">
	<stop  offset="1.082549e-07" style="stop-color:#7567AA"/>
	<stop  offset="0.1417" style="stop-color:#7866A5"/>
	<stop  offset="0.3052" style="stop-color:#836497"/>
	<stop  offset="0.4796" style="stop-color:#936180"/>
	<stop  offset="0.6617" style="stop-color:#AB5D60"/>
	<stop  offset="0.8477" style="stop-color:#C85736"/>
	<stop  offset="1" style="stop-color:#E5520F"/>
</linearGradient>
<polygon class="st0" points="-0.2,1080 -0.2,0 1920.2,0 1920.2,1080 "/>
<title>bg-3</title>
<g>
	<g>
		<defs>
			<rect id="SVGID_2_" y="0" width="1920" height="1080"/>
		</defs>
		<clipPath id="SVGID_3_">
			<use xlink:href="#SVGID_2_"  style="overflow:visible;"/>
		</clipPath>
		<g class="st1">
			<g class="st2">
				<path class="st3" d="M737.8,924.9c0,0.9-0.1,1.8-0.3,2.7l97.1,31.9l114.2-186.9c-0.4-0.4-0.8-0.7-1.2-1.1L736.4,918.8
					C737.3,920.7,737.8,922.8,737.8,924.9z"/>
				<path class="st3" d="M964.5,774.2c-0.5,0.2-0.9,0.5-1.4,0.6l54.3,233c0.4,0,0.8-0.1,1.2-0.1c4.1,0,8.1,1.8,10.7,5l75.3-47.3
					L964.5,774.2z"/>
				<path class="st3" d="M734.1,915.3L945.3,768c-0.5-0.9-0.8-1.9-1.1-2.9l-142.3,13.3l-70,135.1C732.7,914,733.4,914.6,734.1,915.3
					z"/>
				<path class="st3" d="M544.8,1105.7c3.4-0.6,6.8,0,9.7,1.7l83.7-91.7l-198.1-195c-0.5,0.4-1.1,0.8-1.6,1.1L544.8,1105.7z"/>
				<path class="st3" d="M443.8,816.5c-0.3,0.4-0.5,0.8-0.8,1.2l198,194.8l71.7-78.6c-2.1-2.5-3.3-5.8-3.3-9.1c0-1,0.1-2,0.3-3
					L443.8,816.5z"/>
				<path class="st3" d="M1005.9,1015.6c1.6-3.1,4.2-5.5,7.4-6.8l-1-4.3L959,775.8c-0.4,0-0.8,0-1.2,0c-1.9,0-3.8-0.4-5.5-1.1
					l-113.7,186L1005.9,1015.6z"/>
				<path class="st3" d="M727,938.6l6.3,64.7l9.6,99.1c1.1,0.6,2.1,1.4,3,2.3L832.4,963l-96.3-31.6C734.3,935,730.9,937.6,727,938.6
					z"/>
				<path class="st3" d="M748.5,1108.3c0.3,0.6,0.6,1.3,0.8,2l255.3-85.8c-0.2-0.8-0.2-1.7-0.2-2.5s0.1-1.6,0.2-2.4l-168.1-55.2
					L748.5,1108.3z"/>
				<path class="st3" d="M727.3,1103.4l-86.2-84.8l-83.4,91.4c1.6,1.7,2.7,3.8,3.3,6l160.8-2.9
					C722.2,1109.3,724.2,1105.8,727.3,1103.4z"/>
				<path class="st3" d="M946.6,513.9l12.6,233.7c7.3,0.7,12.8,6.8,12.8,14.1c0,0.3,0,0.5,0,0.8l330.7,67.9c0.4-1.1,0.9-2.1,1.5-3
					L952.8,510.9C951,512.4,948.9,513.4,946.6,513.9z"/>
				<path class="st3" d="M1218.6,1125.2c0.5-0.7,1.1-1.3,1.8-1.8l-113.2-154.5l-75.6,47.5c1.5,3.3,1.6,7,0.4,10.4L1218.6,1125.2z"/>
				<path class="st3" d="M1305.3,844.4l-194.7,122.2l113.2,154.5c1.8-0.8,3.8-1.3,5.9-1.3c0.9,0,1.9,0.1,2.8,0.3l77.7-272
					C1308.3,847.2,1306.6,845.9,1305.3,844.4z"/>
				<path class="st3" d="M943.8,760.9c0.3-6.4,5-11.8,11.3-13.1l-12.6-233.7c-1.1-0.1-2.2-0.3-3.3-0.7l-135,260.5L943.8,760.9z"/>
				<path class="st3" d="M-16.2,1077.1c1.4,2.2,2.2,4.8,2.2,7.5c0,1.4-0.2,2.9-0.7,4.3l203.2,99.1c0.3-0.4,0.5-0.7,0.8-1.1
					L41.7,1021.5L-16.2,1077.1z"/>
				<path class="st3" d="M941.7,1209l69.7-174.8c-2.3-1.4-4.2-3.4-5.5-5.8l-255.9,86c0,0.1,0,0.2,0,0.3c0,1.4-0.2,2.7-0.6,4.1
					L941.7,1209z"/>
				<path class="st3" d="M731.1,1101.3c1.5-0.5,3.1-0.8,4.7-0.8c0.9,0,1.8,0.1,2.7,0.3l-9.3-96.3l-6.3-65.4c-2.5-0.1-4.9-0.9-7-2.3
					l-71.8,78.8L731.1,1101.3z"/>
				<path class="st3" d="M1895.3,822.5c-1.7,0.7-3.6,1.1-5.4,1.1c-0.6,0-1.2-0.1-1.8-0.1l-95.3,336.8c1,0.7,2,1.5,2.8,2.4
					L1994.1,987L1895.3,822.5z"/>
				<path class="st3" d="M1877.2,803.1c0.3-0.7,0.7-1.3,1.1-1.9l-195.4-189.1c-5.5,4.2-13.2,3.8-18.2-0.8l-107.3,86.3L1877.2,803.1z
					"/>
				<path class="st3" d="M2092.7,880.8l-161.3-106.9l-29.9,27.6c1.6,2.4,2.5,5.1,2.5,8c0,0.9-0.1,1.9-0.3,2.8L2092.7,880.8z"/>
				<path class="st3" d="M1881.2,798.2c2.5-1.9,5.5-2.9,8.6-2.9c3.2,0,6.4,1.1,8.9,3.1l29.2-26.9L1692,615.1L1881.2,798.2z"/>
				<path class="st3" d="M192.4,1184.2c1.7-1.1,3.7-1.9,5.7-2.2V880.4c-2.4-0.3-4.7-1.3-6.6-2.8l-146.8,141L192.4,1184.2z"/>
				<path class="st3" d="M1518.2,729c1.3,2.2,1.9,4.6,1.9,7.2c0,0.2,0,0.4,0,0.6l338.7,64.7l-305.3-100.7L1518.2,729z"/>
				<path class="st3" d="M-30.2,1070.6c0.7-0.1,1.3-0.2,2-0.2c3.4,0,6.7,1.2,9.3,3.5l57.8-55.5l-125-140.2c-0.6,0.4-1.1,0.7-1.7,1
					L-30.2,1070.6z"/>
				<path class="st3" d="M971.2,766.5c-0.7,2-1.8,3.8-3.3,5.2l140.3,191.5l194.9-122.4c-0.8-1.8-1.2-3.7-1.2-5.7c0-0.3,0-0.5,0-0.8
					L971.2,766.5z"/>
				<path class="st3" d="M1018.5,1036.1c-1.1,0-2.2-0.1-3.3-0.4l-69.8,175l120.5,56.6c1.6-2.4,3.9-4.3,6.6-5.3l-52.9-225.9
					C1019.3,1036.1,1018.9,1036.1,1018.5,1036.1z"/>
				<path class="st3" d="M1484.6,685l17.4,37.6c4.8-1.4,9.9-0.2,13.6,3.2l33.2-26.7l-59.3-19.6
					C1488.3,681.8,1486.7,683.6,1484.6,685z"/>
				<path class="st3" d="M1327.5,826.9l165.1-86.1c-2.1-6.1,0.2-12.9,5.6-16.5l-17.4-37.6c-1.3,0.4-2.6,0.6-4,0.6c-3,0-6-1-8.4-2.8
					l-141,142.1C1327.5,826.8,1327.5,826.8,1327.5,826.9z"/>
				<path class="st3" d="M2094.2,887c0-0.4,0-0.8,0.1-1.2l-192-69.6c-0.9,1.6-2,3-3.5,4.2l98.5,163.8l100-88.5
					C2095.3,893.3,2094.2,890.2,2094.2,887z"/>
				<path class="st3" d="M1931,768.6l76.2-70.4c-1.6-2.4-2.5-5.1-2.5-8c0-0.5,0-1,0.1-1.5l-317.5-82.3c-0.1,0.2-0.2,0.3-0.2,0.5
					L1931,768.6z"/>
				<path class="st3" d="M1490.8,675.6l61.9,20.4l109.4-88l-0.2-0.4l-171.2,62.7c0.2,0.9,0.3,1.9,0.3,2.9
					C1491,674,1490.9,674.8,1490.8,675.6z"/>
				<path class="st3" d="M1877.2,815.8c-1-2-1.5-4.2-1.5-6.4c0-0.2,0-0.4,0-0.6l-356.3-68c-0.8,2.3-2.2,4.4-4,6l143.8,223.5
					L1877.2,815.8z"/>
				<path class="st3" d="M1511.8,749.1l-0.8,0.3l56.8,256.4l3.2,14.3c0.3,0,0.7,0,1.1,0c3.9,0,7.7,1.7,10.4,4.6l73.2-51.8
					L1511.8,749.1z"/>
				<path class="st3" d="M935.5,511.5c-0.9-0.7-1.8-1.4-2.5-2.3L454.4,806.6l344.9-32.2L935.5,511.5z"/>
				<path class="st3" d="M1797.9,1166.2c0.3,0.8,0.6,1.5,0.8,2.3l259.4-52.7c-0.1-0.7-0.2-1.3-0.2-2c0-4.5,2.1-8.7,5.7-11.4
					l-67.3-112L1797.9,1166.2z"/>
				<path class="st3" d="M1785,1158c1.3,0,2.7,0.2,3.9,0.6l95.1-336.2c-1.7-0.7-3.1-1.8-4.4-3.1l-218.3,154.6l118.9,184.9
					C1781.8,1158.3,1783.4,1158,1785,1158z"/>
				<path class="st3" d="M212.7,872.9l124.4,90.3l85.5-142.8c-1.8-1.5-3.2-3.4-4.1-5.6l-204.2,50.3c0,0.4,0.1,0.9,0.1,1.3
					C214.3,868.7,213.8,870.9,212.7,872.9z"/>
				<path class="st3" d="M1559.7,1027.4l-164.3-127.9l-155.5,224.6c1.1,1.2,2.1,2.6,2.7,4.1l315.5-91.9c-0.1-0.7-0.2-1.5-0.2-2.2
					C1557.9,1031.8,1558.5,1029.5,1559.7,1027.4z"/>
				<path class="st3" d="M1567,1021l-3.4-15.3L1507,750.3c-0.3,0-0.7,0-1,0c-2.2,0-4.3-0.5-6.3-1.5l-102,147.3l164.4,128
					C1563.5,1022.8,1565.2,1021.7,1567,1021z"/>
				<path class="st3" d="M1776.6,1160.8l-118.7-184.5l-73.1,51.7c0.9,1.9,1.4,4,1.4,6.2c0,2.1-0.5,4.2-1.4,6.1l189.7,122.3
					C1775.2,1161.9,1775.8,1161.3,1776.6,1160.8z"/>
				<path class="st3" d="M-83,875.5l124.9,140l146.7-140.9c-1.3-1.8-2.1-3.9-2.4-6.1H-79.9C-80.3,871-81.3,873.5-83,875.5z"/>
				<path class="st3" d="M445.4,812.7L711.2,918c3.3-6,10.5-8.8,17-6.5L797,778.8l-351.4,32.8C445.5,811.9,445.5,812.3,445.4,812.7z
					"/>
				<path class="st3" d="M209.2,1185.1c1.9,1.6,3.3,3.6,4.2,5.9l7.3-1.6l312.5-69.9c0-2.6,0.8-5.1,2.1-7.2l-196.9-143L209.2,1185.1z
					"/>
				<path class="st3" d="M202.3,880.4v301.7c1.1,0.2,2.3,0.5,3.3,0.9L335,966.8l-124.7-90.5C208.1,878.5,205.3,879.9,202.3,880.4z"
					/>
				<path class="st3" d="M537.9,1109c0.9-0.8,1.9-1.5,2.9-2L434.5,823.3c-1,0.2-2,0.3-3,0.3c-1.9,0-3.7-0.4-5.4-1.1l-85.6,143.2
					L537.9,1109z"/>
				<path class="st3" d="M1496.3,746.5c-0.7-0.6-1.3-1.3-1.8-2l-165.1,86.1c1.3,3.8,1,8.1-1.1,11.6l66.1,51.5L1496.3,746.5z"/>
				<path class="st3" d="M1215.5,1133.9c0-1.8,0.3-3.5,1-5.1l-186.6-98.5c-1.6,2.1-3.7,3.8-6.2,4.8l52.9,225.9
					c0.4,0,0.8-0.1,1.2-0.1c3.2,0,6.3,1.1,8.8,3.1l131.3-122.1C1216.4,1139.6,1215.5,1136.8,1215.5,1133.9z"/>
				<path class="st3" d="M1325.8,845.4c-2.6,2.5-6.1,3.9-9.8,3.9c-0.6,0-1.2-0.1-1.8-0.1l-77.8,272.3l0.3,0.2L1392.1,897
					L1325.8,845.4z"/>
				<path class="st4" d="M2181.6,763.1c0-7.8-6.3-14.1-14.2-14.1c-1.5,0-3.1,0.3-4.5,0.8l-77.3-171.5c6.6-4.2,8.5-13,4.3-19.6
					s-13-8.5-19.6-4.3c-2.4,1.5-4.3,3.8-5.4,6.4l-317.5-82.3c0.1-0.5,0.1-1,0.1-1.5c0.1-7.8-6.2-14.2-14-14.3
					c-7.8-0.1-14.2,6.2-14.3,14c0,1,0.1,2.1,0.3,3.1l-171.2,62.6c-3.7-6.9-12.3-9.4-19.2-5.7c-6.9,3.7-9.4,12.3-5.7,19.2
					c0.3,0.6,0.7,1.2,1.1,1.7l-141,142.1c-5.2-3.9-12.4-3.7-17.4,0.5L1014.6,384c4.3-6.5,2.6-15.3-4-19.6s-15.3-2.6-19.6,4
					c-2.7,4-3.1,9.1-1.2,13.5L504.6,683.3c-1.3-7.7-8.6-12.9-16.3-11.6c-6.8,1.2-11.8,7-11.8,13.9c0,0.5,0,0.9,0.1,1.3l-204.2,50.2
					c-3-7.2-11.2-10.7-18.5-7.7c-4.6,1.9-7.9,6.1-8.6,11H-20.8c-1-6.9-7-12.1-14-12.1c-4,0-7.9,1.7-10.6,4.8L-221.7,618
					c0.8-1.8,1.2-3.8,1.2-5.8c0-7.8-6.3-14.2-14.2-14.2s-14.2,6.3-14.2,14.2c0,7.1,5.2,13,12.2,14l-5.2,446c-7,1-12.2,6.9-12.2,14
					c0,7.8,6.3,14.2,14.2,14.2l0,0c2.7,0,5.3-0.8,7.6-2.2L-91.8,1260c-2.2,2.6-3.4,5.8-3.4,9.2c0,7.8,6.4,14.1,14.2,14.1l0,0
					c7.8,0,14.2-6.3,14.2-14.2l0,0c0-2.2-0.5-4.4-1.5-6.3L76.8,1161c5.3,5.7,14.3,6,20,0.6c0.4-0.3,0.7-0.7,1-1.1l129.4,78
					c-2.7,7.3,1.1,15.5,8.5,18.1c7.3,2.7,15.5-1.1,18.1-8.5c0.6-1.5,0.8-3.2,0.8-4.8l0.1,2.1l462.3-33.6c1.7,7.6,9.2,12.4,16.9,10.8
					c2.1-0.5,4.1-1.4,5.8-2.8L881.6,1352c-4.4,6.4-2.8,15.3,3.6,19.7c6.4,4.4,15.3,2.8,19.7-3.6c3.2-4.7,3.4-10.8,0.3-15.6
					l222.3-190.6c5.8,5.2,14.8,4.7,20-1.1c4.4-4.9,4.8-12.2,1-17.6l131.3-122.1c6.1,4.9,15,3.9,19.9-2.2c2-2.5,3.1-5.6,3.1-8.8
					c0-0.6,0-1.1-0.1-1.7l315.6-91.9c3.4,7,11.8,10,18.9,6.6c1.6-0.8,3.1-1.9,4.3-3.2l189.7,122.3c-3.4,7-0.4,15.5,6.7,18.9
					c7,3.4,15.5,0.4,18.9-6.7c0.8-1.7,1.3-3.6,1.4-5.5l260.1-52.8c3.3,7.1,11.8,10.1,18.8,6.8s10.1-11.8,6.8-18.8
					c-1.5-3.1-4-5.6-7.1-6.9l30.8-199.8C2175.4,777.2,2181.6,770.9,2181.6,763.1z M730.9,1194.6c-1.8,0-3.6,0.3-5.3,1l-102.3-175
					l117,148.6l-7.5,25.5C732.2,1194.7,731.5,1194.6,730.9,1194.6z M233,1231.4L153.8,1124l93.6-44c1.9,2.9,4.8,4.9,8.1,5.8
					l-16.7,143.5C236.8,1229.6,234.8,1230.3,233,1231.4z M-81,1255c-2.7,0-5.3,0.8-7.6,2.2l-140.6-161.7c1.1-1.3,2-2.8,2.6-4.4
					l194,38.5l-45.6,125.7C-79.1,1255.1-80.1,1255-81,1255z M1723.7,487.4c5.1,4.7,12.7,5,18.2,0.8l195.4,189.1
					c-0.4,0.6-0.8,1.2-1.1,1.9l-319.8-105.5L1723.7,487.4z M1851.8,1036.4l95.3-336.8c0.6,0.1,1.2,0.1,1.8,0.1
					c1.9,0,3.7-0.4,5.4-1.1l98.9,164.5l-198.6,175.8C1853.8,1037.9,1852.8,1037.1,1851.8,1036.4L1851.8,1036.4z M1960.6,677.6
					l29.9-27.6l161.3,106.9l-189-68.5c0.2-0.9,0.3-1.9,0.3-2.8C1963,682.7,1962.2,680,1960.6,677.6L1960.6,677.6z M1957.7,674.5
					c-5.1-4.1-12.3-4.2-17.5-0.2L1751,491.2l235.8,156.4L1957.7,674.5z M1917.9,677.5l-338.7-64.7c0-0.2,0-0.4,0-0.6
					c0-2.5-0.7-5-2-7.2l35.3-28.4L1917.9,677.5z M1574.6,601.9c-2.6-2.4-6-3.8-9.6-3.8c-1.4,0-2.7,0.2-4,0.6l-17.4-37.6
					c2.1-1.4,3.7-3.2,4.9-5.5l59.3,19.6L1574.6,601.9z M1535.9,563.5c1.4,0,2.7-0.2,4-0.6l17.4,37.6c-5.4,3.5-7.7,10.3-5.6,16.5
					l-165.2,86l-0.1-0.2l141.1-142.1C1529.9,562.5,1532.8,563.5,1535.9,563.5L1535.9,563.5z M1125.1,1143.4l-120.5-56.6l69.8-175
					c1.1,0.3,2.2,0.4,3.3,0.4c0.4,0,0.8,0,1.2-0.1l52.9,225.9C1129,1139.2,1126.7,1141,1125.1,1143.4L1125.1,1143.4z M-230.9,1075.4
					l152.2-255.2l99.5,130.6c-2.6,2.6-4,6.2-4,9.9c0,1.4,0.2,2.7,0.6,4L-228,1078.5C-228.9,1077.4-229.9,1076.3-230.9,1075.4
					L-230.9,1075.4z M-223.9,621.6l176.2,115c-0.9,1.9-1.3,3.9-1.3,5.9c0,4.3,1.9,8.3,5.2,11l-35.4,59.3L-224.4,622L-223.9,621.6z
					 M98.1,894.6L40.2,950c-2.6-2.3-5.9-3.5-9.3-3.5c-0.7,0-1.3,0.1-2,0.2l-57.7-191.4c0.6-0.3,1.2-0.6,1.7-1L98.1,894.6z
					 M250.6,753.7c1.9,1.5,4.2,2.4,6.6,2.8v301.7c-2,0.3-4,1-5.7,2.2L103.8,894.8L250.6,753.7z M1362.1,717l-194.9,122.4
					l-140.3-191.5c1.5-1.5,2.6-3.3,3.3-5.2l330.7,67.9c0,0.3,0,0.5,0,0.8C1361,713.3,1361.4,715.2,1362.1,717z M620,992.2
					c-0.6-2.2-1.7-4.3-3.3-6l83.4-91.4l86.2,84.8c-3.1,2.4-5.1,5.9-5.5,9.8L620,992.2z M1017,652c0.4,0,0.8,0,1.1-0.1l53.3,228.7
					l1,4.3c-3.2,1.3-5.9,3.7-7.4,6.8l-167.2-54.9l113.7-186C1013.2,651.6,1015.1,652,1017,652z M1063.7,895.7
					c-0.1,0.8-0.2,1.6-0.2,2.4c0,0.8,0.1,1.7,0.2,2.5l-255.3,85.8c-0.2-0.7-0.5-1.4-0.8-2l88-143.9L1063.7,895.7z M804.9,980.8
					c-0.9-0.9-1.9-1.6-3-2.3l-9.6-99.1l-6.3-64.7c3.9-1,7.3-3.6,9.1-7.1l96.3,31.6L804.9,980.8z M774.9,812.9c2.1,1.4,4.5,2.1,7,2.3
					l6.3,65.4l9.3,96.3c-0.9-0.2-1.8-0.3-2.7-0.3c-1.6,0-3.2,0.3-4.7,0.8L703,891.7L774.9,812.9z M1077.6,884c-0.4,0-0.8,0-1.1,0
					l-54.3-233c0.5-0.2,0.9-0.4,1.4-0.6l140.1,191.2l-75.3,47.3C1085.6,885.8,1081.7,884,1077.6,884z M1007.9,648.7L893.7,835.5
					l-97.1-31.9c0.2-0.9,0.2-1.8,0.3-2.7c0-2.1-0.5-4.2-1.4-6.1l211.3-147.4C1007.1,647.9,1007.5,648.3,1007.9,648.7z M771.8,810.1
					L700,888.8L502,693.9c0.3-0.4,0.6-0.8,0.8-1.2l266,105.4c-0.2,1-0.3,2-0.3,3C768.5,804.4,769.7,807.6,771.8,810.1z M697.2,891.8
					l-83.7,91.7c-2.9-1.8-6.4-2.4-9.8-1.8L497.5,698c0.6-0.3,1.1-0.7,1.6-1.1L697.2,891.8z M-34.8,756.7c0.7,0,1.3-0.1,2-0.2
					l43.6,145l14,46.4c-0.2,0.1-0.5,0.2-0.7,0.3l-100.5-132l36.2-60.7C-38.5,756.3-36.7,756.7-34.8,756.7z M248.4,1063.1
					c-0.3,0.3-0.6,0.7-0.8,1L44.4,965c1.3-4,0.7-8.3-1.5-11.8l57.9-55.6L248.4,1063.1z M620.5,996.4l160.5-2.9
					c0.9,4.5,3.9,8.2,8,10.2l-47.2,160.7l-125.1-158.9C619,1003,620.3,999.8,620.5,996.4z M793,1004.8c0.6,0.1,1.3,0.1,1.9,0.2
					c0.5,0,1.1,0,1.6-0.1l91.2,342.2c-0.5,0.2-1,0.4-1.4,0.7l-141.4-179.4L793,1004.8z M809.1,990.6l255.9-86
					c1.2,2.4,3.1,4.4,5.5,5.8l-69.7,174.8l-192.3-90.3c0.4-1.3,0.6-2.7,0.6-4.1C809.1,990.7,809,990.7,809.1,990.6L809.1,990.6z
					 M1090.6,892.4l75.5-47.4l113.2,154.5c-0.6,0.6-1.2,1.2-1.8,1.9l-186.7-98.6c0.5-1.5,0.8-3.1,0.8-4.7
					C1091.7,896.2,1091.3,894.2,1090.6,892.4L1090.6,892.4z M1288.8,995.9c-2,0-4,0.4-5.9,1.3l-113.2-154.5l194.7-122.2
					c1.3,1.6,3,2.8,4.9,3.7l-77.7,272C1290.6,996,1289.7,995.9,1288.8,995.9L1288.8,995.9z M1361.8,706.5l-330.7-67.9
					c0-0.3,0-0.5,0-0.8c0-7.3-5.6-13.4-12.8-14.1L1005.7,390c2.3-0.5,4.4-1.5,6.2-3l351.5,316.4
					C1362.7,704.4,1362.2,705.4,1361.8,706.5L1361.8,706.5z M1001.5,390.3l12.7,233.7c-6.3,1.3-10.9,6.7-11.3,13.1l-139.6,13
					l135-260.5C999.3,389.9,1000.4,390.1,1001.5,390.3L1001.5,390.3z M1003.3,641.2c0.2,1,0.6,2,1.1,2.9L793.1,791.5
					c-0.7-0.7-1.4-1.4-2.2-1.9l70-135.1L1003.3,641.2z M787.3,787.6c-1.5-0.5-3-0.8-4.6-0.8c-5.2,0-9.9,2.8-12.4,7.3L504.4,688.8
					c0.1-0.4,0.1-0.7,0.2-1.1L856,654.9L787.3,787.6z M490.6,699.8c1,0,2-0.1,3-0.3l106.2,283.7c-1.1,0.5-2,1.2-2.9,2L399.5,841.8
					l85.7-143.1C486.9,699.4,488.8,699.8,490.6,699.8z M594.3,988.4c-1.3,2.2-2.1,4.7-2.1,7.2l-312.5,69.9l-7.3,1.6
					c-0.9-2.3-2.3-4.3-4.2-5.9l129.2-215.8L594.3,988.4z M264.6,1059.1c-1.1-0.4-2.2-0.7-3.3-0.9V756.5c3-0.5,5.8-1.9,8-4.1L394,843
					L264.6,1059.1z M247.7,750.7L101,891.7l-125-140c1.7-2,2.7-4.4,3.1-7h266.1C245.6,746.8,246.4,748.9,247.7,750.7z M-227.7,624.6
					l146.2,192l-153.1,256.6c-1-0.4-2.1-0.7-3.1-0.9l5.2-446.1C-230.8,626-229.2,625.4-227.7,624.6z M-225.8,1087c0-0.2,0-0.4,0-0.7
					c0-1.4-0.2-2.7-0.6-4L19,968.5c1.3,2,3,3.6,5.1,4.7l-55.3,152.5L-225.8,1087z M28,974.6c0.9,0.2,1.9,0.3,2.8,0.3h0.3l50.6,163.3
					c-3.7,1.5-6.6,4.6-7.9,8.3l-100.8-20L28,974.6z M87,1137.1c-0.4,0-0.9,0-1.3,0.1l-50.4-163c0.8-0.3,1.5-0.6,2.2-0.9l110,149.1
					l-47.8,22.4C97.2,1140.1,92.4,1137.1,87,1137.1L87,1137.1z M40.8,970.8c0.4-0.4,0.9-0.9,1.2-1.4l203.6,98.6
					c-0.4,1.4-0.7,2.8-0.6,4.2c0,1.4,0.2,2.7,0.6,4.1l-94.4,44.3L40.8,970.8z M250.5,1233.3c-2-2-4.6-3.4-7.4-3.8l16.7-143.2
					c7.6-0.2,13.7-6.5,13.7-14.1c0-0.3,0-0.7-0.1-1l78-17.4l241.4-54c0.1,0.4,0.3,0.8,0.4,1.2L250.5,1233.3z M736.8,1196l6.7-22.7
					l131.4,166.9l-132.4-123.4c4.4-6.4,2.8-15.2-3.6-19.7C738.3,1196.7,737.6,1196.3,736.8,1196L736.8,1196z M893.3,1346
					c-0.5,0-1.1,0-1.6,0.1l-91.2-342.2c2.5-1.1,4.7-2.9,6.2-5.2l192.5,90.3l-102.7,257.3C895.5,1346,894.4,1345.9,893.3,1346
					L893.3,1346z M900.4,1347.9l102.6-257.2l120.3,56.5c-0.4,1.3-0.6,2.7-0.6,4.1c0,2.7,0.8,5.3,2.2,7.5l-222.4,190.6
					C901.9,1348.8,901.2,1348.3,900.4,1347.9L900.4,1347.9z M1136.9,1137.2c-0.4,0-0.8,0-1.2,0.1l-52.9-225.9c2.5-1,4.6-2.6,6.2-4.8
					l186.6,98.4c-1.7,4.4-1.1,9.3,1.5,13.1l-131.4,122.1C1143.2,1138.2,1140.1,1137.1,1136.9,1137.2L1136.9,1137.2z M1295.7,997.8
					l-0.3-0.2l77.8-272.3c4.2,0.6,8.5-0.8,11.6-3.8l66.3,51.6L1295.7,997.8z M1387.4,718.4c2-3.5,2.4-7.8,1-11.6l165.1-86.1
					c0.5,0.7,1.1,1.4,1.8,2l-101.8,147L1387.4,718.4z M1558.8,625c1.9,1,4.1,1.5,6.3,1.5c0.3,0,0.7,0,1,0l56.6,255.5l3.4,15.3
					c-1.8,0.7-3.4,1.8-4.8,3.1l-164.4-128L1558.8,625z M1631.1,896.2c-0.3,0-0.7,0-1.1,0l-3.2-14.3L1570,625.5l0.8-0.3l143.9,223.7
					l-73.2,51.8C1638.9,897.8,1635.1,896.2,1631.1,896.2z M1574.3,623c1.8-1.6,3.2-3.7,4-6l356.3,68c0,0.2,0,0.4,0,0.6
					c0,2.2,0.5,4.4,1.5,6.4L1718,846.5L1574.3,623z M1938.6,695.4c1.3,1.3,2.8,2.4,4.4,3.1l-95.1,336.1c-2.8-0.8-5.9-0.7-8.7,0.3
					L1720.4,850L1938.6,695.4z M2116.9,990.1c0,0.7,0.1,1.3,0.2,2l-259.4,52.7c-0.2-0.8-0.5-1.6-0.8-2.3l198.4-175.6l67.3,112
					C2119.1,981.4,2117,985.6,2116.9,990.1L2116.9,990.1z M1957.9,696.5c1.4-1.2,2.6-2.6,3.5-4.2l192,69.6c0,0.4-0.1,0.8-0.1,1.2
					c0,3.2,1,6.2,3,8.7l-99.9,88.5L1957.9,696.5z M2159.2,751.6c-1.2,0.9-2.3,1.9-3.2,3.1L1993.6,647l75.5-69.8
					c3.6,2.9,8.3,3.8,12.7,2.6L2159.2,751.6z M2063.9,564.8c0,0.5-0.1,1-0.1,1.5c0,2.9,0.8,5.6,2.5,8l-76.2,70.4L1746.2,483
					c0.1-0.2,0.2-0.3,0.2-0.5L2063.9,564.8z M1720.9,483.8c0.1,0.1,0.2,0.3,0.2,0.4l-109.4,88l-61.9-20.4c0.1-0.8,0.2-1.6,0.2-2.4
					c0-1-0.1-1.9-0.3-2.9L1720.9,483.8z M992,385.3c0.7,0.9,1.6,1.6,2.5,2.3L858.3,650.5l-344.9,32.2L992,385.3z M477.5,691
					c0.9,2.2,2.3,4.1,4.1,5.6l-85.5,142.8l-124.4-90.3c1.1-2,1.6-4.3,1.6-6.5c0-0.5,0-0.9-0.1-1.3L477.5,691z M-70.8,1259.4
					c-1-1.1-2.2-2-3.5-2.7l45.8-126.3L73,1150.6c0,0.2,0,0.4,0,0.7c0,2.2,0.5,4.4,1.5,6.3L-70.8,1259.4z M100,1157
					c1.2-2.6,1.5-5.5,1-8.3l49-23l79.9,108.3c-0.2,0.3-0.4,0.5-0.6,0.8L100,1157z M254.5,1241.3v0.2c-0.2-1.7-0.8-3.4-1.6-4.9
					l342.3-232.1c3.9,4.9,10.5,6.7,16.3,4.3l110.5,189c-3.1,2.5-5,6.1-5.2,10L254.5,1241.3z M1301.7,1004.4
					c-0.7-1.5-1.6-2.9-2.7-4.1l155.5-224.6l164.3,127.9c-1.1,2.1-1.7,4.4-1.7,6.8c0,0.7,0.1,1.5,0.2,2.2L1301.7,1004.4z
					 M1643.9,916.4c1.9-3.9,1.9-8.4,0-12.3l73.1-51.8l118.7,184.5c-0.7,0.5-1.4,1.2-2,1.8L1643.9,916.4z M2131.1,975.9
					c-1.6,0-3.2,0.3-4.8,0.8L2058.5,864l100.8-89.2c1.3,0.9,2.7,1.6,4.1,2L2132.7,976C2132.2,975.9,2131.6,975.9,2131.1,975.9
					L2131.1,975.9z"/>
			</g>
		</g>
	</g>
</g>
<g>
	<defs>
		
			<rect id="SVGID_4_" x="420.2" y="-420" transform="matrix(-1.836970e-16 1 -1 -1.836970e-16 1500.2577 -420.1644)" width="1080" height="1920"/>
	</defs>
	<clipPath id="SVGID_5_">
		<use xlink:href="#SVGID_4_"  style="overflow:visible;"/>
	</clipPath>
</g>
</svg>
