<?xml version="1.0" encoding="utf-8"?>
<!-- Generator: Adobe Illustrator 24.0.2, SVG Export Plug-In . SVG Version: 6.00 Build 0)  -->
<svg version="1.1" id="Capa_1" xmlns="http://www.w3.org/2000/svg" xmlns:xlink="http://www.w3.org/1999/xlink" x="0px" y="0px"
	 viewBox="0 0 134.4 127.7" style="enable-background:new 0 0 134.4 127.7;" xml:space="preserve">
<style type="text/css">
	.st0{opacity:0.15;fill:#997EAE;enable-background:new    ;}
</style>
<title>bg-card</title>
<path class="st0" d="M169.2,54.4l-19.9-28.6c-1.1-1.6-3.3-2-4.8-0.9c-0.3,0.2-0.6,0.5-0.8,0.8l-8.2,11c-0.9,1.2-0.9,2.8-0.1,4.1
	l15.8,22.6c4.4-1.2,8.9,1.4,10,5.8c1.2,4.4-1.4,8.9-5.8,10s-8.9-1.4-10-5.8c-0.5-1.8-0.3-3.8,0.5-5.5l-20.2-28.1
	c-0.9-1.2-0.9-2.9,0.1-4.1l34.8-44.9c11.1-14.3,0.9-35.1-17.2-35.1c-8.3,0-16.1,3.8-21.2,10.4L76.7,24c-0.5,0.6-0.7,1.4-0.7,2.1
	v39.6c3.5,2.8,4.1,8,1.2,11.5c-2.8,3.5-8,4.1-11.5,1.2c-3.5-2.8-4.1-8-1.2-11.5c0.7-0.8,1.5-1.5,2.4-2v-83.6
	c-2.6-1.4-4.2-4.2-4.2-7.1c0-4.5,3.7-8.2,8.2-8.2s8.2,3.7,8.2,8.2c0,2.6-1.3,5.1-3.4,6.6V1.2c0,1.9,1.6,3.4,3.5,3.4
	c1.1,0,2.1-0.5,2.7-1.4L93.2-12c0.4-0.6,0.7-1.3,0.7-2.1v-8.3c0-12.2-9.9-22-22-22H70c-12.2,0-22,9.9-22,22v93
	c0,11.2,9.1,20.3,20.3,20.3h4.5c11.2,0,20.3-9.1,20.3-20.3V34.2c0-0.8,0.3-1.5,0.7-2.1l42.5-54.8c-0.4-1-0.6-2-0.6-3.1
	c0-4.5,3.7-8.2,8.2-8.2s8.2,3.7,8.2,8.2l0,0c0,4.5-3.7,8.2-8.2,8.2l0,0c-0.4,0-0.8-0.1-1.2-0.1l-36.2,47c-4,5.2-4.1,12.3-0.4,17.6
	l24.7,34.8c4.1,5.8,10.7,9.2,17.8,9.2h1.4C168.9,90.9,179.9,69.8,169.2,54.4z"/>
</svg>
