<?xml version="1.0" encoding="utf-8"?>
<!-- Generator: Adobe Illustrator 24.0.2, SVG Export Plug-In . SVG Version: 6.00 Build 0)  -->
<svg version="1.1" id="Capa_1" xmlns="http://www.w3.org/2000/svg" xmlns:xlink="http://www.w3.org/1999/xlink" x="0px" y="0px"
	 viewBox="0 0 134.4 127.7" style="enable-background:new 0 0 134.4 127.7;" xml:space="preserve">
<style type="text/css">
	.st0{fill:#CAB5FF;}
	.st1{fill:#7466AA;}
	.st2{fill:#4C426F;}
</style>
<path class="st0" d="M133.8,74.7C133.8,74.7,133.8,74.7,133.8,74.7L133.8,74.7c-0.9-2.4-2.6-4.2-4.9-5.2V6.8c0-3.7-3-6.7-6.8-6.8H50
	c-3.7,0-6.7,3-6.8,6.8V70c-2.6,1.2-5,2.6-7.3,4.2l-7.1,5l-2.6-3.7c-0.7-1-2.1-1.3-3.1-0.6L1,90.4c-1,0.7-1.3,2.1-0.6,3.1l23.3,33.2
	c0.7,1,2.1,1.3,3.1,0.6L49,111.8c1-0.7,1.3-2.1,0.6-3.2l-1.3-1.8c4.3-3,9.7-4.1,14.9-3.2l4,0.7c5.1,0.9,10.3,0.5,15.1-1.3l46.2-16.8
	C133.1,84.5,135.5,79.4,133.8,74.7z"/>
<polygon class="st1" points="26.2,124.7 3.2,91.8 23.7,77.4 46.7,110.3 "/>
<path class="st1" d="M76.9,1h18.3v26.3l-7-7.1c-1.2-1.2-3.1-1.2-4.4,0l-7,7.1L76.9,1z"/>
<title>icon-1</title>
<path class="st2" d="M133.8,74.6c-0.8-2.3-2.6-4.2-4.9-5.2V6.8c0-3.7-3-6.7-6.8-6.8H50c-3.7,0-6.7,3-6.8,6.8V70
	c-2.6,1.2-5,2.6-7.3,4.2l-7.1,5l-2.6-3.7c-0.7-1-2.1-1.3-3.1-0.6L1,90.3c-1,0.7-1.3,2.1-0.6,3.2l23.3,33.2c0.7,1,2.1,1.3,3.1,0.6
	L49,111.8c1-0.7,1.3-2.1,0.6-3.2l-1.3-1.8c4.3-3,9.7-4.1,14.9-3.2l4,0.7c5.1,0.9,10.3,0.5,15.1-1.3l46.2-16.8
	C133.1,84.5,135.5,79.4,133.8,74.6C133.8,74.7,133.8,74.7,133.8,74.6L133.8,74.6z M97.3,4.5h24.8c1.2,0,2.3,1,2.3,2.3v6.8H97.3V4.5z
	 M79.3,4.5h13.5v19.4l-5.2-5.2c-0.9-0.9-2.3-0.9-3.2,0l-5.2,5.2L79.3,4.5z M47.8,6.8c0-1.2,1-2.3,2.3-2.3h24.8v9h-27L47.8,6.8z
	 M47.8,18h27.1v11.3c0,0.9,0.6,1.7,1.4,2.1c0.8,0.3,1.8,0.2,2.5-0.5l7.4-7.4l7.4,7.4c0.4,0.4,1,0.7,1.6,0.7c0.3,0,0.6-0.1,0.8-0.2
	c0.8-0.3,1.4-1.2,1.4-2.1V18h27.1v50.8c-0.7,0.1-1.4,0.2-2.1,0.4l-8,2.9H98.5c-1.2-1-2.6-1.7-4.2-2l-22.7-4
	c-7.3-1.3-14.9-0.9-22,1.3l-0.4,0.1c-0.5,0.1-1,0.3-1.5,0.5L47.8,18z M26.1,122.3L5.4,92.8l18.5-12.9l20.7,29.6L26.1,122.3z
	 M129.8,78.5c-0.3,1.6-1.4,2.9-2.9,3.5L80.8,98.8c-4.1,1.5-8.5,1.9-12.8,1.1l-4-0.7c-6.4-1.1-12.9,0.3-18.2,3.9L31.4,82.8l7.1-4.9
	c3.7-2.6,7.7-4.5,12-5.8l0.4-0.1c6.5-2,13.3-2.4,20-1.2l22.6,4c1.2,0.2,2.2,0.9,2.9,1.9c0.4,0.6,0.6,1.2,0.7,1.9
	c0.1,0.6,0.1,1.3-0.1,1.9c-0.6,2.2-2.9,3.6-5.2,3.2l-24.4-4.3l-0.8,4.4L91.1,88c0.5,0.1,1.1,0.2,1.6,0.2c4,0,7.5-2.6,8.7-6.4
	l22.5-8.2c2.3-0.8,4.9,0.4,5.8,2.7C129.9,77,130,77.8,129.8,78.5L129.8,78.5z"/>
</svg>
