<?xml version="1.0" encoding="utf-8"?>
<!-- Generator: Adobe Illustrator 24.0.2, SVG Export Plug-In . SVG Version: 6.00 Build 0)  -->
<svg version="1.1" id="Capa_1" xmlns="http://www.w3.org/2000/svg" xmlns:xlink="http://www.w3.org/1999/xlink" x="0px" y="0px"
	 viewBox="0 0 134.4 127.7" style="enable-background:new 0 0 134.4 127.7;" xml:space="preserve">
<style type="text/css">
	.st0{fill:#CAB5FF;}
	.st1{fill:#7466AA;}
	.st2{fill:#4C426F;}
</style>
<path class="st0" d="M121.9,87.7V26.4l-2.8-5.5l-7.3-2.9v-5.2v-2.1C111.8,4.8,107,0,101.2,0H16C10.2,0,5.4,4.8,5.4,10.6v68.1
	c0,4.9,3.3,9.1,8,10.3h6.8l1.1,9.6l3.3,5.6l3.8,0.3c1.7,1.2,3.8,1.9,6,1.9H114c5.8,0,10.6-4.7,10.6-10.6v-1.1
	C124.6,92.1,123.6,89.6,121.9,87.7z"/>
<polygon class="st1" points="98.9,101.8 123,125.8 128.8,119.2 111.8,101.8 104.6,95.8 "/>
<path class="st1" d="M84.1,56.3c-14.8,0-26.8,12-26.8,26.8s12,26.8,26.8,26.8s26.8-12,26.8-26.8S98.9,56.3,84.1,56.3z M83.6,101.8
	c-10.2,0-18.5-8.3-18.5-18.5s8.3-18.5,18.5-18.5s18.5,8.3,18.5,18.5S93.8,101.8,83.6,101.8z"/>
<title>icon-1</title>
<g>
	<g>
		<g>
			<path class="st2" d="M101.2,0H16C10.2,0,5.4,4.8,5.4,10.6v68.1c0,4.9,3.3,9.1,8,10.3l1.1-4.1c-2.8-0.7-4.8-3.3-4.8-6.2V10.6
				c0-3.5,2.9-6.4,6.4-6.4h85.1c3.5,0,6.4,2.9,6.4,6.4v2.1h4.3v-2.1C111.8,4.8,107,0,101.2,0z"/>
		</g>
	</g>
	<g>
		<g>
			<rect x="13.9" y="8.5" class="st1" width="4.3" height="4.3"/>
		</g>
	</g>
	<g>
		<g>
			<rect x="22.4" y="8.5" class="st1" width="4.3" height="4.3"/>
		</g>
	</g>
	<g>
		<g>
			<rect x="30.9" y="8.5" class="st1" width="4.3" height="4.3"/>
		</g>
	</g>
	<g>
		<g>
			<path class="st2" d="M130.3,117.7l-20.2-20.2c1.1-1.9,1.9-3.9,2.5-6h3.4v-4.3h-2.5c0.8-5.2,0.2-10.4-1.8-15.3V51.1h-4.3v13.6
				c-1.3-1.6-2.7-3.1-4.3-4.4V42.6H99v14.7c-1.4-0.8-2.8-1.5-4.3-2V34.1h-4.3v19.9c-1.4-0.3-2.8-0.5-4.3-0.6v-15H82v15
				c-1.4,0.1-2.9,0.3-4.3,0.6v-7.1h-4.3v8.4c-1.5,0.6-2.9,1.2-4.3,2V44.7H65v15.5c-1.6,1.3-3,2.8-4.3,4.4V49h-4.3V72
				c-2,4.8-2.6,10.1-1.8,15.3h-28v4.3h28.9c4.7,15.7,21.2,24.7,37,20.1c3.1-0.9,6-2.3,8.7-4.2l19.7,19.7c0.8,0.8,2.2,0.8,3,0
				l6.4-6.4C131.2,119.9,131.2,118.5,130.3,117.7z M84.1,108.5C70,108.5,58.6,97.1,58.6,83c0-14.1,11.4-25.5,25.5-25.5
				s25.5,11.4,25.5,25.5S98.3,108.5,84.1,108.5z M122.5,122.6l-17.9-17.9c1.2-1.1,2.2-2.3,3.2-3.5l18.1,18.1L122.5,122.6z"/>
		</g>
	</g>
	<g>
		<g>
			<path class="st2" d="M84.1,61.7c-11.8,0-21.3,9.5-21.3,21.3s9.5,21.3,21.3,21.3s21.3-9.5,21.3-21.3
				C105.4,71.3,95.9,61.7,84.1,61.7z M84.1,100c-6.1,0-11.7-3.3-14.7-8.5h29.4C95.8,96.8,90.2,100,84.1,100z M67.7,87.3
				c-1.7-6.5,0.6-13.4,5.8-17.5V83h4.3V67.2c1.4-0.6,2.8-0.9,4.3-1.1V83h4.3V66.1c1.5,0.2,2.9,0.6,4.3,1.1V83h4.3V69.7
				c5.3,4.2,7.5,11,5.8,17.5H67.7z"/>
		</g>
	</g>
	<g>
		<g>
			<path class="st2" d="M113.9,17H28.8c-5.9,0-10.6,4.8-10.6,10.6v68.1c0,5.9,4.8,10.6,10.6,10.6h27.7v-4.3H28.8
				c-3.5,0-6.4-2.9-6.4-6.4V27.7c0-3.5,2.9-6.4,6.4-6.4h85.1c3.5,0,6.4,2.9,6.4,6.4v68.1c0,1.6-0.6,3.1-1.6,4.2l3.2,2.8
				c1.7-1.9,2.7-4.4,2.7-7V27.7C124.6,21.8,119.8,17,113.9,17z"/>
		</g>
	</g>
	<g>
		<g>
			<rect x="26.7" y="25.5" class="st1" width="4.3" height="4.3"/>
		</g>
	</g>
	<g>
		<g>
			<rect x="35.2" y="25.5" class="st1" width="4.3" height="4.3"/>
		</g>
	</g>
	<g>
		<g>
			<rect x="43.7" y="25.5" class="st1" width="4.3" height="4.3"/>
		</g>
	</g>
	<g>
		<g>
			<rect x="30.9" y="70.2" class="st2" width="4.3" height="12.8"/>
		</g>
	</g>
	<g>
		<g>
			<rect x="39.5" y="57.5" class="st1" width="4.3" height="25.5"/>
		</g>
	</g>
	<g>
		<g>
			<rect x="48" y="63.9" class="st2" width="4.3" height="19.2"/>
		</g>
	</g>
</g>
</svg>
