<?xml version="1.0" encoding="utf-8"?>
<!-- Generator: Adobe Illustrator 24.0.2, SVG Export Plug-In . SVG Version: 6.00 Build 0)  -->
<svg version="1.1" id="Capa_1" xmlns="http://www.w3.org/2000/svg" xmlns:xlink="http://www.w3.org/1999/xlink" x="0px" y="0px"
	 viewBox="0 0 134.4 127.7" style="enable-background:new 0 0 134.4 127.7;" xml:space="preserve">
<style type="text/css">
	.st0{fill:#CAB5FF;}
	.st1{fill:#7466AA;}
	.st2{fill:#4C426F;}
</style>
<path class="st0" d="M41.4,98.6h16.1l-5.6,13.1h-3.5c-4.7,0-8.5,3.8-8.5,8.5v1.3c0,2.3,1.8,4.1,4.1,4.1h47.2c2.3,0,4.1-1.8,4.1-4.1
	v-1.3c0-4.7-3.8-8.5-8.5-8.5h-3.5l-5.6-13.1h47.8c5,0,9-4.1,9-9v-77c0-5-4.1-9-9-9v0H9.6c-5,0-9,4.1-9,9v77c0,5,4.1,9,9,9H16H41.4z"
	/>
<polygon class="st1" points="12.4,66.6 24.5,66.6 23.3,16.2 11.6,17.1 "/>
<polygon class="st1" points="96.5,38.6 123.8,38.6 123,14.8 96.5,14.8 "/>
<polygon class="st1" points="67.2,67.7 82,59.1 82,42.6 67.5,34.7 53.5,41.8 67,49.9 "/>
<polygon class="st1" points="1.7,79.9 9.4,83.6 99.6,83.6 125.8,83.6 132.3,79.9 130.5,94.5 120.4,97.2 76.1,97.2 82.3,114 
	52.5,113.2 59.8,98.6 57.2,96.6 33,98.6 17.7,98.6 7.6,96.8 1.7,92.1 "/>
<title>icon-1</title>
<g>
	<path class="st2" d="M125.4,3.5H9.6c-5,0-9,4.1-9,9v77c0,5,4.1,9,9,9h15.5c1.1,0,2-0.9,2-2s-0.9-2-2-2H9.6c-2.8,0-5.1-2.3-5.1-5.1
		v-6.1C6,84.5,7.7,85,9.6,85h115.7c1.9,0,3.7-0.6,5.1-1.6v6.1c0,2.8-2.3,5.1-5.1,5.1H74.6c0,0,0,0,0,0H60.5c0,0,0,0,0,0H33
		c-1.1,0-2,0.9-2,2s0.9,2,2,2h24.5l-5.6,13.1h-3.5c-4.7,0-8.5,3.8-8.5,8.5v1.3c0,2.3,1.8,4.1,4.1,4.1h47.2c2.3,0,4.1-1.8,4.1-4.1
		v-1.3c0-4.7-3.8-8.5-8.5-8.5h-3.5l-5.6-13.1h47.8c5,0,9-4.1,9-9v-77C134.4,7.5,130.3,3.5,125.4,3.5L125.4,3.5z M91.3,120.1v1.3
		c0,0.1-0.1,0.2-0.2,0.2H43.9c-0.1,0-0.2-0.1-0.2-0.2v-1.3c0-2.5,2-4.5,4.5-4.5h4.8c0,0,0,0,0,0c0,0,0,0,0,0h28.8c0,0,0,0,0,0
		c0,0,0,0,0,0h4.8C89.2,115.6,91.3,117.6,91.3,120.1L91.3,120.1z M78.9,111.7H56.1l5.6-13.1h11.5L78.9,111.7z M125.4,81.1H9.6
		c-2.8,0-5.1-2.3-5.1-5.1V12.5c0-2.8,2.3-5.1,5.1-5.1h115.7c2.8,0,5.1,2.3,5.1,5.1V76C130.5,78.8,128.2,81.1,125.4,81.1z"/>
	<path class="st2" d="M62.7,22.9l2.8-1.6v6.9c0,1.1,0.9,2,2,2s2-0.9,2-2v-6.9l2.8,1.6c0.3,0.2,0.6,0.3,1,0.3c0.7,0,1.3-0.4,1.7-1
		c0.5-0.9,0.2-2.1-0.7-2.7c-6.3-3.6-5.8-3.3-6-3.4c-0.6-0.2-1.2-0.2-1.7,0.1c0,0,0,0,0,0l-5.8,3.3c-0.9,0.5-1.3,1.7-0.7,2.7
		C60.6,23.1,61.8,23.4,62.7,22.9L62.7,22.9z"/>
	<path class="st2" d="M46.9,60.5l-6,3.4v-3.3c0-1.1-0.9-2-2-2s-2,0.9-2,2c0,7-0.3,7.6,1,8.4l5.7,3.3c0.3,0.2,0.7,0.3,1,0.3
		c0.7,0,1.3-0.3,1.7-1c0.5-0.9,0.2-2.1-0.7-2.7l-2.8-1.7l6-3.4c0.9-0.5,1.3-1.7,0.7-2.7C49,60.2,47.8,59.9,46.9,60.5L46.9,60.5z"/>
	<path class="st2" d="M96.1,58.7c-1.1,0-2,0.9-2,2v3.3l-6-3.4c-0.9-0.5-2.1-0.2-2.7,0.7c-0.5,0.9-0.2,2.1,0.7,2.7l6,3.4L89.3,69
		c-0.9,0.5-1.3,1.7-0.7,2.7c0.4,0.6,1,1,1.7,1c0.3,0,0.7-0.1,1-0.3c5.3-3.2,6.3-3.3,6.7-4.6c0.1-0.5,0-0.5,0.1-7.1
		C98,59.6,97.1,58.7,96.1,58.7z"/>
	<path class="st2" d="M82.7,40.9l-14.3-8.2c-0.6-0.4-1.4-0.4-2,0l-14.3,8.2c-0.6,0.4-1,1-1,1.7c0,0,0,0.1,0,0.1V59
		c0,0.7,0.4,1.3,1,1.7l14.1,8.1c0,0,0.1,0.1,0.1,0.1c0.3,0.2,0.6,0.3,1,0.3c0,0,0,0,0,0c0,0,0,0,0,0c0.3,0,0.7-0.1,1-0.3
		c0,0,0.1-0.1,0.1-0.1l14.1-8.1c0.6-0.3,1-1,1-1.7V42.7c0,0,0-0.1,0-0.1C83.7,41.9,83.4,41.2,82.7,40.9L82.7,40.9z M67.5,36.6
		l10.3,6l-10.3,6l-10.3-6L67.5,36.6z M55.2,46l10.3,6v11.9l-10.3-6V46z M69.5,63.9V51.9l10.3-6v11.9L69.5,63.9z"/>
	<path class="st2" d="M22.3,14.8h-9.1c-2.1,0-3.8,1.7-3.8,3.8V65c0,2.1,1.7,3.8,3.8,3.8h9.1c2.1,0,3.8-1.7,3.8-3.8V18.6
		C26.1,16.5,24.4,14.8,22.3,14.8z M22.2,64.8h-8.9V18.7h8.9V64.8z"/>
	<path class="st2" d="M17,28.4h1.5c1.1,0,2-0.9,2-2s-0.9-2-2-2H17c-1.1,0-2,0.9-2,2S15.9,28.4,17,28.4z"/>
	<path class="st2" d="M17,38.6h1.5c1.1,0,2-0.9,2-2s-0.9-2-2-2H17c-1.1,0-2,0.9-2,2S15.9,38.6,17,38.6z"/>
	<path class="st2" d="M17,48.8h1.5c1.1,0,2-0.9,2-2s-0.9-2-2-2H17c-1.1,0-2,0.9-2,2S15.9,48.8,17,48.8z"/>
	<path class="st2" d="M17,59.1h1.5c1.1,0,2-0.9,2-2s-0.9-2-2-2H17c-1.1,0-2,0.9-2,2S15.9,59.1,17,59.1z"/>
	<path class="st2" d="M122.5,12.3H97.4c-1.8,0-3.3,1.5-3.3,3.3v21.3c0,1.8,1.5,3.3,3.3,3.3h25.1c1.8,0,3.3-1.5,3.3-3.3V15.5
		C125.8,13.7,124.3,12.3,122.5,12.3z M121.9,36.2H98v-20h23.8V36.2z"/>
	<path class="st2" d="M103.7,24.7h6c1.1,0,2-0.9,2-2c0-1.1-0.9-2-2-2h-6c-1.1,0-2,0.9-2,2C101.7,23.9,102.6,24.7,103.7,24.7z"/>
	<path class="st2" d="M103.7,31.5h12.5c1.1,0,2-0.9,2-2s-0.9-2-2-2h-12.5c-1.1,0-2,0.9-2,2S102.6,31.5,103.7,31.5z"/>
</g>
</svg>
