<?xml version="1.0" encoding="utf-8"?>
<!-- Generator: Adobe Illustrator 24.0.2, SVG Export Plug-In . SVG Version: 6.00 Build 0)  -->
<svg version="1.1" id="Capa_1" xmlns="http://www.w3.org/2000/svg" xmlns:xlink="http://www.w3.org/1999/xlink" x="0px" y="0px"
	 viewBox="0 0 134.4 127.7" style="enable-background:new 0 0 134.4 127.7;" xml:space="preserve">
<style type="text/css">
	.st0{fill:#CAB5FF;}
	.st1{fill:#7466AA;}
	.st2{fill:#4C426F;}
</style>
<path class="st0" d="M123.2,26.9c-1.9-1.1-4.2-1.4-6.4-0.8c-2.2,0.6-4,2-5.1,3.9l-2.1,3.7v0v0l-3,5.1v-22c0-4.1-3.4-7.5-7.5-7.5H25
	c-4.1,0-7.5,3.4-7.5,7.5v98c0,4.1,3.4,7.5,7.5,7.5h74.2c4.1,0,7.5-3.4,7.5-7.5V72.6c0-0.1,0-0.2,0-0.3L124.2,42l2.1-3.7
	C128.6,34.3,127.3,29.2,123.2,26.9z"/>
<polygon class="st1" points="33.9,57.4 40.9,57.4 42.1,48.8 33.9,48.8 "/>
<polygon class="st1" points="33.9,80.2 40.9,80.2 42.1,71.7 33.9,71.7 "/>
<polygon class="st1" points="33.9,102.6 40.9,102.6 42.1,94 33.9,94 "/>
<polygon class="st1" points="82,86.6 91.8,92.3 121.5,41.4 111.7,35.1 "/>
<title>icon-1</title>
<g id="XMLID_1_">
	<g id="XMLID_2_">
		<g id="XMLID_3_">
			<path id="XMLID_25_" class="st2" d="M53.9,37.6h3.2c1.2,0,2.2-1,2.2-2.2s-1-2.2-2.2-2.2h-3.2c-0.3,0-0.5-0.2-0.5-0.5v-2.1h2.9
				c1.2,0,2.2-1,2.2-2.2s-1-2.2-2.2-2.2h-2.9v-2.1c0-0.3,0.2-0.5,0.5-0.5h3.2c1.2,0,2.2-1,2.2-2.2c0-1.2-1-2.2-2.2-2.2h-3.2
				c-2.7,0-4.9,2.2-4.9,4.9v8.7C49,35.3,51.2,37.6,53.9,37.6z"/>
			<path id="XMLID_23_" class="st2" d="M68.8,33.1H65c-1.2,0-2.2,1-2.2,2.2s1,2.2,2.2,2.2h3.8c3.2,0,5.7-2.6,5.7-5.7
				s-2.6-5.7-5.7-5.7h-0.3c-0.7,0-1.3-0.6-1.3-1.3s0.6-1.3,1.3-1.3h2.5c1.2,0,2.2-1,2.2-2.2s-1-2.2-2.2-2.2h-2.5
				c-3.2,0-5.7,2.6-5.7,5.7s2.6,5.7,5.7,5.7h0.3c0.7,0,1.3,0.6,1.3,1.3C70.1,32.5,69.5,33.1,68.8,33.1z"/>
			<path id="XMLID_21_" class="st2" d="M44.5,19h-7.3C36,19,35,20,35,21.2s1,2.2,2.2,2.2h1.4v11.9c0,1.2,1,2.2,2.2,2.2
				s2.2-1,2.2-2.2V23.4h1.4c1.2,0,2.2-1,2.2-2.2S45.7,19,44.5,19z"/>
			<path id="XMLID_19_" class="st2" d="M79.7,23.4h1.4v11.9c0,1.2,1,2.2,2.2,2.2c1.2,0,2.2-1,2.2-2.2V23.4H87c1.2,0,2.2-1,2.2-2.2
				S88.2,19,87,19h-7.3c-1.2,0-2.2,1-2.2,2.2S78.5,23.4,79.7,23.4z"/>
			<path id="XMLID_17_" class="st2" d="M42.6,46.4h-8.8c-1.2,0-2.2,1-2.2,2.2v8.8c0,1.2,1,2.2,2.2,2.2h8.8c1.2,0,2.2-1,2.2-2.2v-8.8
				C44.8,47.4,43.8,46.4,42.6,46.4z M40.4,55.2h-4.4v-4.4h4.4V55.2z"/>
			<path id="XMLID_14_" class="st2" d="M87.4,57.4c0,0.6,0.2,1.1,0.6,1.6c0.4,0.4,1,0.6,1.6,0.6s1.1-0.2,1.6-0.6
				c0.4-0.4,0.6-1,0.6-1.6s-0.2-1.1-0.6-1.6c-0.4-0.4-1-0.6-1.6-0.6c-0.6,0-1.1,0.2-1.6,0.6C87.6,56.3,87.4,56.8,87.4,57.4z"/>
			<path id="XMLID_12_" class="st2" d="M80.8,55.2H51.3c-1.2,0-2.2,1-2.2,2.2s1,2.2,2.2,2.2h29.5c1.2,0,2.2-1,2.2-2.2
				S82,55.2,80.8,55.2z"/>
			<path id="XMLID_10_" class="st2" d="M42.6,69.3h-8.8c-1.2,0-2.2,1-2.2,2.2v8.8c0,1.2,1,2.2,2.2,2.2h8.8c1.2,0,2.2-1,2.2-2.2v-8.8
				C44.8,70.3,43.8,69.3,42.6,69.3z M40.4,78.2h-4.4v-4.4h4.4V78.2z"/>
			<path id="XMLID_8_" class="st2" d="M42.6,92.3h-8.8c-1.2,0-2.2,1-2.2,2.2v8.8c0,1.2,1,2.2,2.2,2.2h8.8c1.2,0,2.2-1,2.2-2.2v-8.8
				C44.8,93.3,43.8,92.3,42.6,92.3z M40.4,101.1h-4.4v-4.4h4.4V101.1z"/>
			<path id="XMLID_6_" class="st2" d="M70.3,101.1h-19c-1.2,0-2.2,1-2.2,2.2s1,2.2,2.2,2.2h19c1.2,0,2.2-1,2.2-2.2
				S71.5,101.1,70.3,101.1z"/>
			<path id="XMLID_4_" class="st2" d="M123.2,26.9c-1.9-1.1-4.2-1.4-6.4-0.8c-2.2,0.6-4,2-5.1,3.9l-2.1,3.7v0v0l-3,5.1v-22
				c0-4.1-3.4-7.5-7.5-7.5H25c-4.1,0-7.5,3.4-7.5,7.5v98c0,4.1,3.4,7.5,7.5,7.5h74.2c4.1,0,7.5-3.4,7.5-7.5V72.6c0-0.1,0-0.2,0-0.3
				L124.2,42l2.1-3.7C128.6,34.3,127.3,29.2,123.2,26.9z M118,30.3c1-0.3,2.1-0.1,3,0.4c1.9,1.1,2.5,3.5,1.5,5.4l-1,1.8l-6.9-4
				l1-1.8C116.1,31.2,117,30.6,118,30.3z M91.2,90.4l-6.9-4l28.1-48.7l6.9,4L91.2,90.4z M83,90.8l5,2.9l-6,4.6L83,90.8z
				 M102.3,114.8c0,1.7-1.4,3.1-3.1,3.1H25c-1.7,0-3.1-1.4-3.1-3.1v-98c0-1.7,1.4-3.1,3.1-3.1h74.2c1.7,0,3.1,1.4,3.1,3.1v29.6
				c0,0,0,0,0,0L83.9,78.2H51.3c-1.2,0-2.2,1-2.2,2.2s1,2.2,2.2,2.2h30.1l-2,3.5c-0.1,0.2-0.2,0.5-0.3,0.8L76.9,103
				c-0.1,0.9,0.3,1.8,1.1,2.2c0.3,0.2,0.7,0.3,1.1,0.3c0.5,0,1-0.2,1.3-0.5l12.9-9.9c0.2-0.2,0.4-0.4,0.6-0.6l8.4-14.5V114.8z"/>
		</g>
	</g>
</g>
</svg>
