<?xml version="1.0" encoding="utf-8"?>
<!-- Generator: Adobe Illustrator 24.0.2, SVG Export Plug-In . SVG Version: 6.00 Build 0)  -->
<svg version="1.1" id="Capa_1" xmlns="http://www.w3.org/2000/svg" xmlns:xlink="http://www.w3.org/1999/xlink" x="0px" y="0px"
	 viewBox="0 0 134.4 127.7" style="enable-background:new 0 0 134.4 127.7;" xml:space="preserve">
<style type="text/css">
	.st0{fill:#CAB5FF;}
	.st1{fill:#7466AA;}
	.st2{fill:#4C426F;}
</style>
<path class="st0" d="M123.6,99.8V82.6c0-1.2-1-2.2-2.2-2.2h-4.3V63.1c0-1.2-1-2.2-2.2-2.2H95.6c-1.2,0-2.2,1-2.2,2.2v17.3H82.6
	c-1.2,0-2.2,1-2.2,2.2v17.3H11.4c-6,0-10.8,4.8-10.8,10.8v4.3c0,6,4.8,10.8,10.8,10.8h112.2c6,0,10.8-4.8,10.8-10.8v-4.3
	C134.4,104.7,129.6,99.8,123.6,99.8z"/>
<polygon class="st1" points="82.6,102 122,102 121,83.8 114.3,82.8 114.3,63.1 95.6,63.8 95.6,80.4 94.7,82.6 83.4,82.6 "/>
<path class="st1" d="M45.9,106.3c-3.6,0-6.5,2.9-6.5,6.5c0,3.6,2.9,6.5,6.5,6.5c3.6,0,6.5-2.9,6.5-6.5
	C52.4,109.2,49.5,106.3,45.9,106.3z"/>
<path class="st1" d="M67.5,106.3c-3.6,0-6.5,2.9-6.5,6.5c0,3.6,2.9,6.5,6.5,6.5s6.5-2.9,6.5-6.5C74,109.2,71.1,106.3,67.5,106.3z"/>
<path class="st1" d="M89.1,106.3c-3.6,0-6.5,2.9-6.5,6.5c0,3.6,2.9,6.5,6.5,6.5c3.6,0,6.5-2.9,6.5-6.5
	C95.6,109.2,92.7,106.3,89.1,106.3z"/>
<path class="st1" d="M110.7,106.3c-3.6,0-6.5,2.9-6.5,6.5c0,3.6,2.9,6.5,6.5,6.5s6.5-2.9,6.5-6.5
	C117.1,109.2,114.2,106.3,110.7,106.3z"/>
<path class="st1" d="M24.3,106.3c-3.6,0-6.5,2.9-6.5,6.5c0,3.6,2.9,6.5,6.5,6.5s6.5-2.9,6.5-6.5C30.8,109.2,27.9,106.3,24.3,106.3z"
	/>
<g>
	<path class="st1" d="M89.1,37.3h-12c-0.7-2.6-1.7-5-3-7.3l8.5-8.5c0.4-0.4,0.6-1,0.6-1.5c0-0.6-0.2-1.1-0.6-1.5l-9.2-9.2
		c-0.8-0.8-2.2-0.8-3.1,0l-8.5,8.5c-2.3-1.3-4.8-2.3-7.3-3v-12c0-1.2-1-2.2-2.2-2.2H39.5c-1.2,0-2.2,1-2.2,2.2v12
		c-2.6,0.7-5,1.7-7.3,3l-8.5-8.5c-0.9-0.8-2.2-0.8-3.1,0l-9.2,9.2c-0.4,0.4-0.6,1-0.6,1.5c0,0.6,0.2,1.1,0.6,1.5l8.5,8.5
		c-1.3,2.3-2.3,4.8-3,7.3h-12c-1.2,0-2.2,1-2.2,2.2v12.9c0,1.2,1,2.2,2.2,2.2h12c0.7,2.6,1.7,5,3,7.3l-8.5,8.5
		c-0.4,0.4-0.6,1-0.6,1.5c0,0.6,0.2,1.1,0.6,1.5l9.2,9.2c0.8,0.8,2.2,0.8,3.1,0L30,74c2.3,1.3,4.8,2.3,7.3,3v12c0,1.2,1,2.2,2.2,2.2
		h12.9c1.2,0,2.2-1,2.2-2.2v-12c2.6-0.7,5-1.7,7.3-3l8.5,8.5c0.9,0.8,2.2,0.8,3.1,0l9.2-9.2c0.4-0.4,0.6-1,0.6-1.5
		c0-0.6-0.2-1.1-0.6-1.5l-8.5-8.5c1.3-2.3,2.3-4.8,3-7.3h12c1.2,0,2.2-1,2.2-2.2V39.4C91.2,38.2,90.3,37.3,89.1,37.3z M45.9,65.3
		c-10.7,0-19.4-8.7-19.4-19.4c0-10.7,8.7-19.4,19.4-19.4c10.7,0,19.4,8.7,19.4,19.4C65.3,56.6,56.7,65.3,45.9,65.3z"/>
</g>
<path class="st0" d="M45.9,26.5c-10.7,0-19.4,8.7-19.4,19.4c0,10.7,8.7,19.4,19.4,19.4c10.7,0,19.4-8.7,19.4-19.4
	C65.3,35.2,56.7,26.5,45.9,26.5z M45.9,58.8C38.8,58.8,33,53,33,45.9c0-7.1,5.8-12.9,12.9-12.9c7.1,0,12.9,5.8,12.9,12.9
	C58.9,53,53.1,58.8,45.9,58.8z"/>
<title>icon-1</title>
<g>
	<path class="st2" d="M2.8,54.5h12c0.7,2.6,1.7,5,3,7.3l-8.5,8.5c-0.4,0.4-0.6,1-0.6,1.5s0.2,1.1,0.6,1.5l9.2,9.2
		c0.8,0.8,2.2,0.8,3.1,0L30,74c2.3,1.3,4.8,2.3,7.3,3v12c0,1.2,1,2.2,2.2,2.2h12.9c1.2,0,2.2-1,2.2-2.2v-12c2.6-0.7,5-1.7,7.3-3
		l8.5,8.5c0.9,0.8,2.2,0.8,3.1,0l9.2-9.2c0.4-0.4,0.6-1,0.6-1.5s-0.2-1.1-0.6-1.5l-8.5-8.5c1.3-2.3,2.3-4.8,3-7.3h12
		c1.2,0,2.2-1,2.2-2.2V39.4c0-1.2-1-2.2-2.2-2.2h-12c-0.7-2.6-1.7-5-3-7.3l8.5-8.5c0.4-0.4,0.6-1,0.6-1.5c0-0.6-0.2-1.1-0.6-1.5
		l-9.2-9.2c-0.8-0.8-2.2-0.8-3.1,0l-8.5,8.5c-2.3-1.3-4.8-2.3-7.3-3v-12c0-1.2-1-2.2-2.2-2.2H39.5c-1.2,0-2.2,1-2.2,2.2v12
		c-2.6,0.7-5,1.7-7.3,3l-8.5-8.5c-0.9-0.8-2.2-0.8-3.1,0l-9.2,9.2c-0.4,0.4-0.6,1-0.6,1.5c0,0.6,0.2,1.1,0.6,1.5l8.5,8.5
		c-1.3,2.3-2.3,4.8-3,7.3h-12c-1.2,0-2.2,1-2.2,2.2v12.9C0.6,53.6,1.6,54.5,2.8,54.5z M4.9,41.6h11.5c1,0,1.9-0.7,2.1-1.7
		c0.7-3.2,2-6.3,3.8-9.1c0.5-0.9,0.4-2-0.3-2.7l-8.1-8.1l6.1-6.1l8.1,8.1c0.7,0.7,1.8,0.8,2.7,0.3c2.8-1.8,5.9-3.1,9.1-3.8
		c1-0.2,1.7-1.1,1.7-2.1V4.9h8.6v11.5c0,1,0.7,1.9,1.7,2.1c3.2,0.7,6.3,2,9.1,3.8c0.9,0.5,2,0.4,2.7-0.3l8.1-8.1l6.1,6.1l-8.1,8.1
		c-0.7,0.7-0.8,1.8-0.3,2.7c1.8,2.8,3.1,5.9,3.8,9.1c0.2,1,1.1,1.7,2.1,1.7h11.5v8.6H75.4c-1,0-1.9,0.7-2.1,1.7
		c-0.7,3.2-2,6.3-3.8,9.1c-0.5,0.9-0.4,2,0.3,2.7l8.1,8.1l-6.1,6.1l-8.1-8.1c-0.7-0.7-1.8-0.8-2.7-0.3c-2.8,1.8-5.9,3.1-9.1,3.8
		c-1,0.2-1.7,1.1-1.7,2.1v11.5h-8.6V75.4c0-1-0.7-1.9-1.7-2.1c-3.2-0.7-6.3-2-9.1-3.8c-0.9-0.5-2-0.4-2.7,0.3L20,77.9l-6.1-6.1
		l8.1-8.1c0.7-0.7,0.8-1.8,0.3-2.7c-1.8-2.8-3.1-5.9-3.8-9.1c-0.2-1-1.1-1.7-2.1-1.7H4.9V41.6z"/>
	<path class="st2" d="M45.9,63.1c9.5,0,17.3-7.7,17.3-17.3c0-9.5-7.7-17.3-17.3-17.3s-17.3,7.7-17.3,17.3
		C28.7,55.4,36.4,63.1,45.9,63.1z M45.9,32.9c7.1,0,12.9,5.8,12.9,12.9c0,7.2-5.8,12.9-12.9,12.9S33,53,33,45.9
		C33,38.7,38.8,32.9,45.9,32.9z"/>
	<path class="st2" d="M45.9,69.6C59,69.6,69.7,59,69.7,45.9c0-13.1-10.6-23.7-23.7-23.7S22.2,32.8,22.2,45.9
		C22.2,59,32.8,69.6,45.9,69.6z M45.9,26.5c10.7,0,19.4,8.7,19.4,19.4s-8.7,19.4-19.4,19.4s-19.4-8.7-19.4-19.4
		C26.5,35.2,35.2,26.5,45.9,26.5z"/>
	<path class="st2" d="M123.6,99.8V82.6c0-1.2-1-2.2-2.2-2.2h-4.3V63.1c0-1.2-1-2.2-2.2-2.2H95.6c-1.2,0-2.2,1-2.2,2.2v17.3H82.6
		c-1.2,0-2.2,1-2.2,2.2v17.3H11.4c-6,0-10.8,4.8-10.8,10.8v4.3c0,6,4.8,10.8,10.8,10.8h112.2c6,0,10.8-4.8,10.8-10.8v-4.3
		C134.4,104.7,129.6,99.8,123.6,99.8z M119.3,99.8h-15.1V84.7h15.1V99.8z M97.7,65.3h15.1v15.1H97.7V65.3z M84.8,84.7h15.1v15.1
		H84.8V84.7z M130.1,114.9c0,3.6-2.9,6.5-6.5,6.5H11.4c-3.6,0-6.5-2.9-6.5-6.5v-4.3c0-3.6,2.9-6.5,6.5-6.5h112.2
		c3.6,0,6.5,2.9,6.5,6.5V114.9z"/>
	<path class="st2" d="M67.5,106.3c-3.6,0-6.5,2.9-6.5,6.5c0,3.6,2.9,6.5,6.5,6.5s6.5-2.9,6.5-6.5C74,109.2,71.1,106.3,67.5,106.3z
		 M67.5,114.9c-1.2,0-2.2-1-2.2-2.2c0-1.2,1-2.2,2.2-2.2s2.2,1,2.2,2.2C69.7,114,68.7,114.9,67.5,114.9z"/>
	<path class="st2" d="M45.9,106.3c-3.6,0-6.5,2.9-6.5,6.5c0,3.6,2.9,6.5,6.5,6.5c3.6,0,6.5-2.9,6.5-6.5
		C52.4,109.2,49.5,106.3,45.9,106.3z M45.9,114.9c-1.2,0-2.2-1-2.2-2.2c0-1.2,1-2.2,2.2-2.2s2.2,1,2.2,2.2
		C48.1,114,47.1,114.9,45.9,114.9z"/>
	<path class="st2" d="M89.1,106.3c-3.6,0-6.5,2.9-6.5,6.5c0,3.6,2.9,6.5,6.5,6.5c3.6,0,6.5-2.9,6.5-6.5
		C95.6,109.2,92.7,106.3,89.1,106.3z M89.1,114.9c-1.2,0-2.2-1-2.2-2.2c0-1.2,1-2.2,2.2-2.2s2.2,1,2.2,2.2
		C91.2,114,90.3,114.9,89.1,114.9z"/>
	<path class="st2" d="M24.3,106.3c-3.6,0-6.5,2.9-6.5,6.5c0,3.6,2.9,6.5,6.5,6.5s6.5-2.9,6.5-6.5C30.8,109.2,27.9,106.3,24.3,106.3z
		 M24.3,114.9c-1.2,0-2.2-1-2.2-2.2c0-1.2,1-2.2,2.2-2.2c1.2,0,2.2,1,2.2,2.2C26.5,114,25.5,114.9,24.3,114.9z"/>
	<path class="st2" d="M110.7,106.3c-3.6,0-6.5,2.9-6.5,6.5c0,3.6,2.9,6.5,6.5,6.5s6.5-2.9,6.5-6.5
		C117.1,109.2,114.2,106.3,110.7,106.3z M110.7,114.9c-1.2,0-2.2-1-2.2-2.2c0-1.2,1-2.2,2.2-2.2s2.2,1,2.2,2.2
		C112.8,114,111.9,114.9,110.7,114.9z"/>
</g>
</svg>
