<?xml version="1.0" encoding="utf-8"?>
<!-- Generator: Adobe Illustrator 24.0.2, SVG Export Plug-In . SVG Version: 6.00 Build 0)  -->
<svg version="1.1" id="Capa_1" xmlns="http://www.w3.org/2000/svg" xmlns:xlink="http://www.w3.org/1999/xlink" x="0px" y="0px"
	 viewBox="0 0 134.4 127.7" style="enable-background:new 0 0 134.4 127.7;" xml:space="preserve">
<style type="text/css">
	.st0{fill:#CAB5FF;}
	.st1{fill:#7466AA;}
	.st2{fill:#4C426F;}
</style>
<path class="st0" d="M20.5,55.5c0.4,0.5,0.5,1.4,0.1,2L5.7,81.7L21,104.3l8.9-17.1l8.5-17c0.2-0.4,0.6-0.7,1.1-0.8
	c0.5-0.2,0.9,0,1.3,0.2l2,1.1l-6.2-16.7l-16.9,0.6L20.5,55.5z"/>
<path class="st0" d="M84.8,114c0.2-0.6,0.9-1.1,1.6-1.1l28.4,0.2l11.4-24.9l-19.2,1.2l-19,1.5c-0.4,0-0.8-0.1-1.3-0.5
	c-0.4-0.3-0.5-0.8-0.5-1.2L86.3,87l-11.1,14l9.3,14.1L84.8,114z"/>
<polygon class="st1" points="95.4,63.8 116.6,52.8 130,82.7 128.5,85.6 106.7,86.5 "/>
<polygon class="st1" points="50.3,46.4 31.4,32.3 52.1,7.5 55.3,7.5 65.5,26.5 "/>
<polygon class="st1" points="57.4,88.6 58.6,113.6 24.4,113.3 22.2,110.6 30.9,89.5 "/>
<title>icon-1</title>
<g>
	<g>
		<g>
			<path class="st2" d="M106.6,30.5c-0.6-0.7-1.5-1-2.5-0.6l-3.7,1.4L89.2,6.4c-0.4-0.8-1.1-1.3-2-1.3H50.6c-0.7,0-1.3,0.3-1.7,0.8
				L28.2,30.7c-0.4,0.4-0.6,1.1-0.4,1.7c0.1,0.6,0.4,1.1,0.8,1.5l20.7,15.4c1,0.7,2.4,0.6,3.1-0.4l13.5-18.3l6.5,11.6l-4.1,2.1
				c-0.8,0.4-1.3,1.3-1.1,2.1c0.1,0.8,0.7,1.7,1.7,1.8L92,53.8c0.1,0,0.3,0,0.6,0c0.7,0,1.4-0.4,1.8-1L106.8,33
				C107.3,32.2,107.2,31.2,106.6,30.5z M50.1,44.4l-17-12.7L51.7,9.5h3l9.2,17L50.1,44.4z M91.3,49.3l-15.6-3.8l0.8-0.4
				c0.6-0.3,1-0.7,1.1-1.3c0.1-0.6,0.1-1.1-0.1-1.7l-9.3-16.6L59.4,9.3h26.2L97.2,35c0.4,0.8,1.4,1.4,2.3,1.3L91.3,49.3z"/>
		</g>
	</g>
	<g>
		<g>
			<path class="st2" d="M57.9,87.4l-22.8-1L41,74.6l3.9,2.3c0.8,0.4,1.8,0.4,2.5-0.3c0.7-0.6,1-1.5,0.6-2.4l-8.3-22.3
				c-0.3-0.8-1.1-1.4-2.1-1.4l-23.5,0.8c-1,0-1.7,0.7-2,1.5c-0.3,0.8,0.1,1.8,0.8,2.4l3.2,2.3L2,80.9c-0.4,0.7-0.4,1.7,0,2.4
				l15.8,23.2l6.1,9.2c0.4,0.6,1.1,1,1.8,1h32.1c1.3,0,2.3-1,2.3-2.3V89.6C60,88.5,59,87.5,57.9,87.4z M21.1,103.7L6.5,82l14.8-23.9
				c0.6-0.8,0.4-1.8-0.3-2.5l15.4-0.7L42,70l-0.8-0.4c-0.6-0.3-1.1-0.4-1.7-0.1c-0.6,0.1-1,0.6-1.3,1.1l-8.5,16.9L21.1,103.7z
				 M55.5,112.3H26.8l-2.8-4.4l9-17.2l22.5,1V112.3z"/>
		</g>
	</g>
	<g>
		<g>
			<path class="st2" d="M132.5,80l-14.1-29c-0.3-0.6-0.7-1-1.3-1.1c-0.6-0.1-1.1-0.1-1.7,0.3L93,62.7c-1,0.6-1.4,2-0.8,3l11,19.9
				l-13.2,1.1l-0.1-4.5c0-1-0.7-1.7-1.5-2c-0.8-0.3-1.8,0-2.4,0.7L71.1,99.6c-0.6,0.7-0.6,1.8-0.1,2.5l13.1,19.4
				c0.4,0.6,1.1,1,1.8,1c0.1,0,0.4,0,0.6-0.1c0.8-0.3,1.5-1.1,1.5-2l0.1-3.9h27.3c0.8,0,1.7-0.6,2-1.3l15.1-33.4
				C132.8,81.3,132.8,80.6,132.5,80z M114.4,112.3h-28c-1,0-1.8,0.7-2.1,1.5L75.6,101l10-12.8v1c0,0.6,0.3,1.1,0.7,1.5
				c0.4,0.4,1,0.6,1.7,0.6l18.9-1.7l18.3-1.3L114.4,112.3z M127,83.7l-19.3,1.4L96.9,65.4L115.5,55L128.3,81L127,83.7z"/>
		</g>
	</g>
</g>
<path class="st0" d="M99.4,35.7c-0.6,0.1-1.4-0.3-1.7-1L86,8.8H58.6l9.1,16.9L77,42.4c0.2,0.4,0.2,0.8,0.1,1.3
	c-0.1,0.5-0.5,0.8-0.9,0.9l-2.1,1l17.3,4.2l8.9-14.3L99.4,35.7z"/>
</svg>
