<?xml version="1.0" encoding="utf-8"?>
<!-- Generator: Adobe Illustrator 24.0.2, SVG Export Plug-In . SVG Version: 6.00 Build 0)  -->
<svg version="1.1" id="Capa_1" xmlns="http://www.w3.org/2000/svg" xmlns:xlink="http://www.w3.org/1999/xlink" x="0px" y="0px"
	 viewBox="0 0 134.4 127.7" style="enable-background:new 0 0 134.4 127.7;" xml:space="preserve">
<style type="text/css">
	.st0{fill:#CAB5FF;}
	.st1{fill:#7466AA;}
	.st2{fill:#4C426F;}
</style>
<path class="st0" d="M119,1.6H15.4C7,1.6,0.1,8.4,0.1,16.9v94c0,8.4,6.9,15.3,15.3,15.3H119c8.4,0,15.3-6.9,15.3-15.3v-94
	C134.3,8.4,127.4,1.6,119,1.6L119,1.6z"/>
<path class="st1" d="M117.7,84.1L117.7,84.1l-0.5,0c-0.1-0.4-0.3-0.8-0.5-1.1l0.4-0.4c0.8-0.8,1.2-1.8,1.2-2.9
	c0-1.1-0.4-2.1-1.2-2.8l-3.8-3.8c-0.8-0.8-1.8-1.2-2.8-1.2c-1.1,0-2.1,0.4-2.8,1.2l-0.4,0.4c-0.4-0.2-0.7-0.3-1.1-0.5v-0.5
	c0-2.2-1.8-4-4-4h-5.4c-2.2,0-4,1.8-4,4v0.6c-0.3,0.1-0.7,0.3-1,0.4l-0.5-0.5c-0.8-0.8-1.8-1.2-2.8-1.2c0,0,0,0,0,0
	c-1.1,0-2.1,0.4-2.8,1.2l-3.8,3.8c-0.8,0.8-1.2,1.8-1.2,2.8c0,1.1,0.4,2.1,1.2,2.9l0.6,0.6c-0.1,0.3-0.3,0.6-0.4,0.9H81
	c-2.2,0-4,1.8-4,4v5.4c0,2.2,1.8,4,4,4h0.9c0.1,0.3,0.2,0.6,0.3,0.8L81.6,99c-1.6,1.6-1.6,4.1,0,5.7l3.8,3.8
	c0.8,0.8,1.8,1.2,2.8,1.2h0c1.1,0,2.1-0.4,2.8-1.2l0.7-0.7c0.3,0.1,0.6,0.2,0.8,0.3v0.9c0,2.2,1.8,4,4,4h5.4c2.2,0,4-1.8,4-4v-0.8
	c0.3-0.1,0.6-0.2,0.9-0.4l0.6,0.6c0.8,0.8,1.8,1.2,2.8,1.2s2.1-0.4,2.8-1.2l3.8-3.8c0.8-0.8,1.2-1.8,1.2-2.8c0-1.1-0.4-2.1-1.2-2.8
	l-0.5-0.5c0.2-0.3,0.3-0.7,0.4-1h0.6c2.2,0,4-1.8,4-4v-5.4C121.7,85.9,119.9,84.1,117.7,84.1z M99.3,97.2c-3.5,0-6.4-2.9-6.4-6.4
	c0-3.5,2.9-6.4,6.4-6.4c3.5,0,6.4,2.9,6.4,6.4S102.9,97.2,99.3,97.2z"/>
<title>icon-1</title>
<g>
	<path class="st1" d="M55.3,46.8h60.8c1.1,0,2-0.9,2-2c0-1.1-0.9-2-2-2H55.3c-1.1,0-2,0.9-2,2C53.3,45.9,54.2,46.8,55.3,46.8z"/>
	<path class="st1" d="M55.3,61.2h60.8c1.1,0,2-0.9,2-2c0-1.1-0.9-2-2-2H55.3c-1.1,0-2,0.9-2,2C53.3,60.3,54.2,61.2,55.3,61.2z"/>
	<path class="st1" d="M71.6,71.7H48.1c-1.1,0-2,0.9-2,2c0,1.1,0.9,2,2,2h23.5c1.1,0,2-0.9,2-2C73.5,72.6,72.7,71.7,71.6,71.7z"/>
	<path class="st1" d="M20.5,73.7c0,1.1,0.9,2,2,2h15.1c1.1,0,2-0.9,2-2c0-1.1-0.9-2-2-2H22.5C21.4,71.7,20.5,72.6,20.5,73.7z"/>
	<path class="st2" d="M26.3,65.9c1.1,0,2-0.9,2-2c0-1.1-0.9-2-2-2c-1.1,0-2.4-0.6-2.4-3.2V56c0-1.6-0.5-2.7-1.1-3.5
		c0.6-0.8,1.1-1.9,1.1-3.5v-2.8c0-2.7,1.3-3.2,2.4-3.2c1.1,0,2-0.9,2-2s-0.9-2-2-2c-3.2,0-6.4,2.2-6.4,7.2V49c0,1-0.2,1.1-1.1,1.4
		c-0.2,0.1-0.4,0.2-0.6,0.3c-1,0.5-1.4,1.6-1,2.6c0.2,0.4,0.5,0.7,0.8,0.9c0,0,0.6,0.3,0.8,0.3c0.9,0.3,1.1,0.4,1.1,1.4v2.8
		C19.9,63.7,23.1,65.9,26.3,65.9z"/>
	<path class="st2" d="M39,58.4c0,2.7-1.3,3.2-2.4,3.2c-1.1,0-2,0.9-2,2c0,1.1,0.9,2,2,2c3.2,0,6.4-2.2,6.4-7.2v-2.8
		c0-1,0.2-1.1,1.1-1.4c0.2-0.1,0.4-0.2,0.6-0.2c0,0,0.1,0,0.1-0.1c0.4-0.2,0.7-0.5,0.9-0.9c0.5-1,0-2.2-1-2.6
		c-0.2-0.1-0.4-0.2-0.6-0.3c-0.9-0.3-1.1-0.4-1.1-1.4v-2.8c0-5-3.2-7.2-6.4-7.2c-1.1,0-2,0.9-2,2s0.9,2,2,2c1.1,0,2.4,0.6,2.4,3.2
		v2.8c0,1.6,0.5,2.7,1.1,3.5C39.5,52.9,39,54,39,55.7L39,58.4L39,58.4z"/>
	<path class="st1" d="M70.3,86.1h-48c-1.1,0-2,0.9-2,2c0,1.1,0.9,2,2,2h48c1.1,0,2-0.9,2-2C72.2,87,71.4,86.1,70.3,86.1z"/>
	<path class="st1" d="M70,100.6H22c-1.1,0-2,0.9-2,2s0.9,2,2,2h48c1.1,0,2-0.9,2-2S71.1,100.6,70,100.6z"/>
	<path class="st2" d="M113.5,22.1c3.4,0,6.2-2.8,6.2-6.2s-2.8-6.2-6.2-6.2c-3.4,0-6.2,2.8-6.2,6.2S110.1,22.1,113.5,22.1z
		 M113.5,13.7c1.2,0,2.2,1,2.2,2.2s-1,2.2-2.2,2.2c-1.2,0-2.2-1-2.2-2.2S112.3,13.7,113.5,13.7z"/>
	<path class="st1" d="M95.6,22.1c3.4,0,6.2-2.8,6.2-6.2S99,9.8,95.6,9.8c-3.4,0-6.2,2.8-6.2,6.2S92.2,22.1,95.6,22.1z M95.6,13.7
		c1.2,0,2.2,1,2.2,2.2s-1,2.2-2.2,2.2c-1.2,0-2.2-1-2.2-2.2S94.4,13.7,95.6,13.7z"/>
	<path class="st2" d="M77.8,22.1c3.4,0,6.2-2.8,6.2-6.2s-2.8-6.2-6.2-6.2c-3.4,0-6.2,2.8-6.2,6.2S74.3,22.1,77.8,22.1z M77.8,13.7
		c1.2,0,2.2,1,2.2,2.2s-1,2.2-2.2,2.2s-2.2-1-2.2-2.2C75.5,14.7,76.5,13.7,77.8,13.7z"/>
	<path class="st2" d="M119,1.6H15.4C7,1.6,0.1,8.4,0.1,16.9v94c0,8.4,6.9,15.3,15.3,15.3H119c8.4,0,15.3-6.9,15.3-15.3v-94
		C134.3,8.4,127.4,1.6,119,1.6L119,1.6z M119,122.1H15.4c-6.2,0-11.3-5.1-11.3-11.3V30.7h29.1c1.1,0,2-0.9,2-2c0-1.1-0.9-2-2-2H4.1
		v-9.9c0-6.2,5.1-11.3,11.3-11.3H119c6.2,0,11.3,5.1,11.3,11.3v9.9H42.2c-1.1,0-2,0.9-2,2s0.9,2,2,2h88.1v80.1
		C130.3,117.1,125.3,122.1,119,122.1z"/>
	<path class="st2" d="M117.7,84.1h-0.5c-0.1-0.4-0.3-0.8-0.5-1.1l0.4-0.4c0.8-0.8,1.2-1.8,1.2-2.9c0-1.1-0.4-2.1-1.2-2.8l-3.8-3.8
		c-0.8-0.8-1.8-1.2-2.8-1.2c-1.1,0-2.1,0.4-2.8,1.2l-0.4,0.4c-0.4-0.2-0.7-0.3-1.1-0.5v-0.5c0-2.2-1.8-4-4-4h-5.4c-2.2,0-4,1.8-4,4
		v0.6c-0.3,0.1-0.7,0.3-1,0.4l-0.5-0.5c-0.8-0.8-1.8-1.2-2.8-1.2c0,0,0,0,0,0c-1.1,0-2.1,0.4-2.8,1.2l-3.8,3.8
		c-0.8,0.8-1.2,1.8-1.2,2.8c0,1.1,0.4,2.1,1.2,2.9l0.6,0.6c-0.1,0.3-0.3,0.6-0.4,0.9H81c-2.2,0-4,1.8-4,4v5.4c0,2.2,1.8,4,4,4h0.9
		c0.1,0.3,0.2,0.6,0.3,0.8L81.6,99c-1.6,1.6-1.6,4.1,0,5.7l3.8,3.8c0.8,0.8,1.8,1.2,2.8,1.2h0c1.1,0,2.1-0.4,2.8-1.2l0.7-0.7
		c0.3,0.1,0.6,0.2,0.8,0.3v0.9c0,2.2,1.8,4,4,4h5.4c2.2,0,4-1.8,4-4v-0.8c0.3-0.1,0.6-0.2,0.9-0.4l0.6,0.6c0.8,0.8,1.8,1.2,2.8,1.2
		c1.1,0,2.1-0.4,2.8-1.2l3.8-3.8c0.8-0.8,1.2-1.8,1.2-2.8c0-1.1-0.4-2.1-1.2-2.8l-0.5-0.5c0.2-0.3,0.3-0.7,0.4-1h0.6
		c2.2,0,4-1.8,4-4v-5.4C121.7,85.9,119.9,84.1,117.7,84.1L117.7,84.1z M117.8,93.5C117.8,93.6,117.7,93.6,117.8,93.5l-2.1,0.1
		c-0.9,0-1.6,0.6-1.9,1.4c-0.3,1-0.7,2-1.3,3c-0.4,0.8-0.3,1.7,0.3,2.4l1.5,1.5c0,0,0,0.1,0,0.1l-3.8,3.8c0,0-0.1,0-0.1,0l-1.6-1.6
		c-0.6-0.6-1.6-0.8-2.3-0.4c-1,0.5-1.9,0.9-2.9,1.2c-0.9,0.2-1.4,1-1.4,1.9v2.2c0,0,0,0.1-0.1,0.1h-5.4c0,0-0.1,0-0.1-0.1v-2.3
		c0-0.9-0.6-1.6-1.4-1.9c-1-0.3-1.9-0.7-2.8-1.2c-0.3-0.2-0.6-0.2-1-0.2c-0.5,0-1,0.2-1.4,0.6l-1.7,1.7c0,0,0,0,0,0h0c0,0,0,0,0,0
		l-3.8-3.8c0,0,0-0.1,0-0.1l1.7-1.7c0.6-0.6,0.8-1.6,0.3-2.3c-0.5-0.9-0.9-1.9-1.2-2.8c-0.3-0.8-1-1.4-1.9-1.4H81c0,0-0.1,0-0.1-0.1
		v-5.4c0,0,0-0.1,0.1-0.1h2.3c0.9,0,1.7-0.6,1.9-1.4c0.3-1,0.7-2,1.2-2.9c0.4-0.8,0.3-1.7-0.3-2.3l-1.6-1.6c0,0,0,0,0,0c0,0,0,0,0,0
		l3.8-3.8c0,0,0,0,0,0c0,0,0,0,0,0h0c0,0,0,0,0,0l1.5,1.5c0.6,0.6,1.6,0.8,2.4,0.3c1-0.5,2-1,3-1.3c0.8-0.3,1.4-1,1.4-1.9v-2
		c0,0,0-0.1,0.1-0.1h5.4c0,0,0.1,0,0.1,0.1v2c0,0.9,0.6,1.7,1.4,1.9c1.1,0.3,2.1,0.7,3.1,1.3c0.8,0.4,1.7,0.3,2.4-0.3l1.4-1.4
		c0,0,0.1,0,0.1,0l3.8,3.8c0,0,0,0,0,0c0,0,0,0,0,0l-1.4,1.4c-0.6,0.6-0.8,1.6-0.3,2.3c0.5,1,1,2,1.3,3.1c0.2,0.9,1,1.4,1.9,1.4h2
		c0,0,0.1,0,0.1,0.1L117.8,93.5L117.8,93.5z"/>
	<path class="st2" d="M99.3,80.5c-5.7,0-10.4,4.6-10.4,10.3c0,5.7,4.6,10.3,10.4,10.3c5.7,0,10.4-4.6,10.4-10.3
		C109.7,85.1,105.1,80.5,99.3,80.5z M99.3,97.2c-3.5,0-6.4-2.9-6.4-6.4c0-3.5,2.9-6.4,6.4-6.4c3.5,0,6.4,2.9,6.4,6.4
		S102.9,97.2,99.3,97.2z"/>
</g>
</svg>
