<?xml version="1.0" encoding="utf-8"?>
<!-- Generator: Adobe Illustrator 24.0.2, SVG Export Plug-In . SVG Version: 6.00 Build 0)  -->
<svg version="1.1" id="Capa_1" xmlns="http://www.w3.org/2000/svg" xmlns:xlink="http://www.w3.org/1999/xlink" x="0px" y="0px"
	 viewBox="0 0 134.4 127.7" style="enable-background:new 0 0 134.4 127.7;" xml:space="preserve">
<style type="text/css">
	.st0{fill:#CAB5FF;}
	.st1{fill:#7466AA;}
	.st2{fill:#4C426F;}
</style>
<g>
	<path class="st0" d="M121.4,1H15.3c-5.2,0-9.4,4.2-9.4,9.4v106.1c0,5.2,4.2,9.4,9.4,9.4h106.1c5.2,0,9.4-4.2,9.4-9.4V10.4
		C130.7,5.2,126.5,1,121.4,1z"/>
	<polygon class="st1" points="118,76.6 18.6,76.6 18.6,39.9 118,39.9 118,76.6 	"/>
	<polygon class="st1" points="14.2,2.9 8,8.6 8,27.9 127.8,27.9 127.8,6.9 123.6,3.5 	"/>
	<path class="st0" d="M24.6,9.4h-8.3c-1.1,0-2.1,0.9-2.1,2.1v8.3c0,1.2,0.9,2.1,2.1,2.1h8.3c1.1,0,2.1-0.9,2.1-2.1v-8.3
		C26.7,10.3,25.8,9.4,24.6,9.4z"/>
	<path class="st0" d="M57.9,9.4h-8.3c-1.1,0-2.1,0.9-2.1,2.1v8.3c0,1.2,0.9,2.1,2.1,2.1h8.3c1.1,0,2.1-0.9,2.1-2.1v-8.3
		C60,10.3,59.1,9.4,57.9,9.4z"/>
	<path class="st0" d="M90.2,46.3h-6.3c-0.9,0-1.6,0.7-1.6,1.6v6.3c0,0.9,0.7,1.6,1.6,1.6h6.3c0.9,0,1.6-0.7,1.6-1.6v-6.3
		C91.7,47,91,46.3,90.2,46.3z"/>
	<path class="st0" d="M41.3,9.4H33c-1.1,0-2.1,0.9-2.1,2.1v8.3c0,1.2,0.9,2.1,2.1,2.1h8.3c1.1,0,2.1-0.9,2.1-2.1v-8.3
		C43.4,10.3,42.4,9.4,41.3,9.4z"/>
	<title>icon-1</title>
	<g>
		<g>
			<g>
				<path class="st2" d="M118.2,36.4H18.4c-1.1,0-2.1,0.9-2.1,2.1V78c0,1.2,0.9,2.1,2.1,2.1h99.9c1.1,0,2.1-0.9,2.1-2.1V38.5
					C120.3,37.3,119.4,36.4,118.2,36.4z M116.2,75.9H20.5V40.6h95.7L116.2,75.9L116.2,75.9z"/>
			</g>
		</g>
		<g>
			<g>
				<path class="st2" d="M59.4,57.8c-0.8-0.8-2.1-0.8-2.9,0l-8.3,8.3c-0.8,0.8-0.8,2.1,0,2.9c0.4,0.4,0.9,0.6,1.5,0.6
					c0.5,0,1.1-0.2,1.5-0.6l8.3-8.3C60.2,60,60.2,58.6,59.4,57.8z"/>
			</g>
		</g>
		<g>
			<g>
				<path class="st2" d="M67.7,66.1l-8.3-8.3c-0.8-0.8-2.1-0.8-2.9,0c-0.8,0.8-0.8,2.1,0,2.9l8.3,8.3c0.4,0.4,0.9,0.6,1.5,0.6
					c0.5,0,1.1-0.2,1.5-0.6C68.5,68.3,68.5,67,67.7,66.1z"/>
			</g>
		</g>
		<g>
			<g>
				<path class="st2" d="M71.9,53.7c-0.8-0.8-2.1-0.8-2.9,0L60.6,62c-0.8,0.8-0.8,2.1,0,2.9c0.4,0.4,0.9,0.6,1.5,0.6
					c0.5,0,1.1-0.2,1.5-0.6l8.3-8.3C72.7,55.8,72.7,54.5,71.9,53.7z"/>
			</g>
		</g>
		<g>
			<g>
				<path class="st2" d="M80.2,62l-8.3-8.3c-0.8-0.8-2.1-0.8-2.9,0c-0.8,0.8-0.8,2.1,0,2.9l8.3,8.3c0.4,0.4,0.9,0.6,1.5,0.6
					c0.5,0,1.1-0.2,1.5-0.6C81,64.1,81,62.8,80.2,62z"/>
			</g>
		</g>
		<g>
			<g>
				<path class="st2" d="M121.4,1H15.3c-5.2,0-9.4,4.2-9.4,9.4v106.1c0,5.2,4.2,9.4,9.4,9.4h106.1c5.2,0,9.4-4.2,9.4-9.4V10.4
					C130.7,5.2,126.5,1,121.4,1z M126.6,116.5c0,2.9-2.3,5.2-5.2,5.2H15.3c-2.9,0-5.2-2.3-5.2-5.2V10.4c0-2.9,2.3-5.2,5.2-5.2h106.1
					c2.9,0,5.2,2.3,5.2,5.2V116.5z"/>
			</g>
		</g>
		<g>
			<g>
				<path class="st2" d="M24.6,9.4h-8.3c-1.1,0-2.1,0.9-2.1,2.1v8.3c0,1.2,0.9,2.1,2.1,2.1h8.3c1.1,0,2.1-0.9,2.1-2.1v-8.3
					C26.7,10.3,25.8,9.4,24.6,9.4z M22.6,17.7h-4.2v-4.2h4.2V17.7z"/>
			</g>
		</g>
		<g>
			<g>
				<path class="st2" d="M41.3,9.4H33c-1.1,0-2.1,0.9-2.1,2.1v8.3c0,1.2,0.9,2.1,2.1,2.1h8.3c1.1,0,2.1-0.9,2.1-2.1v-8.3
					C43.4,10.3,42.4,9.4,41.3,9.4z M39.2,17.7H35v-4.2h4.2V17.7z"/>
			</g>
		</g>
		<g>
			<g>
				<path class="st2" d="M57.9,9.4h-8.3c-1.1,0-2.1,0.9-2.1,2.1v8.3c0,1.2,0.9,2.1,2.1,2.1h8.3c1.1,0,2.1-0.9,2.1-2.1v-8.3
					C60,10.3,59.1,9.4,57.9,9.4z M55.8,17.7h-4.2v-4.2h4.2V17.7z"/>
			</g>
		</g>
		<g>
			<g>
				<path class="st2" d="M89.1,44.7H85c-2.3,0-4.2,1.9-4.2,4.2V53c0,2.3,1.9,4.2,4.2,4.2h4.1c2.3,0,4.2-1.9,4.2-4.2v-4.1
					C93.3,46.6,91.4,44.7,89.1,44.7z M89.1,53C89.1,53,89.1,53.1,89.1,53H85l0-4.1l4.1,0V53z"/>
			</g>
		</g>
		<g>
			<g>
				<path class="st2" d="M121.4,1H15.3c-5.2,0-9.4,4.2-9.4,9.4v17.7c0,1.2,0.9,2.1,2.1,2.1h120.7c1.1,0,2.1-0.9,2.1-2.1V10.4
					C130.7,5.2,126.5,1,121.4,1z M126.6,26H10.1V10.4c0-2.9,2.3-5.2,5.2-5.2h106.1c2.9,0,5.2,2.3,5.2,5.2V26z"/>
			</g>
		</g>
		<g>
			<g>
				<path class="st2" d="M93.3,86.3H18.4c-1.1,0-2.1,0.9-2.1,2.1s0.9,2.1,2.1,2.1h74.9c1.1,0,2.1-0.9,2.1-2.1S94.4,86.3,93.3,86.3z"
					/>
			</g>
		</g>
		<g>
			<g>
				<path class="st2" d="M118.2,86.3h-14.6c-1.1,0-2.1,0.9-2.1,2.1s0.9,2.1,2.1,2.1h14.6c1.1,0,2.1-0.9,2.1-2.1
					S119.4,86.3,118.2,86.3z"/>
			</g>
		</g>
		<g>
			<g>
				<path class="st2" d="M118.2,94.7H43.4c-1.1,0-2.1,0.9-2.1,2.1s0.9,2.1,2.1,2.1h74.9c1.1,0,2.1-0.9,2.1-2.1
					S119.4,94.7,118.2,94.7z"/>
			</g>
		</g>
		<g>
			<g>
				<path class="st2" d="M33,94.7H18.4c-1.1,0-2.1,0.9-2.1,2.1s0.9,2.1,2.1,2.1H33c1.1,0,2.1-0.9,2.1-2.1C35,95.6,34.1,94.7,33,94.7
					z"/>
			</g>
		</g>
		<g>
			<g>
				<path class="st2" d="M93.3,103H18.4c-1.1,0-2.1,0.9-2.1,2.1c0,1.2,0.9,2.1,2.1,2.1h74.9c1.1,0,2.1-0.9,2.1-2.1
					S94.4,103,93.3,103z"/>
			</g>
		</g>
		<g>
			<g>
				<path class="st2" d="M118.2,103h-14.6c-1.1,0-2.1,0.9-2.1,2.1c0,1.2,0.9,2.1,2.1,2.1h14.6c1.1,0,2.1-0.9,2.1-2.1
					C120.3,103.9,119.4,103,118.2,103z"/>
			</g>
		</g>
		<g>
			<g>
				<path class="st2" d="M118.2,111.3H43.4c-1.1,0-2.1,0.9-2.1,2.1c0,1.2,0.9,2.1,2.1,2.1h74.9c1.1,0,2.1-0.9,2.1-2.1
					C120.3,112.2,119.4,111.3,118.2,111.3z"/>
			</g>
		</g>
		<g>
			<g>
				<path class="st2" d="M33,111.3H18.4c-1.1,0-2.1,0.9-2.1,2.1c0,1.2,0.9,2.1,2.1,2.1H33c1.1,0,2.1-0.9,2.1-2.1
					C35,112.2,34.1,111.3,33,111.3z"/>
			</g>
		</g>
	</g>
</g>
</svg>
