<?xml version="1.0" encoding="utf-8"?>
<!-- Generator: Adobe Illustrator 24.0.2, SVG Export Plug-In . SVG Version: 6.00 Build 0)  -->
<svg version="1.1" id="freepik_stories-co-workers" xmlns:svgjs="http://svgjs.com/svgjs"
	 xmlns="http://www.w3.org/2000/svg" xmlns:xlink="http://www.w3.org/1999/xlink" x="0px" y="0px" viewBox="0 0 500 500"
	 style="enable-background:new 0 0 500 500;" xml:space="preserve">
<style type="text/css">
	.st0{fill:#F5F5F5;}
	.st1{fill:#E6E6E6;}
	.st2{fill:#7466AA;}
	.st3{fill:#FFFFFF;}
	.st4{fill:#FFA8A7;}
	.st5{fill:#263238;}
	.st6{fill:#455A64;}
	.st7{fill:#37474F;}
	.st8{opacity:0.6;fill:#FFFFFF;enable-background:new    ;}
	.st9{opacity:0.1;enable-background:new    ;}
	.st10{opacity:0.15;enable-background:new    ;}
	.st11{opacity:0.6;enable-background:new    ;}
	.st12{opacity:0.55;}
	.st13{opacity:0.55;enable-background:new    ;}
	.st14{fill:#F28F8F;}
	.st15{fill:#B16668;}
	.st16{fill:#EBEBEB;}
	.st17{fill:#E0E0E0;}
	.st18{opacity:0.4;enable-background:new    ;}
	.st19{fill:#FAFAFA;}
	.st20{fill:#9A4A4D;}
</style>
<g id="freepik--Floor--inject-145">
	<ellipse id="freepik--floor--inject-145" class="st0" cx="253.1" cy="357.6" rx="227.9" ry="125.3"/>
</g>
<g id="freepik--Shadows--inject-145">
	<ellipse id="freepik--Shadow--inject-145" class="st1" cx="346.1" cy="381" rx="58.7" ry="33.9"/>
	<ellipse id="freepik--shadow--inject-145" class="st1" cx="205.6" cy="382.9" rx="56.3" ry="32.5"/>
	<path id="freepik--shadow--inject-145_1_" class="st1" d="M85.9,363.3l50.6,29.2c13,7.5,34.2,7.5,47.1,0l42.4-24.4
		c9.6-5.5,9.6-14.6,0-20.1l-50.6-29.3c-12.9-7.5-34.1-7.5-47.1,0l-42.4,24.5C76.3,348.7,76.3,357.8,85.9,363.3z"/>
</g>
<g id="freepik--speech-bubble--inject-145">
	<path id="elig2ydyp9y" class="st2" d="M283.1,96.5c4.3-22.9-10.8-45-33.8-49.3s-45,10.8-49.3,33.8c-2.7,14.4,2.2,29.1,13,38.9
		c-2.1,4.6-6,11.4-11.1,13.4c0,0,12,6,22.6-6c19.9,8.7,43.1,1,53.8-17.9c14.3,4.9,21.8-5.5,21.8-5.5
		C294.2,104.7,287,99.6,283.1,96.5z"/>
	<path class="st3" d="M242,58.4c-4.7,0-9.3,1.1-13.5,3.3l-4.9-4.9c-0.4-0.4-1-0.6-1.6-0.5s-1.1,0.6-1.3,1.1l-2.5,6.6l-6.6,2.5
		c-0.6,0.2-1,0.7-1.1,1.3c-0.1,0.6,0.1,1.2,0.5,1.6l4.9,4.9c-2.2,4.2-3.3,8.8-3.3,13.5c0,16.2,13.2,29.4,29.4,29.4
		s29.4-13.2,29.4-29.4S258.2,58.4,242,58.4z M242,97.5c5.3,0,9.7-4.3,9.7-9.7c0-5.3-4.3-9.7-9.7-9.7c-2,0-3.9,0.6-5.5,1.7l-4.5-4.5
		c2.7-2.2,6.2-3.5,10-3.5c8.8,0,16,7.2,16,16s-7.2,16-16,16s-16-7.2-16-16c0-3.8,1.3-7.2,3.5-10l4.5,4.5c-1.1,1.6-1.7,3.4-1.7,5.5
		C232.3,93.1,236.7,97.5,242,97.5L242,97.5z M243.3,86.5l-4.1-4.1c0.9-0.5,1.8-0.7,2.9-0.7c3.4,0,6.1,2.7,6.1,6.1s-2.7,6.1-6.1,6.1
		c-3.4,0-6.1-2.7-6.1-6.1c0-1,0.3-2,0.7-2.9l4.1,4.1c0.3,0.3,0.8,0.5,1.3,0.5c0.5,0,0.9-0.2,1.3-0.5C244,88.4,244,87.2,243.3,86.5
		L243.3,86.5z M223.1,61.3l6,6l-0.8,4.3l-6.6-6.6L223.1,61.3z M215.5,68.9l3.7-1.4l6.6,6.6l-4.3,0.8L215.5,68.9z M242,113.6
		c-14.3,0-25.8-11.6-25.8-25.8c0-3.8,0.8-7.5,2.4-10.8l1.1,1.1c0.3,0.3,0.8,0.5,1.3,0.5c0.1,0,0.2,0,0.3,0l3.9-0.7
		c-1.7,2.9-2.7,6.3-2.7,9.9c0,10.8,8.8,19.6,19.6,19.6s19.6-8.8,19.6-19.6s-8.8-19.6-19.6-19.6c-3.6,0-7,1-9.9,2.7l0.7-3.9
		c0.1-0.6-0.1-1.2-0.5-1.6l-1.1-1.1c3.4-1.6,7.1-2.4,10.8-2.4c14.3,0,25.8,11.6,25.8,25.8C267.8,102.1,256.3,113.6,242,113.6
		L242,113.6z"/>
</g>
<g id="freepik--character-2--inject-145">
	<path id="elio74n84ud7h" class="st4" d="M278.3,178.8c2.8,0,37.4,3.7,42.3,0.9c4.7-2.6,19.6-39.2,19.6-39.2
		c1.5-13.5-2.9-17.3-2.9-17.3s-7.2-1.7-12.4,10.5c-2.9,6.8-12.8,31.9-12.8,31.9s-29.1,2.6-32.4,0.5c-1.7-0.8-2.5-3-3.1-4.5
		c-1-2.5-0.5-5.4-0.6-6.4c-0.2-1.8-2.8-0.6-3.5,2.4c-0.5,2.2-0.1,4.2-0.9,4.6c-1.3-0.1-2.6-0.4-3.9-0.9c-1.8-0.7-5-1.8-6.8-0.5
		c-0.6,0.5-1,1.2-1,2c0.2,1.1,0.2,2.2,0,3.2c-0.2,0.5-0.4,1-0.5,1.6c0,0.7,0.4,1.2,0.5,1.8c0.1,0.9-0.7,1.8-0.6,2.7
		c0.1,0.7,0.6,1.2,0.8,1.9c0.1,0.4,0,0.9,0.2,1.3c0.3,0.8,1,1.5,1.8,1.8c2.6,1.1,5.3,1.7,8.1,1.8
		C272.5,179.2,275.6,178.9,278.3,178.8z"/>
	<path id="el5c1yc5cup13" class="st5" d="M383.1,362c0.6,3.2,0.9,6.5,0.9,9.8c0.1,5.9,1.2,8,1.3,12.9c0.2,5.5-0.8,7.6-3,10.8
		s-8.2,6-10.7,0.7s-2.2-8.7-1.4-14.2c0.8-5.6,0.9-8.7,1.4-13c0.4-3.8,0.9-6.7,0.9-6.7L383.1,362z"/>
	<path id="el59lxnsa7qbh" class="st4" d="M366.3,315.4l19.5-0.4c-0.3,13-2.4,34.7-2.7,46.9c-0.1,2.3,0.1,17.9-0.8,22.6
		c-1.3,7.1-9.7,6.1-10.2,1.9s0.5-22.4,0.5-24.3c0.1-7.8-3.6-28.3-5.5-42.3C367,319.1,366.4,316.1,366.3,315.4z"/>
	<path id="elipm1jj7084j" class="st5" d="M337.6,351.8c0,0,1,0.1,1.2,0.9c0.2,1,0.2,2.5,0.6,4.1c0.7,2.5,0.9,5.1,0.7,7.7
		c-0.3,1.8-4.5,4.5-7.3,5s-6.8,3.3-9.1,5.4c-3.6,3-8,4.7-12.6,5c-4.7,0-8-1.6-9.6-4.1s1.4-2.8,6.8-6.4l4.2-2.7
		c8.6-5.6,11.7-8.6,14.1-14.2L337.6,351.8z"/>
	<path id="elef4wsi8zsws" class="st4" d="M326.6,348.8c0.1-4-1.9-33.7-1.9-33.7l16.8,1.9c-4,23.7-4.3,31.7-3.8,35.2l0,0
		c0.1,0.3,0.1,0.7,0.1,1c0,4.6-5.2,7.1-9.3,10.1c-1.6,1.2-5.7,4.9-10.5,6.6c-3.1,1.1-8.9,1.5-9.6-0.4c4.9-3.8,11.6-8.7,15.5-13
		C325.8,354.4,326.5,352.8,326.6,348.8z"/>
	<path id="el7l0ynpcvrt" class="st6" d="M371.8,174.9c5.7,7.5,9.9,16.1,12.3,25.3c5.5,22.4-3.2,70.2-3.2,70.2
		c0.3,3.2,4,9.6,5.4,23.9c1.6,16.9-3,62-3,62s-4.5,3.3-10.9,0.2c0,0-11.8-66.3-13.9-83.1c-1.9-14.6-5.6-45-5.6-45l-8.5,45
		c0,0,1.2,8.2,1.8,14.4c1,9.9-8.6,59.4-8.6,59.4s-4.5,2.4-10.9-0.2c0,0-4.3-64-5.1-75.8c-0.9-12.2,2.3-40.7,4.6-63.4
		c0.7-6.8,4.2-27.9,5.4-33.8L371.8,174.9z"/>
	<path id="elr0tnbh9pdt" class="st7" d="M352.8,228.4l-2-13.9c-5.8-0.4-11.4-2.2-16.3-5.3c0,0,5,6.8,13.6,7.6l1.3,12.4l-4,38.6
		L352.8,228.4z"/>
	<path id="elm185d3jkx9" class="st2" d="M330.5,160.1c0.2,4.1,1,13.8,1,13.8c16.6,11.2,40.3,1,40.3,1l3.5-23.6
		c0,0-8.7-12.1-0.5-24.9l-13-2.6l-15.5-1.3l-9,0.8c-5.1,3.7-8.5,11.3-10.1,15.5S323.1,151.4,330.5,160.1z"/>
	<g id="el5o7bzc565uv">
		<path id="elejyc2xowl3a" class="st8" d="M330.5,160.1c0.2,4.1,1,13.8,1,13.8c16.6,11.2,40.3,1,40.3,1l3.5-23.6
			c0,0-8.7-12.1-0.5-24.9l-13-2.6l-15.5-1.3l-9,0.8c-5.1,3.7-8.5,11.3-10.1,15.5S323.1,151.4,330.5,160.1z"/>
	</g>
	<polygon id="elp28i1267d0e" class="st2" points="295.8,171.5 337.8,174.4 359.2,221.8 319,218 	"/>
	<g id="el1cpmpw5m63t">
		<polygon id="el0lb0p9p83dl" class="st9" points="295.8,171.5 337.8,174.4 359.2,221.8 319,218 		"/>
	</g>
	<g id="elsev5fubvc6">
		<path id="ela21w91tx498" class="st10" d="M334.7,204.3c1.2,3.2,4.1,5.5,7.5,6c5.6,0.7,10.9-2,10.9-2l-1.8-4H334.7z"/>
	</g>
	<g id="el54yfxqg5sle">
		<path id="elkken8k1oe3c" class="st10" d="M308.9,176.5l-0.6-1.5c-0.3-0.8,2-1.3,5.2-1.1l6.2,0.4c3.2,0.2,6.1,1,6.5,1.8l0.6,1.5
			L308.9,176.5z"/>
	</g>
	<path id="el2zylt1megdb" class="st5" d="M305,171.2c-0.2-0.5,0.7-0.8,2.1-0.7l2.5,0.2c0,0-1.3-3.2,4.1-3s7.3,3.7,7.3,3.7l2.6,0.2
		c1.5,0.1,2.8,0.6,3.1,1.1l0.5,0.9l-21.7-1.5L305,171.2z"/>
	<path id="elpm0o8wbn18d" class="st5" d="M308.1,172.3c2,0.1,2.8,0.2,3.3,1.4c0.6,1.4,1,2.5,1,2.5l9.6,0.7c0,0-0.8-1.8-1.1-2.5
		s-0.1-1.2,1.5-1.1v-0.6l-15-0.9L308.1,172.3z"/>
	<path id="elditkyc2em2" class="st7" d="M308.6,176.6c0,0-0.3-0.6-0.6-1.5s2-1.3,5.2-1.1l6.2,0.4c3.2,0.2,6.1,1,6.5,1.8l0.6,1.5
		L308.6,176.6z"/>
	<path id="elvn6ststh6cf" class="st4" d="M339.4,197.8c2.8-0.3,5.6-1.1,8.1-2.4c-1.6-0.2-3.1-0.6-4.6-1.2c-1.4-0.5-2.2-2-1.8-3.4
		c0.2-0.6,1.6,0.1,4.1,0c3.2-0.1,5.4-0.7,8.7,0c1.3,0.3,3,1.1,4.1,0.5c6.3-3.6,22.9-15.4,24.3-16.8l0,0l-7.4-22.1
		c0,0-10.2-12.1-2.1-26.3c7.8,0.6,13,1.7,16.8,15.1c3.9,14,9.4,32.3,9.2,38s-15.4,11.8-26.8,17.4c-4.8,2.4-12.7,6.9-15.8,8.5
		c-10.8,5.6-16,5.1-19.7,1.4C330.7,200.7,333,198.6,339.4,197.8z"/>
	<path id="el1k3uir8j1dc" class="st2" d="M387.9,117.2L387.9,117.2c-8,0-14.5-6.5-14.5-14.5V76l0,0c8,0,14.5,6.5,14.5,14.5V117.2z"
		/>
	<g id="elfret4dmvdci">
		<path id="el6mvv6ix8z0b" class="st11" d="M387.9,117.2L387.9,117.2c-8,0-14.5-6.5-14.5-14.5V76l0,0c8,0,14.5,6.5,14.5,14.5V117.2z
			"/>
	</g>
	<path id="elfjsivq28wgw" class="st2" d="M328.4,95.7c-2.5-4.3-3.2-9.3-1.9-14.1v-0.1c3-10.5,11.7-18.3,23.5-18.4
		c7.5-0.1,14.7,2.9,19.8,8.4c0-0.4,0-0.8,0.1-1.2c0.6-1.8,2.5-2.8,4.3-2.2c0,0,0.1,0,0.1,0l-1.5,5c0.4-0.6,1-1,1.7-1.2
		c1.8-0.6,3.8,0.3,4.4,2.1c0,0,0,0.1,0,0.1l-5.6,1.9c2.4,3.9,3.6,8.5,3.7,13.1l0,0V90c0,12.3-9.9,22.2-22.2,22.2h-7.2
		C339.4,112.2,332.3,102.3,328.4,95.7z"/>
	<g id="eltpule2byku">
		<g id="eljdi0spoizfb" class="st12">
			<path id="el5arhypdi28g" d="M328.4,95.7c-2.5-4.3-3.2-9.3-1.9-14.1v-0.1c3-10.5,11.7-18.3,23.5-18.4c7.5-0.1,14.7,2.9,19.8,8.4
				c0-0.4,0-0.8,0.1-1.2c0.6-1.8,2.5-2.8,4.3-2.2c0,0,0.1,0,0.1,0l-1.5,5c0.4-0.6,1-1,1.7-1.2c1.8-0.6,3.8,0.3,4.4,2.1
				c0,0,0,0.1,0,0.1l-5.6,1.9c2.4,3.9,3.6,8.5,3.7,13.1l0,0V90c0,12.3-9.9,22.2-22.2,22.2h-7.2C339.4,112.2,332.3,102.3,328.4,95.7z
				"/>
		</g>
	</g>
	<path id="el9hl41qrn7do" class="st4" d="M334.5,79c-2.9,1.6-5.4,3.7-5.5,18.9c0,12.9,4,16.2,6.1,17.1s6.1,0.5,10.1,0l-0.1,6.3
		c-3.3,5.8-4.4,12.7-3.1,19.3c8.1-6.3,20.2-16.8,20.2-16.8l0.4-17.8c0,0,2.2,2.3,6.3-1c3.3-2.7,4.5-7.5,2.1-10.1
		c-2.2-2.2-5.8-2.1-8,0.1c-0.4,0.4-0.8,0.9-1,1.4c-8.4,0-11.6-10.7-12.1-16.5C345.1,75.1,339.4,87.7,334.5,79z"/>
	<path id="elfnoq5x9bqno" class="st7" d="M341.9,140.6l17.1-14.3c1.4-1.2,3.2-2.5,3.2-4.3l0.1-2.6c0.7,0.9,1.3,1.9,1.6,3
		c0.8,2.2,2,6.4-3.5,11.3C354.5,139,341.9,140.6,341.9,140.6z"/>
	<path id="elcz14re62gu8" class="st7" d="M345.2,119.4c-1.4,0.6-2.7,1.4-3.8,2.5c-1.8,1.7-5.4,5.9-4.6,11.2c0.5,3.1,2.3,5.9,5,7.6
		c-0.5-3.4-0.5-6.9,0-10.3c0.7-3.1,1.8-6.2,3.3-9.1L345.2,119.4z"/>
	<path id="el1ilgg6ujpo7" class="st2" d="M360.7,101.3l2-6.6c-1.8-0.6-4.4-0.2-4.5,1.7C358.1,98.6,358.8,100.7,360.7,101.3z"/>
	<g id="elnl59ly6aa7">
		<path id="elzvtpkfwnrf9" class="st13" d="M360.7,101.3l2-6.6c-1.8-0.6-4.4-0.2-4.5,1.7C358.1,98.6,358.8,100.7,360.7,101.3z"/>
	</g>
	<path id="el70a0hfxrllw" class="st2" d="M331.1,78c0,0,2.1,12,18.9,12.4V76.7L331.1,78z"/>
	<g id="elps78ej2ls9">
		<path id="ell09pu7ck8w" class="st13" d="M331.1,78c0,0,2.1,12,18.9,12.4V76.7L331.1,78z"/>
	</g>
	<path id="elm2v3wahk5e" class="st5" d="M342.7,94.8c0,0.9,0.7,1.6,1.5,1.6c0.9,0,1.6-0.7,1.6-1.5c0-0.8-0.6-1.6-1.5-1.6
		C343.5,93.2,342.8,93.9,342.7,94.8C342.7,94.8,342.7,94.8,342.7,94.8z"/>
	<path id="elen0aztk3a9j" class="st14" d="M343.5,106.1l-4.4,1.3c0.3,1.2,1.5,1.9,2.7,1.6c0,0,0.1,0,0.1,0
		C343.1,108.6,343.8,107.3,343.5,106.1z"/>
	<path id="elwlx9ru14zc" class="st5" d="M330.7,89.8l3.3-2.1c-0.5-0.9-1.7-1.2-2.6-0.7c0,0-0.1,0-0.1,0.1
		C330.4,87.7,330.1,88.9,330.7,89.8z"/>
	<path id="el9dw3gs0it0b" class="st5" d="M330.5,93.7c0,0.9,0.7,1.6,1.5,1.6c0.9,0,1.6-0.7,1.6-1.5c0-0.9-0.6-1.6-1.5-1.6
		C331.3,92.1,330.5,92.8,330.5,93.7C330.5,93.7,330.5,93.7,330.5,93.7z"/>
	<polygon id="el321j6uylc17" class="st14" points="338.2,93.3 338,103.7 333,102 	"/>
	<path id="elq4x6yiylxjo" class="st14" d="M345.3,115.4c4.1-0.4,12.5-2.6,13.9-5.9c-0.6,1.7-1.6,3.1-3,4.1
		c-2.6,2.1-10.9,4.3-10.9,4.3L345.3,115.4z"/>
</g>
<g id="freepik--character-1--inject-145">
	<path id="elx2fexs4s299" class="st15" d="M243.7,172.5c-0.3-0.6-0.2-1.2-0.6-1.8c-0.4-0.4-0.8-0.7-1.3-1c-0.8-0.8-1.4-1.7-1.9-2.7
		c-0.4-0.6-1.1-1-1.9-1.1c-2.3-0.1-4.3,2.6-5.4,4.2c-0.8,1.1-1.7,2-2.7,2.9c-0.9,0.1-1.7-1.8-3.4-3.3c-2.3-2.1-5.2-1.6-4.3-0.1
		c0.5,0.9,2.5,3,3.1,5.6c0.4,1.6,1.1,4.5,0.1,6.1l8.1,9.1c2.2-1.5,4.9-2.9,6.8-4.4c2.3-1.6,4.3-3.6,5.8-6c0.5-0.7,0.7-1.6,0.5-2.4
		c-0.1-0.4-0.4-0.8-0.6-1.2c-0.2-0.6-0.1-1.4-0.4-2C245.3,173.6,244.1,173.3,243.7,172.5z"/>
	<path id="elz8u687ty6g" class="st15" d="M147.7,190.5c0,0,0.4-0.8,0.7-1.3c4.6-7.3,8.5-10.7,15.7-8.4s33.1,19.4,33.1,19.4
		c15-9.2,22.1-14,28.3-18.9c4.9-3.8,15.9,3.5,9,8.5c-8.3,5.9-26.8,27.1-32.1,29S147.7,190.5,147.7,190.5z"/>
	<path id="elvyha2ubiq4p" class="st16" d="M147.7,190.5c0.8-1.8,1.8-3.5,3-5.1c2.2-3.1,5.3-6,10.7-5.2s11.6,3.7,19.8,8.7
		s16.1,9.7,16.1,9.7l20.1-11.2l8.2,10.4c0,0-13.6,14.6-19.6,19.4s-4.1,3.7-12.9-0.2S147.7,190.5,147.7,190.5z"/>
	<path id="elubrxn2ul6yo" class="st17" d="M220.8,202.7c-4-1.8-9.2-6.7-9.3-12.1l11.4-7.2c-0.1,3.9,5.4,9.2,8.5,9L220.8,202.7z"/>
	<path id="eln84wbfp8t4" class="st6" d="M156.6,385.5c-0.7,0-1.4-0.6-1.4-1.3c0,0,0,0,0,0v-87.3c0-0.8,0.6-1.4,1.4-1.4
		s1.4,0.6,1.4,1.4v87.3C157.9,384.9,157.3,385.5,156.6,385.5C156.6,385.5,156.6,385.5,156.6,385.5z"/>
	<path id="elervh2s5hm8" class="st6" d="M210.5,353.7c-0.6,0-1.1-0.3-1.3-0.9l-26.8-67.7c-0.3-0.7-0.1-1.5,0.6-1.8s1.5-0.1,1.8,0.6
		c0,0.1,0.1,0.1,0.1,0.2l26.8,67.7c0.3,0.7-0.1,1.5-0.7,1.8c0,0,0,0,0,0C210.9,353.7,210.7,353.7,210.5,353.7z"/>
	<path id="els0i7dbknoh" class="st6" d="M207.3,345.6c-0.4,0-0.7-0.2-1-0.4l-49.8-52.7l-49.7,52.5c-0.5,0.5-1.4,0.6-1.9,0.1
		c0,0,0,0,0,0c-0.5-0.5-0.6-1.4-0.1-1.9l50.7-53.5c0.3-0.3,0.6-0.4,1-0.4l0,0c0.4,0,0.7,0.2,1,0.4l50.8,53.7
		c0.5,0.5,0.5,1.4-0.1,1.9C208,345.5,207.7,345.6,207.3,345.6z"/>
	<path id="elltik1v1c2l" class="st6" d="M102.6,353.7c-0.2,0-0.3,0-0.5-0.1c-0.7-0.3-1-1.1-0.8-1.8l26.8-67.7c0.3-0.7,1.1-1,1.8-0.6
		c0.6,0.3,0.9,1,0.7,1.6l-26.8,67.7C103.6,353.4,103.1,353.7,102.6,353.7z"/>
	<path id="el043y2v96mrl2" class="st2" d="M208.7,343.5l3.5,9.3c0,0.1,0,0.2,0,0.2v0.2c-0.1,0.3-0.3,0.5-0.5,0.6
		c-0.7,0.3-1.5,0.3-2.1,0c-0.2-0.1-0.3-0.2-0.4-0.4l0,0v-0.1l-3.3-8.8L208.7,343.5z"/>
	<path id="elu97rspwh71" class="st2" d="M104.4,343.5l-3.5,9.3c0,0.1,0,0.2,0,0.2c0,0.1,0,0.1,0,0.2c0.1,0.3,0.3,0.5,0.5,0.6
		c0.7,0.3,1.5,0.3,2.2,0c0.2-0.1,0.3-0.2,0.4-0.4l0,0v-0.1l3.3-8.8L104.4,343.5z"/>
	<path id="elgssbyjxgz2q" class="st2" d="M158.1,377.4v7.7c0,0.3-0.2,0.5-0.5,0.6c-0.7,0.4-1.5,0.4-2.2,0c-0.3-0.1-0.4-0.4-0.5-0.6
		v-7.7C156,376.9,157.1,376.9,158.1,377.4z"/>
	<path id="elm8fhuzbn9ef" class="st5" d="M217.2,284.2c0-2.4-2.1-5-6.6-7.9c-8.3-5.4-32.5-18.9-44.2-25.4c0,0-0.1-0.1-0.1-0.1
		c-9-5.4-11.7-28.6-17.9-48.3c-2.1-6.7-4.7-10.5-7.8-12.3c-0.7-0.4-3.4-1.9-4-2.3c-6.1-3.6-14.1,0.7-24,6.2
		c-9.2,5-16.3,11.4-17.8,28.5c-0.9,10.4,0,30.2,2.1,45.2l0,0c3.1,25.1,6.8,25.1,12.2,29.3c9.4,7.2,30.4,17.4,39.3,20.9
		c16.1,6.3,29.3-3.4,39.1-8.3c9-4.6,17.7-9.7,26-15.4c2.5-1.8,3.7-3.6,3.7-5.5C217.2,288.1,217.2,285,217.2,284.2z"/>
	<path id="el6m0kvbebfv5" class="st6" d="M187.5,305.1c9-4.6,17.7-9.7,26-15.4c5.6-4,5.1-8.2-2.9-13.4
		c-11.1-7.2-50.6-28.9-50.6-28.9s-57.3,33.8-54.8,40s32.1,21.5,43.2,25.9C164.6,319.7,177.7,309.9,187.5,305.1z"/>
	<path id="eld3mc0onmlns" class="st6" d="M140.3,190c-6-3.2-13.9,1.1-23.5,6.4c-6.2,3.4-11.5,7.4-14.7,15l-4.1-2.4
		c3.2-7.5,8.5-11.5,14.7-14.9c9.9-5.4,17.9-9.8,24-6.2C137.2,188.3,139.3,189.4,140.3,190z"/>
	<path id="elkrljz87l64" class="st7" d="M116.8,196.5c14.9-8.1,25.4-13.9,31.7,6c6.2,19.7,8.9,42.9,17.9,48.3c0,0,2.7,0.2-19.6,17.1
		c-7.1,5.4-15.7,9.8-21.3,13.1c-11.1,6.6-17.8,9.3-18.8,8.4c-5.9-4.9-9-47.4-7.6-64.4S107.6,201.5,116.8,196.5z"/>
	<g id="eloeavbetl9ue">
		<rect id="el4md78okvhsc" x="183.9" y="361.4" class="st15" width="11.1" height="19.3"/>
	</g>
	<path id="eldnd8bjpy6c" class="st5" d="M194.9,377.6v-1c1.4,0,6.5,10.8,11.4,15.2c3.9,3.5,10.7,8.4,10.5,11.7
		c-0.2,4.3-6.4,6.2-11.7,5c-4.1-1-10.1-3.5-12.9-6.5s-3.8-7.1-5.3-9.1s-4.9-4.3-5.7-6.6c-0.4-1.3,0.1-4.1,0.7-6.4
		c0.6-2.2,1.2-4.5,1.9-4.4v1.3c0.9,1,3.4,2,6.1,2.1C191.8,379,194.9,379,194.9,377.6z"/>
	<g id="elh3tz4earnt">
		<rect id="elihjs3fk5qbq" x="213.2" y="347.3" class="st15" width="11.1" height="19.3"/>
	</g>
	<path id="el4fvep1pcljc" class="st5" d="M224.3,363.5v-1c1.4,0,6.5,10.8,11.4,15.2c3.9,3.5,10.7,8.4,10.5,11.7
		c-0.2,4.3-6.4,6.2-11.7,5c-4.1-1-10.1-3.5-12.9-6.6s-3.8-7.1-5.3-9.1s-4.9-4.3-5.7-6.6c-0.4-1.3,0.1-4.1,0.7-6.4
		c0.6-2.2,1.2-4.6,1.9-4.4v1.3c0.9,1,3.4,2,6.1,2.1C221.2,364.9,224.3,364.9,224.3,363.5z"/>
	<path id="elzknchbnza9" class="st2" d="M119.9,258.2c0.8,17.6-0.8,22.2,18.1,36.1c8.9,6.6,38,23.1,38,23.1
		c-0.1,6.5,0.2,12.9,0.8,19.3c0.9,11,6.7,33.6,6.7,33.6s7.2,3.1,12.3-0.2c0,0,4.1-59.6,3.2-63.6c-0.7-2.9-21.3-21.6-21.3-21.6
		l28,17.5c-0.5,4.7-0.5,9.5-0.1,14.3c1.6,14,3.3,21.9,7.1,39.6c0,0,8.1,2.9,12.2-0.2c0,0,4.8-60,3.4-65.1
		c-3.8-14.1-47.4-34.9-54.1-40.6C170.4,247.2,119.9,258.2,119.9,258.2z"/>
	<g id="el5gd06iw0ybm">
		<path id="el2uk9v2o8bb4" class="st18" d="M119.9,258.2c0.8,17.6-0.8,22.2,18.1,36.1c8.9,6.6,38,23.1,38,23.1
			c-0.1,6.5,0.2,12.9,0.8,19.3c0.9,11,6.7,33.6,6.7,33.6s7.2,3.1,12.3-0.2c0,0,4.1-59.6,3.2-63.6c-0.7-2.9-21.3-21.6-21.3-21.6
			l28,17.5c-0.5,4.7-0.5,9.5-0.1,14.3c1.6,14,3.3,21.9,7.1,39.6c0,0,8.1,2.9,12.2-0.2c0,0,4.8-60,3.4-65.1
			c-3.8-14.1-47.4-34.9-54.1-40.6C170.4,247.2,119.9,258.2,119.9,258.2z"/>
	</g>
	<g id="freepik--Character--inject-145">
		<path id="el139y6nj23um" class="st19" d="M136.7,181.2c-0.5,0.1-12.2,2.2-12.2,2.2c-5,1.1-8.2,7.6-8.2,7.6
			c-0.6,13.8,0.8,27.5,4,40.9l-0.9,28.1c7.7,8.4,50.8,8.7,55.5-9.1c0,0-1.5-39.2-2.2-47.7c-1.1-13-5.8-20.6-12.5-22.5
			c0,0-4.9,0-6.6,0.1L136.7,181.2z"/>
		<path id="elilite0pz7bp" class="st7" d="M157.9,191.6c-1.2,2.8-1.5,5.8-4.3,7.5c-3.9,0.4-7.6-4.2-9.8-6.5l6.2-3.6l3.1,5.8l1.9-6.1
			L157.9,191.6z"/>
		<path id="elehcfueyx86r" class="st5" d="M169.6,141.1c0.5,8.7-5.6,16.2-13.6,16.7s-15.1-6.1-15.6-14.9s5.6-16.2,13.6-16.7
			S169,132.4,169.6,141.1z"/>
		<path id="elidaq42hyyhr" class="st5" d="M126.5,153.6c-1.9-8-2.4-11.6-0.6-13.7c1.2-1.4,2.9-2.1,4.7-2l2.2,14.4l0,0l2.6,10.3
			l0.8,9.1c-1.7,0-3.3-0.9-4.1-2.4c-1.3-2.2-4.1-10.9-5.2-14.3h-0.1C126.7,154.4,126.6,154,126.5,153.6L126.5,153.6z"/>
		<path id="elczcp342rxne" class="st15" d="M134.7,155.2c-0.9,0.6-2.4-1.1-3.6-2.3s-5.2-2.6-6.8,1.6s2.3,9.4,5.3,10.2
			c5.3,1.3,5.9-2.1,5.9-2.1l1.6,18.7c3.2,3.7,6.8,7,10.9,9.6c1,0.7,1.7-0.7,2.8-0.2c1,0.5,1.7,3,2.3,4.2c1.8-3.2,3-11.8,0.8-15.2
			l-0.4-5.7c2.3,0.2,4.7,0.2,7-0.1c3.8-0.8,6-4,6.9-8.2c1.4-6.8,2.3-12.4-0.2-24.5c-2.9-13.9-19.6-14-28.3-7.8
			S134.7,155.2,134.7,155.2z"/>
		<path id="ela6e1han1wcu" class="st5" d="M134.8,156.8c-0.5,0-2.5-2.9-3.7-3.9c-1.7-1.4-0.4-15.1-0.4-15.1s-2-5,1.1-8.6
			c3.3-3.9,9.6-3.5,14.2-3.8c5.9-0.4,11.6-0.7,16.7-4.1c0.6-0.5,1.4-0.8,2.2-0.7c2.7,0.8,0.5,5.9,0.1,7.4c1.1-0.2,2.1-0.8,2.9-1.5
			c0.6-0.5,1.4-1.3,1.8,0c1.2,5.1-1.9,9.7-6.4,11.9c-3.1,1.5-6.7,1.6-10.2,1.5c-2.4-0.1-4.8-0.4-7.1-0.4c-2,0-4-0.1-5.9-0.3
			c-1.8-0.1-2.1,1.6-2.7,6.3C136.7,149.6,136.4,156.6,134.8,156.8z"/>
		<path id="elrdfhsrwaxt8" class="st5" d="M130.7,138.9l-5.9-2.7c0.7-1.6,2.5-2.4,4.1-1.8c0,0,0.1,0,0.1,0.1
			C130.6,135.2,131.4,137.2,130.7,138.9z"/>
		<path id="elne5gfjim9jb" class="st20" d="M153.5,174c0,0-7.3-1.4-10.3-2.8c-1.8-0.8-3.3-2.1-4.4-3.8c0.6,1.7,1.5,3.3,2.6,4.7
			c2.4,2.6,12.2,4.2,12.2,4.2L153.5,174z"/>
		<path id="elpdvot2n1ths" class="st5" d="M152.9,152.3c0,0.9-0.8,1.7-1.8,1.6s-1.7-0.8-1.6-1.8c0-0.9,0.8-1.7,1.7-1.6
			C152.2,150.6,152.9,151.4,152.9,152.3C152.9,152.3,152.9,152.3,152.9,152.3z"/>
		<path id="elr5fki85tsab" class="st5" d="M150,146.3l-3.3,2.5c-0.7-1-0.5-2.3,0.4-3c0.9-0.7,2.1-0.5,2.8,0.3
			C149.9,146.2,150,146.2,150,146.3z"/>
		<path id="el9g5o26exbbw" class="st20" d="M154.8,163.4l4.6,1.7c-0.4,1.3-1.8,2-3,1.6c0,0-0.1,0-0.1,0
			C155,166.1,154.4,164.7,154.8,163.4z"/>
		<path id="ellufekatorhc" class="st5" d="M166.3,145.4l-4-1.4c0.3-1.1,1.4-1.7,2.5-1.3c0,0,0.1,0,0.1,0
			C166.1,143,166.7,144.2,166.3,145.4z"/>
		<path id="elbkmgaqz3rcu" class="st5" d="M166.1,150.3c0,0.9-0.8,1.7-1.8,1.7c-0.9,0-1.7-0.8-1.7-1.8c0-0.9,0.8-1.7,1.7-1.7
			C165.4,148.5,166.1,149.3,166.1,150.3C166.1,150.2,166.1,150.2,166.1,150.3z"/>
		<polygon id="el627wr5w8k6k" class="st20" points="158.4,150 158.9,160.4 164.3,158.5 		"/>
		<path id="el1sr4cdfcrgv" class="st16" d="M153,194.9c0,0-0.9-3.9-1.9-5.4s-2.8-1.1-6.4-3c-5.4-2.8-8.1-7.6-8.1-9.3v-2.1
			c-0.9,0.2-1.8,0.7-2.3,1.6c-0.9,1.5-2.7,4.2-3.5,5.6s1.8,5.4,6.1,9.6c3.2,3.1,8.2,5.1,9.8,4.4c0.6-0.2,3-4.3,3.7-4.4
			S153,194.9,153,194.9z"/>
		<path id="elp2vy3cj37s" class="st16" d="M153.6,176.1c1.6,0.5,2.8,1.8,3.1,3.4c0.6,1.7,1.3,5.7,1.9,8s-0.7,6.3-1.1,6.8
			c-0.2,0.3-0.7-2.1-1.3-3.5s-1-0.4-1.2-0.1c-0.5,1.5-1.3,2.9-2.2,4.3c0.7-1.9,1-3.9,0.9-5.9c-0.3-2.9-0.2-8.4-0.2-8.4L153.6,176.1z
			"/>
		<path id="el051wj8zfc8d4" class="st6" d="M155.6,193.4c1.4,0.4,2.6,1.9,1.4,6.3c-0.7,2.6-1.1,2.8-1.1,2.8c-1.3,0.8-2.8,1-4.2,0.4
			c-2.1-1.9-4.2-6.4-2.2-8.4S154.4,193.1,155.6,193.4z"/>
		<path id="elk1ylyi8hf5b" class="st6" d="M155.9,202.5c0,0,6.3,34.8,6.6,37.6s-3.6,12.8-6,12.9s-7.1-9-7.2-11.5s2.4-38.6,2.4-38.6
			L155.9,202.5z"/>
		<path id="el66tzujoiqpm" class="st7" d="M151.7,203c1.4,0.6,3,0.4,4.2-0.4l0.1,0.6c-1.2,1-2.9,1.3-4.4,0.9L151.7,203z"/>
	</g>
	<path id="elo95e4atcvy" class="st7" d="M142.7,284.6v1.1c0,1.2,0.6,2.2,1.6,2.8l31,17.9c1,0.6,2.2,0.6,3.3,0l56.9-32.9
		c1-0.6,1.6-1.7,1.6-2.8V270L177,304.8L142.7,284.6z"/>
	<path id="eljvk55wi4gqp" class="st6" d="M237.2,270l-33.8-19.5c-0.6-0.4-1.3-0.4-1.9,0l-58.6,33.8c-0.2,0.1-0.3,0.4-0.2,0.6
		c0,0.1,0.1,0.1,0.2,0.2l34.1,19.7L237.2,270z"/>
	<polygon id="elwmyomuhqk3f" class="st5" points="176.7,301.9 158.5,291.4 211.7,260.6 230,271.1 	"/>
	<polygon id="ells9wsp6dr2" class="st5" points="167.7,272.7 168.1,272.9 177,278 192.9,268.9 193.2,268.7 183.9,263.3 	"/>
	<polygon id="elrriajwhuzd" class="st7" points="168.1,272.9 177,278 192.9,268.9 183.9,263.7 	"/>
	<path id="elnex2wvblur" class="st7" d="M177,304.8v2.2c0.6,0,1.1-0.1,1.6-0.4l56.9-32.9c1-0.6,1.6-1.7,1.6-2.8V270L177,304.8z"/>
	<path id="elxrgxsx6q0kl" class="st5" d="M177,304.8v2.2c0.6,0,1.1-0.1,1.6-0.4l56.9-32.9c1-0.6,1.6-1.7,1.6-2.8V270L177,304.8z"/>
	<path id="el0nwz0tig0xfa" class="st7" d="M177.9,305.2c1.1,0.4,2.3,0.3,3.3-0.3l56.7-32.7c1-0.6,1.7-1.6,1.9-2.7l6.2-37
		c0-0.2,0-0.4,0-0.6c0-1-0.4-2-1.1-2.7l-58.9,34c-0.7,0.4-1.2,1.2-1.4,2L177.9,305.2z"/>
	<path id="el3drekeho3e3" class="st6" d="M177,304.8l0.4,0.2c0.2,0.1,0.3,0.2,0.5,0.3l6.7-40c0.1-0.8,0.7-1.6,1.4-2l58.9-34
		c-0.2-0.2-0.5-0.4-0.8-0.6l-59,34.1c-0.7,0.4-1.2,1.2-1.4,2L177,304.8z"/>
	<path id="elg2j0c5g7oc" class="st2" d="M209.8,271.1c0.4-2.5,3-5.8,5.7-7.4s4.6-0.9,4.2,1.6s-3,5.8-5.7,7.4
		S209.4,273.5,209.8,271.1z"/>
	<path id="el3doprfh8gu6" class="st15" d="M147.3,277.9c-6.9-3-29.8-13.1-37-17.1s-8.4-6.7-8-11.4c1.2-11.9,3.7-41.4,6.1-50.3
		c2.1-7.8,5-13.8,16.1-15.7c3.4,3.5,3.8,20.8-1,28.4c-1.6,10.2-3.2,34.8-3.2,34.8s9.2,6.2,20.6,13.1c5,3,10.1,6.2,14.1,7.6
		c3.2,1.1,8.8,1.8,12.3,3.9c1.5,0.9,9,8.4,10.2,10.4s1.9,5.9-2.1,7.2c-3.7,1.2-6.6-0.4-9.6-2.4c-1.4-1-2.7-2.1-4-3.3
		c-3,0.3-6-0.3-8.6-1.7C151.1,280.1,147.3,277.9,147.3,277.9z"/>
	<path id="eljq3x5z9k26" class="st16" d="M126.7,183c0,0-10.6,0.7-15.1,6.8c-4.8,6.4-6.5,21.1-7.9,35.2s-2.1,25.9-1.5,29.5
		c0.5,3.1,1.7,4.7,9.7,8.7c6,2.9,26.5,10.9,26.5,10.9s1.8-8,6.2-12l-24.4-15.4l4.7-33.5c0,0,3.9-8.7,3.7-17.6S126.7,183,126.7,183z"
		/>
	<path id="eltheljhd5a2f" class="st17" d="M134.5,272.5c-0.2-4.4,1.9-8.9,5.9-13.3l12.1,6.9c-3.1,0.5-6.4,9.4-4.8,12.1L134.5,272.5z
		"/>
</g>
</svg>
