<?xml version="1.0" encoding="utf-8"?>
<!-- Generator: Adobe Illustrator 24.0.2, SVG Export Plug-In . SVG Version: 6.00 Build 0)  -->
<svg version="1.1" id="Capa_1" xmlns="http://www.w3.org/2000/svg" xmlns:xlink="http://www.w3.org/1999/xlink" x="0px" y="0px"
	 viewBox="0 0 179.6 179.5" style="enable-background:new 0 0 179.6 179.5;" xml:space="preserve">
<style type="text/css">
	.st0{fill:#FFAD9D;}
	.st1{fill:#E08880;}
	.st2{fill:#EC894B;}
	.st3{fill:#FFA655;}
	.st4{fill:none;stroke:#7F5E6A;stroke-width:1.83;stroke-miterlimit:10;}
	.st5{fill:none;stroke:#7F5E6A;stroke-miterlimit:10;}
	.st6{fill:#F1534F;}
	.st7{fill:#FF6A59;}
	.st8{fill:#FFFFFF;}
	.st9{fill:#352836;}
	.st10{fill:none;stroke:#7F5E6A;stroke-width:1.43;stroke-miterlimit:10;}
	.st11{fill:#9CC7DC;stroke:#7F5E6A;stroke-width:1.43;stroke-miterlimit:10;}
</style>
<title>profile1</title>
<g>
	<path class="st0" d="M111,120.9c-8.5-4.6-6.2-27-6.2-27l-12.7,0.8v-0.8l-1.4,0.4l-1.4-0.4v0.8l-12.7-0.8c0,0,2.3,22.4-6.2,27
		s-58.6,6.9-53.2,58.6h146.9C169.6,127.9,119.5,125.5,111,120.9z"/>
	<path class="st1" d="M74.9,115.2c10.2-1.5,20.3-3.1,30.4-4.7c-0.8-5.5-1-11-0.5-16.6l-12.7,0.8v-0.8l-1.4,0.4l-1.4-0.4v0.8
		l-12.7-0.8C76.7,93.9,78,106.9,74.9,115.2z"/>
	<path class="st2" d="M113.6,120.5c-4.2-2.3-5.8-9-6.3-15.2c-3.7,1.4-11.2,2.2-16,2.2c-5.8,0-13-1.2-17.1-3.2
		c-0.4,6.4-1.9,13.7-6.4,16.1c-8.5,4.7-57,7-51.6,59h147.9C169.6,127.5,122.2,125.2,113.6,120.5z"/>
	<path class="st3" d="M90.7,132.6c11.7,0,22.1-3.9,29.3-10c-2-0.5-4-1.1-5.9-2c-4.2-2.3-5.8-9-6.3-15.2c-3.7,1.4-11.2,2.2-16,2.2
		c-5.8,0-13-1.2-17.1-3.2c-0.4,6.4-1.9,13.7-6.4,16.1c-2.1,1-4.4,1.7-6.7,2.2C68.8,128.8,79.2,132.6,90.7,132.6z"/>
	<polyline class="st4" points="36.6,173.4 44.9,165.6 52.7,173.4 	"/>
	<polyline class="st4" points="129.4,173.1 138.8,165.6 146.6,173.4 	"/>
	<polyline class="st4" points="113.9,173.1 122.8,165.6 130.6,173.4 	"/>
	<polyline class="st4" points="99,173.4 107.2,165.6 115,173.4 	"/>
	<polyline class="st4" points="82.6,173.2 91.6,165.6 100.1,173.1 	"/>
	<polyline class="st4" points="67.8,173.4 76,165.6 83.8,173.4 	"/>
	<polyline class="st4" points="51.6,173.2 60.5,165.6 68.8,173.1 	"/>
	<polyline class="st5" points="36.6,165.7 44.9,157.9 52.7,165.7 	"/>
	<polyline class="st5" points="129.4,165.4 138.8,157.9 146.6,165.7 	"/>
	<polyline class="st5" points="113.9,165.4 122.8,157.9 130.6,165.7 	"/>
	<polyline class="st5" points="99,165.7 107.2,157.9 115,165.7 	"/>
	<polyline class="st5" points="82.6,165.5 91.6,157.9 100.1,165.5 	"/>
	<polyline class="st5" points="67.8,165.7 76,157.9 83.8,165.7 	"/>
	<polyline class="st5" points="51.6,165.5 60.5,157.9 68.8,165.4 	"/>
	<path class="st3" d="M39.1,160.8c0.1-9.4-1-18.7-3.4-27.8c-12,7.8-22,21.3-19.4,46.5h21.4C38.7,173.3,39.1,167.1,39.1,160.8z"/>
	<path class="st3" d="M144.6,132.6c-2.5,9.2-3.6,18.7-3.5,28.2c0,6.3,0.5,12.5,1.4,18.7h21.7C166.9,153.9,156.7,140.3,144.6,132.6z"
		/>
	<path class="st1" d="M65.9,61.2c-2.5-7.8-8.4-6-9-5.8s-6.7,1-5.6,9S57.1,77,61.5,75.7C66.1,75,68.4,69,65.9,61.2z"/>
	<path class="st1" d="M115.8,61.2c2.5-7.8,8.4-6,9-5.8s6.7,1,5.6,9c-1.1,8-5.8,12.6-10.2,11.3C115.7,75,113.3,69,115.8,61.2z"/>
	<path class="st0" d="M59.9,49.4c3.1-34,28.9-32.1,31.4-31.8c2.4-0.3,28.3-2.2,31.4,31.8c3.1,34.2-12.1,56.5-31.4,55.3
		C72,106,56.7,83.6,59.9,49.4z"/>
	<path class="st6" d="M58.6,25.6c0,0-7,4.5-2,20l3,17.5l2.5,0.5c0,0-1-26.5,7.5-32.5S58.6,25.6,58.6,25.6z"/>
	<path class="st7" d="M112.1,28.1c0,0-33.5,19.5-51.5,4s1-23.5,8.5-22.5c0,0-2.5-8.5,7.5-9.5s8,9,23,9s22.5,1,21,13.5
		c0,0,7.5-4.5,10,4s-7,36.5-7,36.5l-1,4.5h-2.5v-24C120.1,43.6,110.6,46.6,112.1,28.1z"/>
	<path class="st6" d="M130.6,26.6c-2.5-8.5-10-4-10-4c0.9-7.2-1.3-10.6-6.1-12.1c-0.9,7.2-3.5,14.2-7.5,20.2
		c3.1-1.5,5.1-2.6,5.1-2.6c-1.5,18.5,8,15.5,8,15.5v24h2.5l1-4.5C123.6,63.1,133.1,35.1,130.6,26.6z"/>
	<path class="st1" d="M95.7,53.4c0.4,1.6,0.8,3.1,1.1,4.7s0.5,3.2,0.8,4.7c0.1,0.8,0.2,1.6,0.3,2.4s0.2,1.6,0.3,2.4
		c0.2,1.6,0.3,3.2,0.4,4.8v0.4L98.2,73c-1,0.6-2,1.2-3.1,1.8s-2.1,1.1-3.2,1.7c0.9-0.8,1.8-1.6,2.7-2.4s1.9-1.5,2.8-2.2l-0.3,0.6
		c-0.3-1.6-0.5-3.2-0.7-4.8c-0.1-0.8-0.2-1.6-0.3-2.4s-0.2-1.6-0.2-2.4c-0.1-1.6-0.2-3.2-0.3-4.8S95.6,55,95.7,53.4z"/>
	<path class="st8" d="M104.4,82.6c-6.2,6-16.6,5.7-24.5,0.3"/>
	<path class="st9" d="M115.6,50.9l-0.7-0.4l-0.8-0.5l-1-0.6c-0.4-0.2-0.8-0.4-1.2-0.6l-0.7-0.3l-0.7-0.3c-0.5-0.2-1-0.3-1.4-0.5
		c-0.5-0.1-1-0.2-1.5-0.2l-0.7-0.1c-0.3,0-0.5,0-0.7,0c-0.5,0-1,0.1-1.4,0.2c-0.5,0.1-0.9,0.3-1.3,0.4l-0.3,0.1l-0.3,0.2l-0.8,0.5
		c-0.4,0.1-0.7,0.3-1.1,0.5c-0.3,0.2-0.6,0.3-0.8,0.5c-0.5,0.3-0.8,0.4-0.8,0.4s0.1-0.3,0.4-0.8c0.1-0.2,0.3-0.5,0.5-0.8
		c0.2-0.4,0.5-0.7,0.8-1c0.3-0.4,0.7-0.8,1.1-1.1c0.5-0.3,1-0.7,1.6-0.9c0.3-0.1,0.6-0.2,0.9-0.3s0.7-0.2,1-0.2s0.7-0.1,1-0.1
		s0.7,0,1,0c0.7,0.1,1.3,0.2,2,0.4c0.3,0.1,0.6,0.3,0.9,0.4c0.3,0.1,0.6,0.3,0.8,0.4l0.8,0.5l0.7,0.5c0.3,0.4,0.7,0.8,1,1.2
		c0.5,0.6,0.9,1.2,1.3,1.8C115.4,50.4,115.5,50.6,115.6,50.9z"/>
	<path class="st9" d="M83.4,50.9l-0.7-0.4L81.9,50l-1-0.6c-0.4-0.2-0.8-0.4-1.2-0.6l-0.8-0.3l-0.7-0.3c-0.5-0.2-1-0.3-1.4-0.5
		c-0.5-0.1-1-0.2-1.5-0.2l-0.7-0.1c-0.2,0-0.5,0-0.7,0c-0.5,0-1,0.1-1.4,0.2c-0.5,0.1-0.9,0.3-1.3,0.4l-0.3,0.1l-0.3,0.2L70,48.6
		c-0.3,0.1-0.7,0.3-1,0.5c-0.3,0.2-0.6,0.3-0.8,0.5c-0.5,0.3-0.8,0.4-0.8,0.4c0.1-0.3,0.2-0.5,0.4-0.8c0.1-0.2,0.3-0.5,0.5-0.8
		c0.2-0.4,0.5-0.7,0.8-1c0.3-0.4,0.7-0.8,1.2-1.1c0.5-0.4,1-0.7,1.5-0.9c0.3-0.1,0.6-0.2,0.9-0.3s0.7-0.2,1-0.2s0.7-0.1,1-0.1
		s0.7,0,1,0c0.7,0.1,1.3,0.2,2,0.4c0.3,0.1,0.6,0.3,0.9,0.4c0.3,0.1,0.6,0.3,0.8,0.4c0.3,0.2,0.5,0.3,0.8,0.5l0.7,0.5
		c1,0.8,1.8,1.8,2.4,2.9C83.3,50.3,83.3,50.6,83.4,50.9z"/>
	<path class="st10" d="M57.2,54.5l8.7,6.7l21.8,0.7c0,0,5.6-7.9,10.3,0h22.5l6.8-6.3"/>
	<circle class="st11" cx="76.5" cy="61.9" r="11.3"/>
	<circle class="st11" cx="109.4" cy="61.9" r="11.3"/>
	<path class="st9" d="M82.4,63.2c0,0-0.1-0.3-0.2-0.7c-0.2-0.6-0.5-1.2-0.8-1.8c-0.4-0.8-1-1.5-1.7-2c-0.4-0.3-0.8-0.5-1.3-0.7
		c-0.2-0.1-0.5-0.1-0.7-0.2c-0.2,0-0.5-0.1-0.8-0.1c-0.2,0-0.5,0-0.7,0c-0.3,0-0.5,0.1-0.8,0.1c-0.4,0.1-0.9,0.3-1.2,0.6
		c-0.4,0.3-0.7,0.6-0.9,1c-0.2,0.4-0.4,0.7-0.6,1.1c-0.2,0.6-0.4,1.3-0.5,1.9c-0.1,0.3-0.1,0.5-0.1,0.8C72,62.9,72,62.7,72,62.4
		c-0.1-0.7,0-1.4,0.1-2.1c0.1-0.5,0.3-0.9,0.5-1.4c0.5-1.1,1.5-1.9,2.7-2.2c0.3-0.1,0.6-0.1,0.8-0.2c0.3,0,0.6,0,0.9,0
		s0.6,0,0.9,0.1c0.3,0,0.6,0.1,0.9,0.2c0.3,0.1,0.6,0.2,0.8,0.4c0.3,0.2,0.5,0.3,0.7,0.5c0.8,0.7,1.3,1.6,1.6,2.6
		c0.2,0.6,0.3,1.3,0.4,2C82.4,62.7,82.4,63,82.4,63.2z"/>
	<path class="st9" d="M111.3,62.8c0,0-0.1-0.3-0.2-0.7c-0.2-0.6-0.5-1.2-0.8-1.8c-0.4-0.8-1-1.5-1.7-2c-0.4-0.3-0.8-0.5-1.3-0.6
		c-0.2-0.1-0.5-0.2-0.7-0.2s-0.5-0.1-0.8,0c-0.2,0-0.5,0-0.7,0c-0.3,0-0.5,0.1-0.8,0.1c-0.4,0.1-0.9,0.3-1.2,0.6
		c-0.4,0.3-0.7,0.6-0.9,1c-0.2,0.4-0.4,0.7-0.6,1.1c-0.2,0.6-0.4,1.2-0.5,1.9c0,0.3,0,0.6,0,0.6c-0.1-0.2-0.1-0.5-0.2-0.8
		c-0.1-0.7,0-1.4,0.1-2.1c0.1-0.5,0.2-0.9,0.5-1.4c0.5-1.1,1.5-1.9,2.7-2.2c0.3-0.1,0.6-0.1,0.8-0.2c0.3,0,0.7,0,1,0s0.6,0,0.9,0.1
		c0.3,0,0.6,0.1,0.9,0.2c0.3,0.1,0.6,0.2,0.8,0.4c0.3,0.1,0.5,0.3,0.7,0.5c0.7,0.7,1.3,1.6,1.6,2.5c0.2,0.6,0.3,1.3,0.4,2
		C111.3,62.2,111.3,62.5,111.3,62.8z"/>
</g>
</svg>
