<?xml version="1.0" encoding="utf-8"?>
<!-- Generator: Adobe Illustrator 24.0.2, SVG Export Plug-In . SVG Version: 6.00 Build 0)  -->
<svg version="1.1" id="Capa_1" xmlns="http://www.w3.org/2000/svg" xmlns:xlink="http://www.w3.org/1999/xlink" x="0px" y="0px"
	 viewBox="0 0 176.3 176.5" style="enable-background:new 0 0 176.3 176.5;" xml:space="preserve">
<style type="text/css">
	.st0{fill:#FF9C7B;}
	.st1{fill:#D97E65;}
	.st2{fill:#FF6A59;}
	.st3{fill:#F1534F;}
	.st4{fill:#7F5E6A;}
	.st5{fill:#987381;}
	.st6{fill:#B26651;}
	.st7{fill:#FFFFFF;}
	.st8{fill:#352836;}
	.st9{fill:#FFFFFF;stroke:#000000;stroke-miterlimit:10;}
</style>
<title>profile3</title>
<g>
	<path class="st0" d="M108.6,117.9c-8.5-4.6-6.2-27-6.2-27l-12.7,0.8v-0.8l-1.4,0.4L87,90.9v0.8l-12.6-0.8c0,0,2.3,22.4-6.2,27
		S9.6,124.8,15,176.5h146.8C167.2,124.8,117.1,122.5,108.6,117.9z"/>
	<path class="st1" d="M72.6,112.1c10.2-1.5,20.3-3.1,30.4-4.7c-0.8-5.5-1-11-0.5-16.5l-12.7,0.8v-0.8l-1.4,0.4L87,90.9v0.8
		l-12.6-0.8C74.4,90.9,75.7,103.9,72.6,112.1z"/>
	<path class="st2" d="M116.8,120.5c-6.9,6.2-17,10.1-28.4,10.1s-21.5-3.9-28.4-10.1c-16.7,4.5-49.5,13.7-45.1,56h146.9
		C166.3,134.2,133.5,125,116.8,120.5z"/>
	<path class="st3" d="M14.6,167.7c-0.1,2.9,0.1,5.9,0.4,8.8h146.9c1.9-18.4-3.2-30.5-10.9-38.7C105.1,145.8,59.7,156.2,14.6,167.7z"
		/>
	<path class="st4" d="M57.8,118.5l8.7,58H11.1C11.1,176.5,5.1,127.2,57.8,118.5z"/>
	<path class="st5" d="M57.8,118.5l8.7,58l-23.3-36.7l9.3-12.7l-12-4.7C45.9,120.2,51.8,118.8,57.8,118.5z"/>
	<path class="st4" d="M118.6,118.5l-8.7,58h55.3C165.2,176.5,171.2,127.2,118.6,118.5z"/>
	<path class="st5" d="M118.6,118.5l-8.7,58l23.3-36.7l-9.3-12.7l12-4.7C130.4,120.2,124.5,118.8,118.6,118.5z"/>
	<path class="st1" d="M63.6,58.1c-2.5-7.8-8.4-6-9-5.8s-6.7,1-5.6,9s5.8,12.5,10.2,11.2C63.7,71.9,66.1,65.9,63.6,58.1z"/>
	<path class="st1" d="M113.5,58.1c2.5-7.8,8.4-6,9-5.8s6.7,1,5.6,9s-5.8,12.5-10.2,11.2C113.4,71.9,111,65.9,113.5,58.1z"/>
	<path class="st0" d="M57.5,46.4c3.1-34,28.9-32.1,31.4-31.8c2.4-0.3,28.3-2.2,31.4,31.8c3.1,34.2-12.1,56.5-31.4,55.3
		C69.6,102.9,54.4,80.6,57.5,46.4z"/>
	<path class="st6" d="M93.4,50.4c0.4,1.6,0.8,3.1,1.1,4.7s0.5,3.2,0.8,4.7c0.1,0.8,0.2,1.6,0.3,2.4s0.2,1.6,0.3,2.4
		c0.2,1.6,0.3,3.2,0.4,4.8v0.4L95.8,70c-1,0.6-2,1.2-3.1,1.8c-1,0.6-2.1,1.2-3.2,1.7c0.8-0.8,1.8-1.6,2.7-2.4s1.9-1.5,2.8-2.2
		l-0.3,0.6c-0.3-1.6-0.5-3.2-0.7-4.8c-0.1-0.8-0.2-1.6-0.3-2.4s-0.2-1.6-0.2-2.4c-0.1-1.6-0.2-3.2-0.3-4.8S93.3,52,93.4,50.4z"/>
	<path class="st7" d="M102.1,79.6c-6.2,6-15.7,5.6-23.6,0.3"/>
	<path class="st8" d="M113.2,47.9l-3-1.1c-0.4-0.1-0.9-0.3-1.3-0.5c-0.2-0.1-0.5-0.2-0.7-0.2s-0.5-0.1-0.7-0.2
		c-0.5-0.2-1-0.2-1.5-0.4s-1-0.2-1.5-0.2l-0.7-0.1c-0.2,0-0.5,0-0.7,0c-0.5,0-0.9,0.1-1.4,0.1c-0.2,0-0.5,0.1-0.7,0.1l-0.7,0.2
		c-0.4,0.1-0.9,0.2-1.3,0.4c-0.4,0.1-0.8,0.2-1.2,0.4c-0.3,0.2-0.7,0.3-0.9,0.4c-0.5,0.2-0.9,0.3-0.9,0.3c0.1-0.3,0.2-0.6,0.3-0.9
		c0.1-0.3,0.3-0.7,0.5-1c0.2-0.4,0.5-0.8,0.8-1.1c0.4-0.4,0.8-0.8,1.3-1.1c0.5-0.4,1.1-0.7,1.7-1c0.3-0.1,0.7-0.3,1-0.4
		c0.3-0.1,0.7-0.2,1.1-0.3c0.4,0,0.7-0.1,1.1-0.2h1.1c0.7,0.1,1.5,0.2,2.2,0.4c0.3,0.1,0.7,0.3,1,0.4c0.3,0.1,0.6,0.3,0.9,0.5
		c0.3,0.2,0.6,0.3,0.8,0.5s0.5,0.4,0.7,0.6c0.4,0.4,0.8,0.8,1.2,1.2c0.5,0.6,1,1.3,1.3,2.1C113.1,47.3,113.2,47.6,113.2,47.9z"/>
	<path class="st8" d="M84.2,47.2l-3.1-0.9c-0.5-0.1-0.9-0.3-1.4-0.4s-1-0.2-1.5-0.3s-1-0.2-1.6-0.3c-0.5-0.1-1-0.1-1.5-0.1h-0.8
		c-0.3,0-0.5,0.1-0.8,0.1c-0.5,0-1,0.1-1.5,0.2c-0.2,0-0.5,0.1-0.7,0.2c-0.2,0.1-0.5,0.2-0.7,0.2c-0.4,0.1-0.9,0.3-1.3,0.5
		c-0.4,0.1-0.8,0.3-1.2,0.5c-0.3,0.2-0.7,0.3-0.9,0.4c-0.5,0.2-0.9,0.3-0.9,0.3c0.1-0.3,0.2-0.6,0.3-0.9c0.1-0.3,0.3-0.6,0.5-1
		c0.2-0.4,0.5-0.8,0.8-1.2c0.3-0.5,0.8-0.9,1.2-1.3c0.2-0.2,0.5-0.4,0.8-0.6c0.3-0.2,0.6-0.4,0.9-0.5c0.6-0.3,1.3-0.6,2-0.8
		c0.4-0.1,0.7-0.2,1.1-0.2s0.8,0,1.1,0c0.8,0,1.5,0.1,2.2,0.3c0.3,0.1,0.7,0.2,1,0.3c0.3,0.1,0.7,0.2,1,0.4c0.6,0.3,1.1,0.6,1.7,1
		c0.5,0.3,0.9,0.7,1.3,1.1c0.6,0.6,1.1,1.3,1.5,2C84,46.6,84.1,46.9,84.2,47.2z"/>
	<path class="st8" d="M80,60.2c0,0-0.1-0.3-0.2-0.7c-0.2-0.6-0.5-1.2-0.8-1.8c-0.4-0.8-1-1.5-1.7-2c-0.4-0.3-0.8-0.5-1.3-0.7
		c-0.2-0.1-0.5-0.1-0.7-0.2c-0.2,0-0.5-0.1-0.8-0.1c-0.2,0-0.5,0-0.7,0c-0.3,0-0.5,0.1-0.8,0.1c-0.4,0.1-0.9,0.3-1.2,0.6
		c-0.4,0.3-0.7,0.6-0.9,1c-0.2,0.3-0.4,0.7-0.6,1.1c-0.2,0.6-0.4,1.3-0.5,1.9c-0.1,0.3-0.1,0.5-0.1,0.8c-0.1-0.3-0.1-0.5-0.1-0.8
		c-0.1-0.7,0-1.4,0.1-2.1c0.1-0.5,0.3-0.9,0.5-1.4c0.2-0.5,0.6-1,1-1.3c0.5-0.4,1-0.7,1.6-0.9c0.3-0.1,0.6-0.1,0.8-0.2
		c0.3,0,0.6,0,0.9,0c0.3,0,0.6,0,0.9,0.1c0.3,0,0.6,0.1,0.9,0.2c0.3,0.1,0.6,0.2,0.8,0.4c0.3,0.2,0.5,0.3,0.7,0.5
		c0.8,0.7,1.3,1.6,1.6,2.6c0.2,0.6,0.3,1.3,0.4,2C80,59.7,80,59.9,80,60.2z"/>
	<path class="st8" d="M109,59.7c0,0-0.1-0.3-0.2-0.7c-0.2-0.6-0.5-1.2-0.8-1.8c-0.4-0.8-1-1.5-1.7-2c-0.4-0.3-0.8-0.5-1.3-0.7
		c-0.2-0.1-0.5-0.2-0.7-0.2c-0.2-0.1-0.5-0.1-0.7-0.1c-0.2,0-0.5,0-0.7,0c-0.3,0-0.5,0.1-0.8,0.1c-0.4,0.1-0.9,0.3-1.2,0.6
		c-0.4,0.3-0.7,0.6-0.9,1c-0.2,0.4-0.4,0.7-0.5,1.2c-0.2,0.6-0.4,1.3-0.5,1.9c-0.1,0.5-0.1,0.8-0.1,0.8c-0.1-0.3-0.1-0.5-0.1-0.8
		c-0.1-0.7,0-1.4,0.1-2.1c0.1-0.5,0.2-0.9,0.5-1.4c0.5-1.1,1.5-1.9,2.7-2.2c0.3-0.1,0.6-0.1,0.8-0.2c0.3,0,0.7,0,1,0
		c0.3,0,0.6,0,0.9,0.1c0.3,0,0.6,0.1,0.9,0.2c0.3,0.1,0.6,0.2,0.8,0.4c0.3,0.1,0.5,0.3,0.7,0.5c0.8,0.7,1.3,1.6,1.6,2.6
		c0.2,0.7,0.4,1.4,0.4,2C109,59.3,109,59.5,109,59.7z"/>
	<path class="st8" d="M73.4,79.5h16l16.7,0.3c0,0-3.9-7-16.6-6.4S75.8,77.2,73.4,79.5z"/>
	<path class="st8" d="M69.1,24.2c0,0,13,16.7,31.7,13.7l-4.3-6c0,0,11.3,5.3,30.3,0.3c0,0,1.3-20.7-31-25.3c0,0,15.3,1.3,26,7.7
		c0,0-31.3-32.7-57,0c0,0-14.7,0.3-15.3,16.7s3.3,22.3,3.3,22.3s3.3-2.7,4.3,3s0,14.3,3.7,22.3l6-4.3c0,0-7.7-18-6-33
		C60.8,41.5,70.4,39.5,69.1,24.2z"/>
	<path class="st8" d="M122.1,29.2c0,0,4.3,36.7-6,51.3l-4-5c6.8-13.7,7.8-29.6,2.7-44L122.1,29.2z"/>
</g>
<rect x="-272.2" y="-126.5" class="st9" width="176.8" height="176.8"/>
</svg>
