<?xml version="1.0" encoding="utf-8"?>
<!-- Generator: Adobe Illustrator 24.0.2, SVG Export Plug-In . SVG Version: 6.00 Build 0)  -->
<svg version="1.1" id="Capa_1" xmlns="http://www.w3.org/2000/svg" xmlns:xlink="http://www.w3.org/1999/xlink" x="0px" y="0px"
	 viewBox="0 0 175.5 174.2" style="enable-background:new 0 0 175.5 174.2;" xml:space="preserve">
<style type="text/css">
	.st0{fill:#FFAD9D;}
	.st1{fill:#E08880;}
	.st2{fill:#5996BF;}
	.st3{clip-path:url(#SVGID_2_);}
	.st4{fill:#352836;}
	.st5{fill:#DCB9A2;}
	.st6{fill:none;stroke:#7F5E6A;stroke-width:1.43;stroke-miterlimit:10;}
	.st7{fill:#9CC7DC;stroke:#7F5E6A;stroke-width:1.34;stroke-miterlimit:10;}
	.st8{fill:#FFFFFF;}
	.st9{fill:#FFDEBF;}
</style>
<g>
	<title>profile2</title>
	<path class="st0" d="M107.4,115.6c-8.5-4.6-6.2-27-6.2-27l-12.7,0.8v-0.8L87.2,89l-1.4-0.4v0.8l-12.7-0.8c0,0,2.3,22.4-6.2,27
		s-58.6,6.9-53.2,58.6h146.9C166,122.5,115.9,120.2,107.4,115.6z"/>
	<path class="st1" d="M71.3,109.8c10.2-1.5,20.3-3.1,30.4-4.7c-0.8-5.5-1-11-0.5-16.5l-12.7,0.8v-0.8L87.2,89l-1.4-0.4v0.8
		l-12.7-0.8C73.1,88.6,74.4,101.6,71.3,109.8z"/>
	<path class="st2" d="M112.8,116.6c-5.9,6.1-15.2,10-25.7,10s-19.7-3.9-25.7-10c-15.5,4.3-53.6,11.9-48.8,57.7h149
		C166.4,128.5,128.3,120.9,112.8,116.6z"/>
	<g>
		<defs>
			<path id="SVGID_1_" d="M112.8,116.6c-5.9,6.1-15.2,10-25.7,10s-19.7-3.9-25.7-10c-15.5,4.3-53.6,11.9-48.8,57.7h149
				C166.4,128.5,128.3,120.9,112.8,116.6z"/>
		</defs>
		<clipPath id="SVGID_2_">
			<use xlink:href="#SVGID_1_"  style="overflow:visible;"/>
		</clipPath>
		<g class="st3">
			<path class="st4" d="M132,120.6l3.5,5.2l0.5,0.7l0.3-0.5l-6.6,1.4l-0.9,0.2l0.5,0.4l3.1-6.6l0.4-0.9c0.2-0.4-0.7-0.5-0.8-0.1
				l-3.1,6.6l-0.4,0.9c-0.2,0.3,0.3,0.4,0.5,0.4l6.6-1.4l0.9-0.2c0.2,0,0.5-0.3,0.3-0.5l-3.4-5.2l-0.5-0.7
				C132.6,119.8,131.7,120.2,132,120.6z"/>
			<path class="st4" d="M117.3,120.5l3.4,5.2l0.5,0.7l0.4-0.3l-6.6,1.4l-0.9,0.2l0.5,0.1l3.1-6.6l0.4-0.9c0.1-0.2-0.3-0.2-0.4-0.1
				c-0.2,0-0.4,0.1-0.5,0.3l-3.1,6.6l-0.4,0.9c-0.1,0.2,0.4,0.1,0.5,0.1l6.6-1.4l0.9-0.2c0.1,0,0.5-0.2,0.4-0.3l-3.4-5.1l-0.5-0.7
				C118,120,117.2,120.3,117.3,120.5z"/>
			<path class="st4" d="M102.7,120.5l3.4,5.2l0.5,0.7l0.3-0.4l-6.6,1.4l-0.9,0.2l0.5,0.2l3.1-6.6l0.4-0.9c0.1-0.2-0.3-0.2-0.4-0.2
				c-0.2,0-0.4,0.1-0.5,0.3l-3.1,6.6l-0.4,0.9c-0.1,0.2,0.4,0.2,0.5,0.2l6.6-1.4l0.9-0.2c0.1,0,0.5-0.2,0.3-0.4L104,121l-0.5-0.7
				C103.4,120,102.5,120.2,102.7,120.5z"/>
			<path class="st4" d="M88.1,120.5l3.4,5.2l0.5,0.7l0.5-0.3l-6.6,1.4l-0.9,0.2l0.4,0.1l3.1-6.6l0.4-0.9
				C89,120.1,88.2,120.2,88.1,120.5l-3.1,6.5l-0.4,0.9c-0.1,0.2,0.3,0.1,0.4,0.1l6.6-1.4l0.9-0.2c0,0,0.6-0.2,0.5-0.3l-3.4-5.2
				l-0.5-0.7C88.8,120,88,120.4,88.1,120.5z"/>
			<path class="st4" d="M73.5,120.5l3.4,5.2l0.5,0.7l0.3-0.4l-6.6,1.4l-0.9,0.2l0.5,0.1l3.1-6.6l0.4-0.9c0.1-0.2-0.3-0.2-0.4-0.2
				C73.7,120.1,73.5,120.3,73.5,120.5l-3.1,6.4l-0.4,0.9c-0.1,0.2,0.4,0.2,0.5,0.1l6.6-1.4l0.9-0.2c0.1,0,0.5-0.2,0.3-0.4l-3.4-5.1
				l-0.5-0.7C74.1,120,73.3,120.3,73.5,120.5z"/>
			<path class="st4" d="M58.8,120.6l3.5,5.2l0.5,0.7l0.3-0.4l-6.5,1.4l-0.9,0.2l0.5,0.3l3.1-6.6l0.4-0.9c0.2-0.4-0.7-0.4-0.8-0.1
				l-3.1,6.6l-0.4,0.9c-0.2,0.3,0.3,0.3,0.5,0.3l6.6-1.4l0.9-0.2c0.2,0,0.5-0.2,0.3-0.4l-3.5-5.2l-0.5-0.7
				C59.4,119.9,58.6,120.2,58.8,120.6z"/>
			<path class="st4" d="M44.2,120.5l3.5,5.2l0.5,0.7l0.5-0.3l-6.5,1.4l-0.9,0.2l0.4,0.1l3.1-6.6l0.4-0.9
				C45.1,120.1,44.3,120.2,44.2,120.5l-3.1,6.5l-0.4,0.9c-0.1,0.2,0.3,0.1,0.4,0.1l6.6-1.4l0.9-0.2c0,0,0.6-0.2,0.5-0.3l-3.5-5.2
				l-0.5-0.7C44.9,120,44.1,120.3,44.2,120.5z"/>
			<path class="st4" d="M29.6,120.6l3.4,5.2l0.5,0.7l0.3-0.5l-6.5,1.4l-0.9,0.2l0.5,0.4l3.1-6.6l0.4-0.9c0.2-0.5-0.7-0.5-0.8-0.1
				l-3.1,6.6l-0.4,0.9c-0.2,0.3,0.3,0.4,0.5,0.4l6.6-1.4l0.9-0.2c0.2,0,0.5-0.3,0.3-0.5l-3.5-5.2l-0.5-0.7
				C30.1,119.8,29.3,120.2,29.6,120.6z"/>
			<path class="st4" d="M14.9,120.5l3.5,5.2l0.5,0.7l0.3-0.4l-6.5,1.4l-0.9,0.2l0.5,0.1l3.1-6.6l0.4-0.9c0.1-0.2-0.3-0.2-0.4-0.2
				C15.2,120.2,15,120.3,14.9,120.5l-3.1,6.4l-0.4,0.9c-0.1,0.2,0.4,0.1,0.5,0.1l6.6-1.4l0.9-0.2c0.1,0,0.5-0.2,0.4-0.4l-3.5-5.1
				l-0.5-0.7C15.6,120,14.8,120.3,14.9,120.5z"/>
			<path class="st4" d="M146.6,120.5l3.4,5.2l0.5,0.7l0.5-0.3l-6.6,1.4l-0.9,0.2l0.4,0.1l3.1-6.6l0.4-0.9c0.1-0.1-0.3-0.1-0.3-0.1
				S146.7,120.3,146.6,120.5l-3.1,6.5l-0.4,0.9c-0.1,0.1,0.3,0.1,0.3,0.1l6.6-1.4l0.9-0.2c0,0,0.6-0.2,0.5-0.3l-3.4-5.2l-0.5-0.7
				C147.3,120.1,146.5,120.4,146.6,120.5z"/>
			<path class="st4" d="M140.5,133.2l3.4,5.2l0.5,0.7l0.4-0.4l-6.6,1.4l-0.9,0.2l0.5,0.2l3.1-6.6l0.4-0.9c0.2-0.4-0.7-0.3-0.8,0
				l-3.1,6.6l-0.4,0.9c-0.1,0.3,0.3,0.3,0.5,0.2l6.6-1.4l0.9-0.2c0.1,0,0.5-0.2,0.4-0.4l-3.4-5.2l-0.5-0.7
				C141.2,132.6,140.3,132.9,140.5,133.2z"/>
			<path class="st4" d="M125.9,133.2l3.5,5.2l0.5,0.7l0.4-0.4l-6.6,1.4l-0.9,0.2l0.5,0.1l3.1-6.6l0.5-0.9c0.1-0.2-0.3-0.2-0.4-0.2
				C126.2,132.8,126,132.9,125.9,133.2l-3.1,6.5l-0.4,0.9c-0.1,0.2,0.4,0.1,0.5,0.1l6.6-1.4l0.9-0.2c0.1,0,0.5-0.2,0.4-0.4l-3.4-5.2
				l-0.5-0.7C126.6,132.6,125.7,132.9,125.9,133.2z"/>
			<path class="st4" d="M111.3,133.2l3.4,5.2l0.5,0.7l0.3-0.4l-6.6,1.4l-0.9,0.2l0.5,0.1l3.1-6.6l0.4-0.9c0.1-0.2-0.3-0.2-0.4-0.2
				C111.5,132.8,111.4,132.9,111.3,133.2l-3.1,6.5l-0.4,0.9c-0.1,0.2,0.4,0.1,0.5,0.1l6.6-1.4l0.9-0.2c0.1,0,0.5-0.2,0.4-0.4
				l-3.5-5.2l-0.5-0.7C111.9,132.6,111.1,132.9,111.3,133.2z"/>
			<path class="st4" d="M96.6,133.1l3.4,5.2l0.5,0.7l0.5-0.3l-6.6,1.4l-0.9,0.2l0.4,0.1l3.1-6.6l0.4-0.9
				C97.6,132.7,96.7,132.8,96.6,133.1l-3.1,6.5l-0.4,0.9c-0.1,0.2,0.3,0.1,0.4,0.1l6.6-1.4l0.9-0.2c0,0,0.6-0.2,0.5-0.3l-3.4-5.2
				l-0.5-0.7C97.3,132.6,96.5,133,96.6,133.1z"/>
			<path class="st4" d="M82,133.2l3.4,5.2l0.5,0.7l0.3-0.4l-6.5,1.4l-0.9,0.2l0.5,0.2l3.1-6.5l0.4-1c0.2-0.4-0.7-0.3-0.8,0l-3.1,6.6
				l-0.4,0.9c-0.1,0.3,0.3,0.3,0.5,0.3l6.6-1.4l0.9-0.2c0.2,0,0.5-0.2,0.3-0.4l-3.4-5.2l-0.5-0.7C82.7,132.6,81.8,132.9,82,133.2z"
				/>
			<path class="st4" d="M67.4,133.2l3.4,5.2l0.5,0.7l0.3-0.5l-6.5,1.4l-0.9,0.2l0.5,0.3l3.1-6.5l0.4-0.9c0.2-0.4-0.7-0.4-0.8-0.1
				l-3.1,6.6l-0.4,0.9c-0.2,0.3,0.3,0.4,0.5,0.3l6.6-1.4l0.9-0.2c0.2,0,0.5-0.3,0.3-0.5l-3.4-5.2l-0.5-0.7
				C68,132.5,67.1,132.8,67.4,133.2z"/>
			<path class="st4" d="M52.7,133.1l3.5,5.2l0.5,0.7l0.5-0.3l-6.6,1.4l-0.9,0.2l0.4,0.1l3.1-6.6l0.4-0.9
				C53.7,132.7,52.8,132.8,52.7,133.1l-3.1,6.5l-0.4,0.9c-0.1,0.2,0.3,0.1,0.4,0.1l6.5-1.4l0.9-0.2c0,0,0.6-0.2,0.5-0.3l-3.5-5.2
				l-0.5-0.7C53.4,132.6,52.6,133,52.7,133.1z"/>
			<path class="st4" d="M38.1,133.2l3.5,5.2l0.5,0.7l0.3-0.4l-6.6,1.4l-0.9,0.2l0.5,0.1l3.1-6.6l0.4-0.9c0.1-0.2-0.3-0.2-0.4-0.2
				c-0.2,0-0.4,0.1-0.5,0.3l-3.1,6.6l-0.4,0.9c-0.1,0.2,0.4,0.2,0.5,0.2l6.6-1.4l0.9-0.2c0.1,0,0.5-0.2,0.3-0.4l-3.5-5.2l-0.5-0.7
				C38.8,132.6,37.9,132.9,38.1,133.2z"/>
			<path class="st4" d="M23.5,133.1l3.4,5.2l0.5,0.7l0.5-0.3l-6.5,1.4l-0.9,0.2l0.4,0.1l3.1-6.6l0.4-0.9
				C24.4,132.8,23.6,132.8,23.5,133.1l-3.1,6.5l-0.4,0.9c-0.1,0.1,0.3,0.1,0.4,0.1l6.5-1.4l0.9-0.2c0,0,0.6-0.2,0.5-0.3l-3.4-5.2
				l-0.5-0.7C24.2,132.7,23.4,133,23.5,133.1z"/>
			<path class="st4" d="M155.2,133.2l3.4,5.2l0.5,0.7l0.3-0.4l-6.6,1.3l-0.9,0.2l0.5,0.3l3.1-6.6l0.4-0.9c0.2-0.4-0.7-0.4-0.8-0.1
				l-3.1,6.6l-0.4,0.9c-0.1,0.3,0.3,0.3,0.5,0.3l6.6-1.4l0.9-0.2c0.2,0,0.5-0.2,0.3-0.4l-3.4-5.2l-0.5-0.7
				C155.8,132.5,154.9,132.8,155.2,133.2z"/>
			<path class="st4" d="M132,145.8l3.4,5.2l0.5,0.7l0.4-0.4l-6.6,1.4l-0.9,0.2l0.5,0.1l3.1-6.6l0.4-0.9c0.1-0.2-0.3-0.2-0.4-0.2
				c-0.2,0-0.4,0.1-0.5,0.3l-3.1,6.6l-0.4,0.9c-0.1,0.2,0.4,0.2,0.5,0.1l6.6-1.4l0.9-0.2c0.1,0,0.5-0.2,0.3-0.4l-3.4-5.2l-0.5-0.7
				C132.6,145.2,131.8,145.5,132,145.8z"/>
			<path class="st4" d="M117.3,145.7l3.5,5.2l0.5,0.7l0.5-0.3l-6.6,1.4l-0.9,0.2l0.3,0.1l3.1-6.6l0.4-0.9c0.1-0.1-0.3-0.1-0.3-0.1
				S117.4,145.6,117.3,145.7l-3.1,6.5l-0.4,0.9c-0.1,0.1,0.3,0.1,0.3,0.1l6.6-1.4l0.9-0.2c0,0,0.6-0.1,0.5-0.3l-3.4-5.2l-0.5-0.7
				C118.1,145.3,117.3,145.7,117.3,145.7z"/>
			<path class="st4" d="M102.7,145.7l3.4,5.2l0.5,0.7l0.5-0.3l-6.6,1.4l-0.9,0.2l0.3,0.1l3.1-6.6l0.4-0.9
				C103.6,145.4,102.8,145.5,102.7,145.7l-3.1,6.5l-0.4,0.9c-0.1,0.1,0.3,0.1,0.3,0.1l6.6-1.4l0.9-0.2c0,0,0.6-0.2,0.5-0.3l-3.5-5.2
				l-0.5-0.7C103.4,145.3,102.6,145.6,102.7,145.7z"/>
			<path class="st4" d="M88.1,145.8l3.4,5.2l0.5,0.7l0.5-0.4l-6.6,1.4l-0.9,0.2l0.4,0.1l3.1-6.6l0.4-0.9c0.1-0.2-0.3-0.1-0.4-0.1
				S88.1,145.5,88.1,145.8l-3.1,6.5l-0.4,0.9c-0.1,0.2,0.3,0.1,0.4,0.1l6.6-1.4l0.9-0.2c0.1,0,0.6-0.1,0.5-0.4l-3.5-5.2l-0.5-0.7
				C88.8,145.3,87.9,145.5,88.1,145.8z"/>
			<path class="st4" d="M73.4,145.7l3.4,5.2l0.5,0.7l0.5-0.3l-6.6,1.4l-0.9,0.2l0.3,0.1l3.1-6.6l0.4-0.9
				C74.3,145.4,73.5,145.5,73.4,145.7l-3.1,6.5l-0.4,0.9c-0.1,0.1,0.3,0.1,0.3,0.1l6.6-1.4l0.9-0.2c0,0,0.6-0.1,0.5-0.3l-3.4-5.2
				l-0.5-0.7C74.2,145.3,73.4,145.6,73.4,145.7z"/>
			<path class="st4" d="M58.8,145.8l3.5,5.2l0.5,0.7l0.3-0.4l-6.6,1.4l-0.9,0.2l0.5,0.1l3.1-6.6l0.4-0.9c0.1-0.2-0.3-0.2-0.4-0.2
				C59.1,145.4,58.9,145.5,58.8,145.8l-3.1,6.5l-0.4,0.9c-0.1,0.2,0.4,0.1,0.5,0.1l6.5-1.4l0.9-0.2c0.1,0,0.5-0.2,0.3-0.4l-3.5-5.2
				l-0.5-0.7C59.5,145.2,58.6,145.5,58.8,145.8z"/>
			<path class="st4" d="M44.2,145.7l3.5,5.2l0.5,0.7l0.5-0.3l-6.6,1.4l-0.9,0.2l0.4,0.1l3.1-6.6l0.4-0.9
				C45.1,145.4,44.3,145.4,44.2,145.7l-3.1,6.5l-0.4,0.9c-0.1,0.2,0.3,0.1,0.3,0.1l6.6-1.4l0.9-0.2c0,0,0.6-0.2,0.5-0.3l-3.5-5.2
				l-0.5-0.7C44.9,145.3,44.1,145.6,44.2,145.7z"/>
			<path class="st4" d="M29.5,145.7l3.4,5.2l0.5,0.7l0.5-0.3l-6.6,1.4l-0.9,0.2l0.4,0.1l3.1-6.6l0.4-0.9
				C30.4,145.4,29.6,145.5,29.5,145.7l-3.1,6.5l-0.4,0.9c-0.1,0.1,0.3,0.1,0.3,0.1l6.6-1.4l0.9-0.2c0,0,0.6-0.2,0.5-0.3l-3.5-5.2
				l-0.5-0.7C30.3,145.3,29.5,145.6,29.5,145.7z"/>
			<path class="st4" d="M14.9,145.7l3.4,5.2l0.5,0.7l0.5-0.3l-6.6,1.4l-0.9,0.2l0.4,0.1l3.1-6.6l0.4-0.9
				C15.9,145.4,15,145.4,14.9,145.7l-3.1,6.5l-0.4,0.9c-0.1,0.2,0.3,0.1,0.4,0.1l6.6-1.4l0.9-0.2c0,0,0.6-0.1,0.5-0.3l-3.5-5.2
				l-0.5-0.7C15.6,145.3,14.8,145.6,14.9,145.7z"/>
			<path class="st4" d="M146.6,145.8l3.4,5.2l0.5,0.7l0.3-0.5l-6.6,1.4l-0.9,0.2l0.5,0.4l3.1-6.6l0.4-0.9c0.2-0.5-0.7-0.5-0.9-0.1
				l-3.1,6.6L143,153c-0.1,0.3,0.3,0.4,0.5,0.4l6.6-1.4l0.9-0.2c0.2,0,0.5-0.3,0.3-0.5l-3.5-5.2l-0.5-0.7
				C147.2,145.1,146.4,145.4,146.6,145.8z"/>
			<path class="st4" d="M132,171l3.4,5.2l0.5,0.7l0.3-0.4l-6.6,1.4l-0.9,0.2l0.5,0.3l3.1-6.6l0.4-0.9c0.2-0.4-0.7-0.3-0.8,0
				l-3.1,6.6l-0.4,0.9c-0.1,0.3,0.3,0.3,0.5,0.3l6.6-1.4l0.9-0.2c0.2,0,0.5-0.2,0.3-0.4l-3.4-5.2l-0.5-0.7
				C132.6,170.4,131.8,170.7,132,171z"/>
			<path class="st4" d="M117.3,171l3.5,5.2l0.5,0.7l0.3-0.4l-6.6,1.5l-0.9,0.2l0.5,0.1l3.1-6.6l0.4-0.9c0.1-0.2-0.3-0.2-0.4-0.2
				C117.6,170.7,117.4,170.8,117.3,171l-3.1,6.5l-0.4,0.9c-0.1,0.2,0.4,0.2,0.5,0.1l6.6-1.4l1-0.2c0.1,0,0.5-0.2,0.3-0.4l-3.4-5.2
				l-0.5-0.7C118,170.4,117.2,170.7,117.3,171z"/>
			<path class="st4" d="M102.7,171l3.4,5.2l0.5,0.7l0.3-0.5l-6.6,1.4l-0.9,0.2l0.5,0.3l3.1-6.6l0.4-0.9c0.2-0.4-0.7-0.4-0.8-0.1
				l-3.1,6.6l-0.4,0.9c-0.1,0.3,0.3,0.4,0.5,0.3l6.6-1.4l0.9-0.2c0.2,0,0.5-0.3,0.3-0.5l-3.4-5.2l-0.5-0.7
				C103.3,170.4,102.5,170.7,102.7,171z"/>
			<path class="st4" d="M88.1,171l3.5,5.2L92,177l0.3-0.4l-6.6,1.4l-0.9,0.2l0.5,0.3l3.1-6.6l0.4-0.9c0.2-0.4-0.7-0.4-0.8-0.1
				l-3.1,6.6l-0.4,0.9c-0.1,0.3,0.3,0.3,0.5,0.3l6.6-1.4l0.9-0.2c0.2,0,0.5-0.2,0.3-0.4l-3.4-5.2l-0.5-0.7
				C88.7,170.4,87.9,170.7,88.1,171z"/>
			<path class="st4" d="M73.4,171l3.5,5.2l0.5,0.7l0.4-0.3l-6.6,1.4l-0.9,0.2l0.5,0.1l3.1-6.6l0.4-0.9c0.1-0.2-0.3-0.1-0.4-0.1
				C73.7,170.7,73.5,170.8,73.4,171l-3.1,6.5l-0.4,0.9c-0.1,0.2,0.4,0.1,0.5,0.1l6.6-1.4l0.9-0.2c0.1,0,0.5-0.2,0.3-0.4l-3.4-5.2
				l-0.5-0.7C74.1,170.5,73.3,170.8,73.4,171z"/>
			<path class="st4" d="M58.8,171l3.5,5.2l0.5,0.8l0.3-0.4l-6.6,1.4l-0.9,0.2l0.5,0.1l3.1-6.6l0.4-0.9c0.1-0.2-0.3-0.2-0.4-0.2
				C59.1,170.7,58.9,170.8,58.8,171l-3.1,6.5l-0.4,0.9c-0.1,0.2,0.4,0.1,0.5,0.1l6.6-1.4l0.9-0.2c0.1,0,0.5-0.2,0.4-0.4l-3.5-5.2
				l-0.5-0.7C59.5,170.5,58.6,170.8,58.8,171z"/>
			<path class="st4" d="M44.2,171l3.5,5.2l0.5,0.7l0.5-0.3l-6.6,1.4l-0.9,0.2l0.3,0.1l3.1-6.6l0.4-0.9c0.1-0.1-0.3-0.1-0.3-0.1
				C44.6,170.7,44.2,170.8,44.2,171l-3.1,6.5l-0.4,0.9c-0.1,0.1,0.3,0.1,0.3,0.1l6.6-1.4l0.9-0.2c0,0,0.6-0.1,0.5-0.3l-3.5-5.2
				l-0.5-0.7C44.9,170.5,44.1,170.9,44.2,171z"/>
			<path class="st4" d="M29.6,171l3.5,5.2l0.5,0.7l0.4-0.4l-6.6,1.5l-0.9,0.2l0.5,0.1l3.1-6.6l0.4-0.9c0.1-0.2-0.3-0.2-0.4-0.2
				C29.8,170.7,29.6,170.8,29.6,171l-3.1,6.5l-0.4,0.9c-0.1,0.2,0.4,0.2,0.5,0.1l6.6-1.4L34,177c0.2,0,0.5-0.2,0.4-0.4l-3.5-5.2
				l-0.5-0.7C30.2,170.5,29.4,170.7,29.6,171z"/>
			<path class="st4" d="M14.9,171l3.5,5.2l0.5,0.7l0.3-0.4l-6.5,1.4l-0.9,0.2l0.5,0.1l3.1-6.6l0.4-0.9c0.1-0.2-0.3-0.2-0.4-0.2
				C15.2,170.7,15,170.8,14.9,171l-3.1,6.5l-0.4,0.9c-0.1,0.2,0.4,0.1,0.5,0.1l6.6-1.4l0.9-0.2c0.1,0,0.5-0.2,0.4-0.4l-3.5-5.2
				l-0.5-0.7C15.6,170.5,14.7,170.7,14.9,171z"/>
			<path class="st4" d="M146.6,171l3.4,5.2l0.5,0.7l0.4-0.3l-6.6,1.4l-0.9,0.2l0.5,0.1l3.1-6.6l0.4-0.9c0.1-0.2-0.3-0.1-0.4-0.1
				C146.9,170.7,146.7,170.8,146.6,171l-3.1,6.5l-0.4,0.9c-0.1,0.2,0.4,0.1,0.5,0.1l6.6-1.4l0.9-0.2c0.1,0,0.5-0.2,0.4-0.4l-3.5-5.2
				l-0.5-0.7C147.3,170.5,146.4,170.8,146.6,171z"/>
			<path class="st4" d="M140.5,158.4l3.4,5.2l0.5,0.7l0.3-0.4l-6.6,1.4l-0.9,0.2l0.5,0.3l3.1-6.6l0.4-0.9c0.2-0.4-0.7-0.4-0.8-0.1
				l-3.1,6.6l-0.4,0.9c-0.1,0.3,0.3,0.3,0.5,0.3l6.6-1.4l0.9-0.2c0.2,0,0.5-0.2,0.3-0.4l-3.5-5.2l-0.5-0.7
				C141.2,157.8,140.3,158.1,140.5,158.4z"/>
			<path class="st4" d="M125.9,158.3l3.5,5.2l0.5,0.7l0.5-0.3l-6.6,1.4l-0.9,0.2l0.3,0.1l3.1-6.6l0.4-0.9c0.1-0.1-0.3-0.1-0.3-0.1
				S126,158.2,125.9,158.3l-3.1,6.5l-0.4,0.9c-0.1,0.1,0.3,0.1,0.3,0.1l6.6-1.4l0.9-0.2c0,0,0.6-0.1,0.5-0.3l-3.4-5.2l-0.5-0.7
				C126.6,157.9,125.8,158.3,125.9,158.3z"/>
			<path class="st4" d="M111.2,158.3l3.4,5.2l0.5,0.7l0.5-0.3l-6.6,1.4l-0.9,0.2l0.4,0.1l3.1-6.6l0.4-0.9
				C112.2,158,111.4,158.1,111.2,158.3l-3.1,6.5l-0.4,0.9c-0.1,0.2,0.3,0.1,0.3,0.1l6.6-1.4l0.9-0.2c0,0,0.6-0.2,0.5-0.3l-3.5-5.2
				l-0.5-0.7C112,157.9,111.2,158.2,111.2,158.3z"/>
			<path class="st4" d="M96.6,158.4l3.4,5.2l0.5,0.7l0.3-0.4l-6.6,1.4l-0.9,0.2l0.5,0.1l3.1-6.6l0.4-0.9c0.1-0.2-0.3-0.2-0.4-0.2
				c-0.2,0-0.4,0.1-0.5,0.3l-3.1,6.6l-0.4,0.9c-0.1,0.2,0.4,0.2,0.5,0.1l6.6-1.4l0.9-0.2c0.2,0,0.5-0.2,0.3-0.4l-3.4-5.2l-0.5-0.7
				C97.3,157.8,96.5,158.1,96.6,158.4z"/>
			<path class="st4" d="M82,158.4l3.5,5.2l0.5,0.7l0.3-0.4l-6.5,1.4l-0.9,0.2l0.5,0.1l3.1-6.6l0.4-0.9c0.1-0.2-0.3-0.2-0.4-0.2
				c-0.2,0-0.4,0.1-0.5,0.3l-3.1,6.6l-0.4,0.9c-0.1,0.2,0.4,0.1,0.5,0.1l6.6-1.4l0.9-0.2c0.1,0,0.5-0.2,0.3-0.4l-3.4-5.2l-0.5-0.7
				C82.7,157.8,81.8,158.1,82,158.4z"/>
			<path class="st4" d="M67.4,158.4l3.4,5.2l0.5,0.7l0.3-0.4l-6.6,1.4l-0.9,0.2l0.5,0.2l3.2-6.6l0.4-0.9c0.2-0.4-0.7-0.3-0.8,0
				l-3.1,6.6l-0.4,0.9c-0.1,0.3,0.3,0.3,0.5,0.3l6.6-1.4l0.9-0.2c0.2,0,0.5-0.2,0.3-0.4l-3.5-5.2l-0.5-0.7
				C68,157.8,67.2,158.1,67.4,158.4z"/>
			<path class="st4" d="M52.8,158.4l3.5,5.2l0.5,0.7l0.3-0.5l-6.5,1.4l-0.9,0.2l0.5,0.3l3.1-6.6l0.4-0.9c0.2-0.4-0.7-0.4-0.8-0.1
				l-3.1,6.6l-0.4,0.9c-0.2,0.3,0.3,0.4,0.5,0.3l6.5-1.4l0.9-0.2c0.2,0,0.5-0.3,0.3-0.5l-3.5-5.2l-0.5-0.7
				C53.3,157.7,52.5,158.1,52.8,158.4z"/>
			<path class="st4" d="M38.1,158.4l3.5,5.2l0.5,0.7l0.3-0.4l-6.6,1.4l-0.9,0.2l0.5,0.2l3.1-6.6l0.4-0.9c0.2-0.4-0.7-0.3-0.8,0
				l-3.1,6.6l-0.4,0.9c-0.1,0.3,0.3,0.3,0.5,0.2l6.5-1.4l0.9-0.2c0.1,0,0.5-0.2,0.3-0.4l-3.5-5.2l-0.5-0.7
				C38.8,157.8,37.9,158.1,38.1,158.4z"/>
			<path class="st4" d="M23.5,158.3l3.4,5.2l0.5,0.7l0.5-0.3l-6.6,1.4l-0.9,0.2l0.4,0.1l3.1-6.6l0.4-0.9c0.1-0.1-0.3-0.1-0.4-0.1
				C23.9,158.1,23.5,158.2,23.5,158.3l-3.1,6.5l-0.4,0.9c-0.1,0.1,0.3,0.1,0.4,0.1l6.5-1.4l0.9-0.2c0,0,0.6-0.1,0.5-0.3l-3.4-5.2
				l-0.5-0.7C24.2,157.9,23.4,158.2,23.5,158.3z"/>
			<path class="st4" d="M155.1,158.3l3.4,5.2l0.5,0.7l0.5-0.3l-6.6,1.4l-0.9,0.2l0.4,0.1l3.1-6.6l0.4-0.9
				C156.1,158,155.3,158.1,155.1,158.3l-3.1,6.5l-0.4,0.9c-0.1,0.1,0.3,0.1,0.4,0.1l6.6-1.4l0.9-0.2c0,0,0.6-0.1,0.5-0.3l-3.4-5.2
				l-0.5-0.7C155.9,157.9,155.1,158.3,155.1,158.3z"/>
		</g>
	</g>
	<path class="st5" d="M74.9,85.6c0,0-12.8-3.2-24,1.5s-9.6-27-8.8-28.2s21.5-13.7,21.5-13.7L74.9,85.6z"/>
	<path class="st5" d="M97.1,85.1c0,0,13-2.4,23.8,3s11.2-26.4,10.4-27.6c-0.8-1.2-20.7-15-20.7-15L97.1,85.1z"/>
	<path class="st1" d="M62.3,55.9c-2.5-7.8-8.4-6-9-5.8c-0.6,0.2-6.7,1-5.6,9s5.8,12.5,10.2,11.2C62.5,69.7,64.8,63.7,62.3,55.9z"/>
	<path class="st1" d="M112.2,55.9c2.5-7.8,8.4-6,9-5.8c0.6,0.2,6.7,1,5.6,9s-5.8,12.5-10.2,11.2C112.1,69.7,109.7,63.7,112.2,55.9z"
		/>
	<path class="st0" d="M56.3,44.1c3.1-34,28.9-32.1,31.4-31.8c2.4-0.3,28.3-2.2,31.4,31.8c3.1,34.2-12.1,56.5-31.4,55.3
		C68.4,100.7,53.2,78.3,56.3,44.1z"/>
	<path class="st6" d="M52.6,52.2l8.7,6.7l21,1c0,0,6.2-6.8,12.8-0.3l19.3,0.3l8.3-6.7"/>
	<circle class="st7" cx="72" cy="59" r="10.5"/>
	<circle class="st7" cx="104.5" cy="59" r="10.5"/>
	<path class="st1" d="M92.1,61c0.8,1.5,1.4,3.2,1.8,4.9c0.2,0.8,0.4,1.7,0.6,2.5s0.3,1.7,0.4,2.6v0.4l-0.2,0.2
		c-0.7,0.7-1.4,1.3-2.1,1.9c-0.7,0.6-1.5,1.2-2.3,1.7c0.5-0.8,1.1-1.6,1.7-2.3s1.2-1.5,1.8-2.2l-0.2,0.6c-0.3-0.8-0.5-1.7-0.7-2.5
		s-0.3-1.7-0.5-2.5C92.1,64.5,92,62.7,92.1,61z"/>
	<path class="st8" d="M100.8,81.2c-6.2,6-16.6,5.7-24.5,0.3"/>
	<path class="st4" d="M112,49.4c-1.3-0.8-2.7-1.5-4.1-2.1c-1.3-0.6-2.6-0.9-4-1.1c-1.3-0.1-2.7,0-3.9,0.5c-0.7,0.2-1.4,0.5-2,0.9
		c-0.7,0.3-1.3,0.8-2.1,1.1c0.3-0.8,0.8-1.5,1.3-2.2c0.5-0.7,1.2-1.2,1.9-1.7c0.4-0.3,0.7-0.5,1.2-0.7c0.4-0.2,0.8-0.3,1.3-0.5
		c0.9-0.2,1.8-0.3,2.7-0.2c1.8,0.2,3.5,0.9,4.8,2C110.3,46.5,111.4,47.9,112,49.4z"/>
	<path class="st4" d="M79.8,49.4c-1.3-0.8-2.7-1.5-4.1-2.1c-1.3-0.6-2.6-0.9-4-1.1c-1.3-0.1-2.7,0-3.9,0.5c-0.7,0.2-1.4,0.5-2,0.9
		c-0.7,0.3-1.3,0.8-2.1,1.1c0.3-0.8,0.8-1.5,1.3-2.2c0.6-0.7,1.2-1.2,1.9-1.7c0.4-0.3,0.7-0.5,1.2-0.7c0.4-0.2,0.8-0.3,1.3-0.5
		c0.9-0.2,1.8-0.3,2.7-0.2c1.8,0.2,3.5,0.9,4.8,2C78.1,46.5,79.2,47.9,79.8,49.4z"/>
	<path class="st4" d="M78.8,61.7c-0.4-1.4-1-2.7-1.9-3.9c-0.9-1-2.2-1.6-3.5-1.6c-0.7,0-1.4,0.1-2,0.3c-0.6,0.3-1.1,0.7-1.5,1.2
		c-0.8,1.2-1.3,2.6-1.4,4c-0.4-1.5-0.2-3.2,0.6-4.5c0.4-0.7,1.1-1.3,1.8-1.7c0.8-0.3,1.6-0.5,2.4-0.4c1.7,0,3.3,0.8,4.2,2.2
		C78.5,58.6,78.9,60.2,78.8,61.7z"/>
	<path class="st4" d="M107.7,61.3c-0.4-1.4-1-2.7-1.9-3.9c-0.9-1-2.1-1.6-3.5-1.6c-0.7,0-1.4,0.1-2,0.3c-0.6,0.2-1.1,0.6-1.5,1.2
		c-0.8,1.2-1.3,2.6-1.4,4c-0.4-1.5-0.1-3.2,0.6-4.5c0.4-0.7,1.1-1.3,1.8-1.7c0.8-0.3,1.6-0.5,2.4-0.4c1.7,0,3.3,0.8,4.2,2.2
		C107.4,58.1,107.8,59.7,107.7,61.3z"/>
	<path class="st9" d="M57.5,8.3c0,0,9.7-12.3,29-4.3c11-7,19.3-3.7,27.3,2.3l-25.7,13L57.5,8.3z"/>
	<path class="st9" d="M22.4,80c-1.3-3.5-2-7.3-2.1-11.1c0-1.9,0.3-3.8,0.8-5.7c0.5-1.8,1.3-3.6,2.3-5.2c2.1-3.2,4.9-6,8.1-8
		c1.6-1,3.3-2,5-2.8c1.6-0.8,3.1-1.8,4.4-3c2.6-2.5,4.5-5.6,5.5-9c1.2-3.4,1.9-7.1,2.9-10.7c0.8-3.7,2.2-7.3,4-10.6
		c2-3.3,4.9-5.8,8.3-7.4c-1.6,1-3,2.1-4.3,3.4c-1.3,1.3-2.3,2.8-3.2,4.5c-1.6,3.3-2.7,6.8-3.4,10.5c-0.7,3.7-1.5,7.4-2.6,11
		c-1.1,3.7-3.2,7.1-6,9.8c-1.5,1.3-3.1,2.4-4.9,3.3c-1.6,0.8-3.3,1.7-4.8,2.6c-3.1,1.8-5.8,4.3-7.8,7.3c-1,1.5-1.8,3.1-2.4,4.8
		c-0.5,1.7-0.9,3.5-1,5.3C21.1,72.8,21.4,76.5,22.4,80z"/>
	<path class="st9" d="M88.7,23.6c-1.7-0.7-3.5-1.1-5.3-1.3c-1.7-0.2-3.5,0.1-5.1,0.9c-1.5,0.8-2.6,2.1-3.3,3.6
		c-0.7,1.6-1.2,3.3-1.5,5.1c-0.7,3.5-0.8,7.2-1.8,11c-0.9,3.8-2.8,7.4-5.6,10.3c-0.7,0.7-1.4,1.4-2.1,2c-0.7,0.6-1.5,1.3-2.3,1.9
		s-1.6,1.1-2.3,1.7l-1.1,0.8c-0.3,0.2-0.6,0.5-0.9,0.7c-0.6,0.5-1,1.1-1.4,1.8c-0.4,0.7-0.6,1.4-0.7,2.2c-0.2,1.7-0.1,3.4,0.3,5.1
		c0.7,3.5,2,7,2.9,10.7c0.5,1.8,0.8,3.7,0.8,5.6c0,1-0.1,1.9-0.3,2.8c-0.3,0.9-0.7,1.8-1.3,2.6c0.4-0.8,0.7-1.7,0.8-2.6
		c0.1-0.9,0.1-1.8,0-2.7c-0.3-1.8-0.7-3.6-1.4-5.3c-1.2-3.5-2.8-6.8-3.7-10.6c-0.6-1.9-0.7-4-0.6-6c0.1-1.1,0.4-2.1,0.9-3.1
		c0.5-1,1.1-1.9,1.9-2.6c0.4-0.4,0.8-0.7,1.2-1l1.1-0.8c0.7-0.5,1.5-1,2.2-1.6s1.4-1.1,2.1-1.7s1.3-1.2,1.9-1.9c2.4-2.5,4.1-5.6,5-9
		c1-3.4,1.2-7.1,2.2-10.8c0.3-0.9,0.5-1.8,0.9-2.8c0.3-0.9,0.7-1.8,1.2-2.7c1-1.8,2.5-3.2,4.4-4c1.8-0.7,3.9-0.9,5.8-0.4
		C85.4,21.9,87.1,22.6,88.7,23.6z"/>
	<path class="st9" d="M59.9,6.3c-16.7,10.3-4.7,33.7-22,43.3s-15.7,23-12,32.7c1.3,3.4,4.9,5.3,9,6.3c-1.3-5-2.3-12.1-0.4-19
		c0,0-1.3,11.6,2.6,19.4c2.1,0.3,4.2,0.5,6.3,0.6c-0.6-2.4-0.8-4.9-0.6-7.3c0.5,2.5,1.3,5,2.2,7.3c2.2,0,4.3-0.1,6.5-0.3
		c6.7-8-9.7-26.3,2.7-32.7c18.2-9.4,14-18.7,19-29s14.3-3.3,14.3-3.3C89.2,4.6,76.6-4.1,59.9,6.3z"/>
	<path class="st9" d="M151.4,80c0.9-3.6,1.3-7.3,1.1-11c-0.1-1.8-0.5-3.6-1-5.3c-0.6-1.7-1.4-3.3-2.4-4.8c-2.1-3-4.8-5.4-7.9-7.3
		c-1.6-1-3.2-1.8-4.8-2.6c-1.8-0.8-3.4-1.9-4.9-3.3c-2.8-2.7-4.9-6.1-6-9.9c-1.1-3.6-1.9-7.3-2.6-11c-0.6-3.6-1.8-7.1-3.4-10.4
		c-0.8-1.6-1.9-3.1-3.2-4.5c-1.3-1.3-2.7-2.5-4.3-3.4c3.5,1.6,6.4,4.2,8.3,7.4c1.8,3.3,3.2,6.9,4,10.6c0.9,3.6,1.7,7.3,2.9,10.7
		c1,3.4,3,6.5,5.6,9c1.3,1.2,2.8,2.2,4.4,3c1.7,0.8,3.4,1.8,5,2.8c3.3,2,6.1,4.8,8.1,8c1,1.7,1.8,3.4,2.4,5.3
		c0.5,1.8,0.7,3.7,0.8,5.7C153.5,72.8,152.8,76.5,151.4,80z"/>
	<path class="st9" d="M85.1,23.6c1.6-1,3.4-1.7,5.2-2.1c1.9-0.4,3.9-0.3,5.8,0.4c1.9,0.8,3.4,2.2,4.4,4c0.5,0.9,0.9,1.8,1.2,2.7
		c0.3,0.9,0.6,1.8,0.8,2.8c1,3.7,1.2,7.5,2.2,10.8c0.9,3.4,2.6,6.5,5,9c0.6,0.6,1.3,1.2,1.9,1.9s1.4,1.1,2,1.7s1.5,1.1,2.2,1.6
		l1.1,0.8c0.4,0.3,0.9,0.6,1.2,1c0.8,0.7,1.4,1.6,1.9,2.6c0.5,1,0.7,2,0.9,3.1c0.2,2,0,4-0.6,5.9c-1,3.7-2.5,7.1-3.7,10.6
		c-0.6,1.7-1.1,3.5-1.4,5.3c-0.1,0.9-0.1,1.8,0,2.7c0.1,0.9,0.4,1.8,0.8,2.6c-0.6-0.8-1-1.6-1.3-2.5c-0.2-0.9-0.3-1.9-0.3-2.8
		c0.1-1.9,0.3-3.8,0.8-5.6c0.9-3.6,2.2-7.2,2.9-10.7c0.4-1.7,0.4-3.4,0.3-5.1c-0.1-0.8-0.4-1.5-0.7-2.2c-0.4-0.7-0.9-1.3-1.4-1.8
		c-0.3-0.3-0.6-0.5-0.9-0.7c-0.3-0.2-0.8-0.5-1.1-0.8c-0.8-0.6-1.6-1-2.3-1.7c-0.8-0.6-1.5-1.2-2.2-1.8c-0.7-0.6-1.4-1.3-2.1-2
		c-2.7-2.9-4.6-6.4-5.5-10.2c-0.9-3.8-1.1-7.5-1.8-11c-0.3-1.8-0.8-3.5-1.5-5.1c-0.7-1.5-1.9-2.8-3.3-3.6c-1.6-0.8-3.3-1.1-5.1-0.9
		C88.6,22.4,86.8,22.9,85.1,23.6z"/>
	<path class="st9" d="M135.9,49.6c-17.3-9.7-5.3-33-22-43.3s-28-1.7-26.3,18c0,0,8-7,13,3.3s0.8,19.6,19,29
		c12.3,6.3-4,24.7,2.7,32.7c3.7,0.4,7.4,0.4,11.1,0.2c1.5-3.9,2.5-8,2.9-12.2c0.5,4,0.3,8-0.8,11.9c1.5-0.2,3-0.5,4.5-0.9
		c0.6-1.6,1-3.3,1.3-5c0.1,1.6,0,3.1-0.1,4.7c3.2-1.1,5.8-2.9,6.8-5.7C151.5,72.6,153.2,59.3,135.9,49.6z"/>
</g>
</svg>
